<svg width="28" height="24" viewBox="0 0 28 24" fill="none" xmlns="http://www.w3.org/2000/svg">
<path d="M26.8334 1.50001C25.7161 2.28807 24.4791 2.89081 23.17 3.28501C22.4674 2.47711 21.5336 1.90449 20.4949 1.64459C19.4562 1.3847 18.3628 1.45007 17.3624 1.83188C16.3621 2.21368 15.5032 2.89348 14.9018 3.77935C14.3005 4.66522 13.9857 5.7144 14 6.78501V7.95168C11.9498 8.00484 9.91817 7.55013 8.0862 6.62803C6.25422 5.70594 4.67872 4.34509 3.50002 2.66668C3.50002 2.66668 -1.16665 13.1667 9.33335 17.8333C6.93064 19.4643 4.06837 20.2821 1.16669 20.1667C11.6667 26 24.5 20.1667 24.5 6.75001C24.4989 6.42504 24.4677 6.10087 24.4067 5.78168C25.5974 4.60742 26.4377 3.12484 26.8334 1.50001Z" stroke="black" strokeWidth="2" stroke-linecap="round" stroke-linejoin="round"/>
</svg>
