<svg width="80" height="80" viewBox="0 0 80 80" fill="none" xmlns="http://www.w3.org/2000/svg">
<path fill-rule="evenodd" clip-rule="evenodd" d="M25 54V49.2249C26.1397 50.2743 27.6614 50.9151 29.3333 50.9151C31.5601 50.9151 33.5203 49.7784 34.6667 48.0537C35.813 49.7784 37.7732 50.9151 40 50.9151C42.2268 50.9151 44.187 49.7784 45.3333 48.0537C46.4797 49.7784 48.4399 50.9151 50.6667 50.9151C52.3386 50.9151 53.8603 50.2743 55 49.2249V54H58C60.2091 54 62 55.7909 62 58V67C62 68.1046 61.1046 69 60 69H20C18.8954 69 18 68.1046 18 67V58C18 55.7909 19.7909 54 22 54H25ZM29 41C27.0406 41 25.4102 42.4089 25.0667 44.2689V44.5152V45.0604C25.0983 45.1335 25.1222 45.211 25.1371 45.2921C25.5017 47.2775 27.243 48.7818 29.3333 48.7818C31.4237 48.7818 33.1649 47.2775 33.5296 45.2921C33.6226 44.7858 34.0639 44.4182 34.5787 44.4182H34.7546C35.2694 44.4182 35.7107 44.7858 35.8037 45.2921C36.1684 47.2775 37.9096 48.7818 40 48.7818C42.0904 48.7818 43.8316 47.2775 44.1963 45.2921C44.2893 44.7858 44.7306 44.4182 45.2454 44.4182H45.4213C45.9361 44.4182 46.3774 44.7858 46.4704 45.2921C46.8351 47.2775 48.5763 48.7818 50.6667 48.7818C52.757 48.7818 54.4983 47.2775 54.8629 45.2921C54.8778 45.211 54.9017 45.1335 54.9333 45.0604V44.5152V44.2689C54.5898 42.4089 52.9594 41 51 41H29Z" fill="white" fill-opacity="0.4"/>
<circle cx="40" cy="34" r="4" fill="white" fill-opacity="0.4"/>
<circle cx="17.5" cy="34.5" r="1.5" fill="white" fill-opacity="0.4"/>
<circle cx="53" cy="34" r="1" fill="white" fill-opacity="0.4"/>
<circle cx="67" cy="27" r="1" fill="white" fill-opacity="0.4"/>
<circle cx="26" cy="13" r="1" fill="white" fill-opacity="0.4"/>
<circle cx="57.5" cy="14.5" r="0.5" fill="white" fill-opacity="0.4"/>
<path d="M33 16.9767C33 13.1236 36.1236 10 39.9767 10C43.8299 10 46.9535 13.1236 46.9535 16.9767C46.9535 20.1445 44.8423 22.8192 41.9501 23.6705C40.8905 23.9824 39.9767 24.8489 39.9767 25.9535V28" stroke="white" stroke-opacity="0.4" stroke-width="6"/>
</svg>
