<svg width="28" height="28" viewBox="0 0 28 28" fill="none" xmlns="http://www.w3.org/2000/svg">
<path d="M23.0967 5.59608C21.4236 4.82839 19.6295 4.2628 17.7536 3.93886C17.7195 3.93261 17.6854 3.94823 17.6678 3.97948C17.437 4.38987 17.1814 4.92526 17.0024 5.34607C14.9848 5.04401 12.9775 5.04401 11.0013 5.34607C10.8223 4.91591 10.5574 4.38987 10.3256 3.97948C10.308 3.94927 10.2739 3.93365 10.2397 3.93886C8.3649 4.26176 6.57077 4.82736 4.89665 5.59608C4.88215 5.60233 4.86973 5.61275 4.86149 5.62628C1.4584 10.7104 0.526148 15.6696 0.983478 20.5673C0.985548 20.5913 0.998998 20.6142 1.01762 20.6287C3.26288 22.2776 5.4378 23.2786 7.57234 23.9421C7.6065 23.9526 7.64269 23.9401 7.66443 23.9119C8.16936 23.2224 8.61945 22.4953 9.00536 21.7308C9.02814 21.686 9.0064 21.6329 8.95985 21.6152C8.24593 21.3443 7.56613 21.0141 6.9122 20.6392C6.86048 20.609 6.85634 20.535 6.90392 20.4996C7.04153 20.3965 7.17918 20.2892 7.31058 20.1808C7.33435 20.1611 7.36748 20.1569 7.39543 20.1694C11.6914 22.1308 16.3423 22.1308 20.5876 20.1694C20.6156 20.1558 20.6487 20.16 20.6735 20.1798C20.8049 20.2881 20.9425 20.3965 21.0812 20.4996C21.1288 20.535 21.1257 20.609 21.0739 20.6392C20.42 21.0214 19.7402 21.3443 19.0252 21.6141C18.9787 21.6318 18.958 21.686 18.9808 21.7308C19.375 22.4943 19.8251 23.2213 20.3207 23.9109C20.3414 23.9401 20.3786 23.9526 20.4128 23.9421C22.5576 23.2786 24.7326 22.2776 26.9778 20.6287C26.9975 20.6142 27.0099 20.5923 27.012 20.5683C27.5593 14.9061 26.0952 9.98755 23.1309 5.62732C23.1236 5.61275 23.1112 5.60233 23.0967 5.59608ZM9.6469 17.5851C8.35351 17.5851 7.2878 16.3977 7.2878 14.9394C7.2878 13.4811 8.33285 12.2937 9.6469 12.2937C10.9713 12.2937 12.0267 13.4916 12.006 14.9394C12.006 16.3977 10.9609 17.5851 9.6469 17.5851ZM18.3693 17.5851C17.0759 17.5851 16.0102 16.3977 16.0102 14.9394C16.0102 13.4811 17.0552 12.2937 18.3693 12.2937C19.6937 12.2937 20.749 13.4916 20.7284 14.9394C20.7284 16.3977 19.6937 17.5851 18.3693 17.5851Z" fill="white" fill-opacity="0.8"/>
</svg>
