<svg width="28" height="28" viewBox="0 0 28 28" fill="none" xmlns="http://www.w3.org/2000/svg">
<path fill-rule="evenodd" clip-rule="evenodd" d="M3.9375 18.375C4.66237 18.375 5.25 18.9626 5.25 19.6875V22.75H22.75V19.6875C22.75 18.9626 23.3376 18.375 24.0625 18.375C24.7874 18.375 25.375 18.9626 25.375 19.6875V23.1875C25.375 24.3956 24.3956 25.375 23.1875 25.375H4.8125C3.60438 25.375 2.625 24.3956 2.625 23.1875V19.6875C2.625 18.9626 3.21263 18.375 3.9375 18.375Z" fill="white" fill-opacity="0.8"/>
<path fill-rule="evenodd" clip-rule="evenodd" d="M12.375 2.625C11.8227 2.625 11.375 3.07272 11.375 3.625V10.5H8.37037C7.5046 10.5 7.04791 11.5254 7.62708 12.169L13.2567 18.4241C13.654 18.8655 14.3461 18.8655 14.7433 18.4241L20.3729 12.169C20.9521 11.5254 20.4954 10.5 19.6296 10.5H16.625V3.625C16.625 3.07272 16.1773 2.625 15.625 2.625H12.375Z" fill="white" fill-opacity="0.8"/>
</svg>
