<svg width="28" height="28" viewBox="0 0 28 28" fill="none" xmlns="http://www.w3.org/2000/svg">
<path d="M20.4166 2.91663C18.4836 2.91663 16.9166 4.48363 16.9166 6.41663C16.9166 6.72518 16.9565 7.02441 17.0315 7.30943C16.9488 7.32651 16.8672 7.35594 16.7893 7.39846L13.5733 9.15261L9.48247 11.4902C9.44066 11.5141 9.40156 11.541 9.3653 11.5703C8.84332 11.2609 8.23403 11.0833 7.58325 11.0833C5.65026 11.0833 4.08325 12.6503 4.08325 14.5833C4.08325 16.5163 5.65026 18.0833 7.58325 18.0833C8.603 18.0833 9.52089 17.6472 10.1606 16.9513L13.575 18.8482L17.0218 20.7283C16.9531 21.0019 16.9166 21.2883 16.9166 21.5833C16.9166 23.5163 18.4836 25.0833 20.4166 25.0833C22.3496 25.0833 23.9166 23.5163 23.9166 21.5833C23.9166 19.6503 22.3496 18.0833 20.4166 18.0833C19.4081 18.0833 18.4992 18.5098 17.8605 19.1924L14.4219 17.3168L10.9856 15.4077C11.0494 15.1433 11.0833 14.8673 11.0833 14.5833C11.0833 13.9537 10.917 13.3628 10.626 12.8524L14.4265 10.6806L17.6273 8.93478C17.7055 8.89211 17.7746 8.83925 17.8338 8.77873C18.4738 9.47805 19.394 9.91663 20.4166 9.91663C22.3496 9.91663 23.9166 8.34962 23.9166 6.41663C23.9166 4.48363 22.3496 2.91663 20.4166 2.91663Z" fill="white" fill-opacity="0.8"/>
</svg>
