<svg width="142" height="30" viewBox="0 0 142 30" fill="none" xmlns="http://www.w3.org/2000/svg">
<g clip-path="url(#clip0_73_3652)">
<path fill-rule="evenodd" clip-rule="evenodd" d="M50.8 0.800006C51.45 1.05001 52 1.45001 52.5 1.95001L52.55 2.00001L52.75 1.80001L52.65 1.70001C52.15 1.20001 51.55 0.750006 50.85 0.500006C50.15 0.200006 49.45 0.100006 48.7 0.100006C47.95 0.100006 47.25 0.250006 46.55 0.500006C45.85 0.800006 45.25 1.20001 44.75 1.70001C44.25 2.20001 43.8 2.80001 43.55 3.50001C43.25 4.20001 43.15 4.90001 43.15 5.65001C43.15 6.40001 43.3 7.10001 43.55 7.80001C43.85 8.50001 44.25 9.10001 44.75 9.60001C45.25 10.1 45.85 10.55 46.55 10.8C47.25 11.1 47.95 11.2 48.7 11.2C49.45 11.2 50.15 11.05 50.85 10.8C51.55 10.5 52.15 10.1 52.65 9.60001L52.75 9.50001L52.55 9.30001L52.5 9.35001C52 9.85001 51.45 10.25 50.8 10.5C50.2 10.75 49.55 10.9 48.9 10.9V0.400006C49.55 0.450006 50.2 0.550006 50.8 0.800006Z" fill="white"/>
<path fill-rule="evenodd" clip-rule="evenodd" d="M67.6 2.89999C67.35 2.49999 67.05 2.09999 66.75 1.74999C66.4 1.39999 66.05 1.09999 65.6 0.899994C65.2 0.649994 64.75 0.449994 64.25 0.349994C63.75 0.199994 63.25 0.149994 62.75 0.149994C62.25 0.149994 61.75 0.199994 61.25 0.349994C60.8 0.499994 60.35 0.649994 59.9 0.899994C59.5 1.14999 59.1 1.44999 58.75 1.74999C58.4 2.09999 58.1 2.44999 57.9 2.89999C57.65 3.29999 57.45 3.74999 57.35 4.24999C57.2 4.74999 57.15 5.24999 57.15 5.74999C57.15 6.24999 57.2 6.74999 57.35 7.24999C57.5 7.69999 57.65 8.14999 57.9 8.59999C58.15 8.99999 58.45 9.39999 58.75 9.69999C59.1 10.05 59.45 10.35 59.9 10.55C60.3 10.8 60.75 11 61.25 11.1C61.75 11.25 62.25 11.3 62.75 11.3H62.85V11H62.75C62.3 11 61.8 10.95 61.35 10.8C60.9 10.7 60.5 10.5 60.1 10.25C59.7 9.99999 59.35 9.74999 59.05 9.39999C58.75 9.09999 58.45 8.7 58.2 8.34999C57.95 7.94999 57.8 7.54999 57.65 7.09999C57.55 6.69999 57.45 6.24999 57.45 5.79999H68.3V5.69999C68.3 5.19999 68.25 4.69999 68.1 4.19999C68.05 3.74999 67.85 3.29999 67.6 2.89999Z" fill="white"/>
<path fill-rule="evenodd" clip-rule="evenodd" d="M35.85 0.149994C35.45 0.149994 35.1 0.199994 34.75 0.349994C34.4 0.499994 34.1 0.699994 33.85 0.949994C33.6 1.19999 33.4 1.49999 33.25 1.84999C33.1 2.24999 33 2.59999 33 2.99999C33 3.34999 33.05 3.64999 33.2 3.94999C33.35 4.19999 33.55 4.44999 33.75 4.64999C34 4.84999 34.25 5.04999 34.55 5.19999C34.85 5.34999 35.15 5.49999 35.45 5.64999C35.5 5.64999 35.55 5.69999 35.6 5.69999C35.65 5.74999 35.7 5.74999 35.75 5.79999C35.8 5.84999 35.85 5.84999 35.95 5.89999C36 5.89999 36.05 5.94999 36.05 5.94999C36.35 6.09999 36.65 6.24999 36.95 6.39999C37.2 6.54999 37.45 6.69999 37.7 6.89999C37.9 7.09999 38.1 7.29999 38.2 7.54999C38.35 7.79999 38.4 8.09999 38.4 8.39999C38.4 8.75 38.35 9.09999 38.2 9.39999C38.05 9.7 37.9 10 37.65 10.2C37.4 10.45 37.15 10.6 36.85 10.75C36.55 10.9 36.2 10.95 35.85 10.95H33.05V11.2H35.85C36.25 11.2 36.6 11.15 36.95 11C37.3 10.85 37.6 10.65 37.85 10.4C38.1 10.15 38.3 9.85 38.45 9.5C38.6 9.15 38.65 8.79999 38.65 8.39999C38.65 8.04999 38.6 7.74999 38.45 7.44999C38.3 7.19999 38.1 6.94999 37.85 6.74999C37.6 6.54999 37.35 6.34999 37.05 6.19999C36.75 6.04999 36.45 5.89999 36.2 5.74999C36.15 5.74999 36.1 5.69999 36.05 5.69999C36 5.69999 36 5.64999 35.95 5.64999L38.7 0.149994H35.85Z" fill="white"/>
<path fill-rule="evenodd" clip-rule="evenodd" d="M101.2 11.35H101.5L102.85 8.65001H110.8L112.15 11.35H112.45L106.85 0.100006L101.2 11.35Z" fill="white"/>
<path fill-rule="evenodd" clip-rule="evenodd" d="M140.85 0.25H129.7V0.5H135.1V11.7H135.4V5L140.85 0.25Z" fill="white"/>
<path fill-rule="evenodd" clip-rule="evenodd" d="M17.35 11.25H17.65L18.95 8.55H26.95L28.3 11.25H28.6L22.95 0L17.35 11.25Z" fill="white"/>
<path fill-rule="evenodd" clip-rule="evenodd" d="M73.7 11.3H74V0.899997L81.7 10.6L82.15 11.1L82.6 11.7V0.249997L73.7 0.199997V11.3Z" fill="white"/>
<path fill-rule="evenodd" clip-rule="evenodd" d="M95.15 1.70001C94.65 1.20001 94.05 0.750006 93.35 0.500006C92.65 0.200006 91.95 0.100006 91.2 0.100006C90.45 0.100006 89.75 0.250006 89.05 0.500006C88.35 0.800006 87.75 1.20001 87.25 1.70001L87.15 1.80001V9.50001H87.2L87.25 9.55001C87.75 10.05 88.35 10.5 89.05 10.75C89.75 11.05 90.45 11.15 91.2 11.15C91.95 11.15 92.65 11 93.35 10.75C94.05 10.45 94.6 10.05 95.15 9.55001C95.65 9.05001 96.1 8.45001 96.35 7.75001C96.65 7.05001 96.75 6.35001 96.75 5.60001C96.75 4.85001 96.6 4.15001 96.35 3.45001C96.1 2.80001 95.65 2.20001 95.15 1.70001ZM96.45 5.65001H87.45V1.85001C88.05 1.25001 88.8 0.800006 89.65 0.550006H89.7C90.15 0.400006 90.6 0.350006 91.05 0.350006H91.15C94.1 0.350006 96.45 2.70001 96.45 5.65001C96.45 5.60001 96.45 5.65001 96.45 5.65001Z" fill="white"/>
<path fill-rule="evenodd" clip-rule="evenodd" d="M116.2 11.25H116.5V0.849994L125.1 11.65V0.199994L116.2 0.149994V11.25Z" fill="white"/>
<path fill-rule="evenodd" clip-rule="evenodd" d="M6.05 11.3C5.75 11.3 5.4 11.3 5.05 11.25C3.3 11 1.85 9.95 1.05 8.4C1 8.25 0.950002 8.15 0.850002 8C0.800002 7.85 0.600002 7.8 0.500002 8C0.400002 8.15 0.500002 8.3 0.550002 8.4C1 9.35 1.7 10.2 2.65 10.8C3.4 11.25 4.1 11.55 4.85 11.65C5.35 11.75 5.8 11.75 6.3 11.7L6.6 11.65C6.7 11.65 6.8 11.55 6.75 11.45C6.75 11.4 6.75 11.4 6.7 11.35C6.65 11.15 6.4 11.25 6.05 11.3Z" fill="white"/>
<path fill-rule="evenodd" clip-rule="evenodd" d="M0.449979 6.45C0.399979 5.9 0.44998 5.15 0.59998 4.6C0.89998 3.35 1.74998 2.15 2.74998 1.5C2.79998 1.45 2.84998 1.45 2.89998 1.4C2.99998 1.45 3.09998 1.5 3.24998 1.5C3.59998 1.5 3.89998 1.2 3.89998 0.849997C3.89998 0.499997 3.59998 0.199997 3.24998 0.199997C2.89998 0.199997 2.59998 0.499997 2.59998 0.849997C2.59998 0.899997 2.59998 0.949997 2.64998 0.999997C2.44998 1.1 2.19998 1.35 1.99998 1.5C1.59998 1.85 1.04998 2.5 0.749979 3.05C0.39998 3.65 0.199979 4.2 0.0999795 4.8C-0.0500205 5.5 -0.0500205 6.15 0.0499795 6.85C0.0499795 6.9 0.0499795 6.95 0.14998 7.05C0.249979 7.1 0.299979 7.1 0.349979 7.05C0.54998 6.95 0.499979 6.65 0.449979 6.45ZM3.24998 0.499997C3.44998 0.499997 3.59998 0.649997 3.59998 0.849997C3.59998 1.05 3.44998 1.2 3.24998 1.2C3.04998 1.15 2.89998 0.999997 2.89998 0.849997C2.89998 0.649997 3.04998 0.499997 3.24998 0.499997Z" fill="white"/>
<path fill-rule="evenodd" clip-rule="evenodd" d="M6.24997 1.85C6.99997 1.9 7.79997 2.25 8.34997 2.7C8.44997 2.8 8.54997 2.85 8.69997 2.75C8.79997 2.65 8.74997 2.5 8.64997 2.4C8.34997 2.15 7.79997 1.85 7.39997 1.7C7.14997 1.6 6.44997 1.4 6.19997 1.45C5.99997 1.45 5.94997 1.65 5.99997 1.7C6.04997 1.8 6.14997 1.8 6.24997 1.85Z" fill="white"/>
<path fill-rule="evenodd" clip-rule="evenodd" d="M9.04996 8.45C8.99996 8.5 8.89996 8.6 8.89996 8.65C8.79996 8.85 9.04996 9.05 9.24996 8.85C9.54996 8.55 9.94996 7.85 10.1 7.45C10.2 7.25 10.25 7.05 10.25 6.9C10.4 6.25 10.4 5.5 10.25 4.85C10.15 4.3 9.84996 3.7 9.49996 3.25C9.44996 3.15 9.39996 3.05 9.24996 3C9.04996 3 8.94996 3.15 9.04996 3.3C9.04996 3.35 9.09996 3.35 9.14996 3.4C9.29996 3.6 9.44996 3.85 9.54996 4.1C10.2 5.5 10.05 7 9.19996 8.2C9.14996 8.3 9.09996 8.35 9.04996 8.45Z" fill="white"/>
<path fill-rule="evenodd" clip-rule="evenodd" d="M5.14998 1.44999C4.94998 1.49999 4.79998 1.49999 4.64998 1.54999C3.94998 1.74999 3.29998 2.09999 2.79998 2.54999L2.49998 2.84999C2.14998 3.24999 1.84998 3.74999 1.64998 4.24999C1.44998 4.79999 1.39998 5.09999 1.34998 5.64999C1.34998 5.94999 1.34998 6.44999 1.44998 6.74999C1.59998 7.34999 1.84998 7.99999 2.14998 8.39999C2.29998 8.59999 2.44998 8.79999 2.59998 8.94999C2.59998 8.99999 2.59998 8.94999 2.64998 8.99999C2.64998 8.99999 2.64998 9.04999 2.69998 9.04999C2.74998 9.09999 2.69998 9.04999 2.74998 9.09999C2.79998 9.19999 3.24998 9.49999 3.34998 9.59999C4.69998 10.5 6.34998 10.65 7.84998 9.94999C7.99998 9.89999 8.29998 9.74999 8.34998 9.59999C8.39998 9.49999 8.34998 9.44999 8.29998 9.39999C8.14998 9.24999 7.99998 9.39999 7.89998 9.49999C7.74998 9.59999 7.64998 9.64999 7.49998 9.69999C6.24998 10.25 4.89998 10.1 3.79998 9.49999C3.59998 9.39999 3.29998 9.19999 3.14998 8.99999C2.94998 8.79999 2.79998 8.59999 2.59998 8.39999C2.24998 7.94999 1.99998 7.39999 1.89998 6.79999C1.74998 6.14999 1.79998 5.34999 1.94998 4.79999C2.14998 4.19999 2.34998 3.74999 2.74998 3.29999C3.04998 2.84999 3.44998 2.49999 3.99998 2.24999C4.24998 2.09999 4.49998 1.99999 4.79998 1.94999C4.94998 1.89999 5.14998 1.89999 5.29998 1.84999C5.39998 1.84999 5.44998 1.84999 5.49998 1.79999C5.54998 1.74999 5.54998 1.64999 5.54998 1.54999C5.49998 1.39999 5.29998 1.39999 5.14998 1.44999Z" fill="white"/>
<path fill-rule="evenodd" clip-rule="evenodd" d="M11.0999 3.4C10.5999 2.4 9.94995 1.6 8.94995 1C8.24995 0.550003 7.54995 0.300003 6.84995 0.150003C6.34995 0.0500031 5.89995 0.0500031 5.39995 0.0500031C5.24995 0.0500031 5.04995 0.100003 4.89995 0.100003C4.59995 0.150003 4.64995 0.600003 5.04995 0.550003L5.39995 0.500003C5.54995 0.500003 5.69995 0.500003 5.84995 0.500003C8.59995 0.500003 10.8999 2.55 11.1999 5.3C11.2499 5.9 11.2499 6.6 11.0499 7.25C10.5999 8.9 9.49995 10.2 7.89995 10.85C7.79995 10.9 7.74995 10.9 7.69995 10.95C7.64995 11 7.54995 11 7.49995 11.1C7.39995 11.25 7.54995 11.45 7.74995 11.45C7.84995 11.45 8.09995 11.3 8.19995 11.3C9.39995 10.8 10.6499 9.65 11.2499 8.2C11.5499 7.45 11.6499 6.9 11.6999 6.2C11.7499 5.65 11.6499 4.85 11.4499 4.35C11.3499 3.95 11.2499 3.7 11.0999 3.4Z" fill="white"/>
<path fill-rule="evenodd" clip-rule="evenodd" d="M4 5.84999C4 6.04999 4.05 6.24999 4.1 6.44999C4.1 6.64999 4.3 6.89999 4.4 6.99999C4.4 6.99999 4.45 7.04999 4.5 7.09999L4.55 7.14999C4.85 7.44999 5.25 7.59999 5.65 7.64999C5.7 7.64999 5.7 7.64999 5.75 7.64999C5.8 7.64999 5.8 7.64999 5.85 7.64999C6.1 7.64999 6.4 7.59999 6.6 7.49999C6.6 7.49999 6.6 7.49999 6.65 7.49999C7.3 7.19999 7.75 6.54999 7.75 5.79999C7.75 5.19999 7.5 4.69999 7.05 4.34999L7 4.29999C6.95 4.24999 6.9 4.19999 6.8 4.19999C6.75 4.19999 6.75 4.14999 6.7 4.14999C6.45 3.99999 6.15 3.89999 5.8 3.89999C4.8 3.94999 4 4.79999 4 5.84999Z" fill="white"/>
<path d="M24.9891 23.31H28.5991V24.17H24.9891V23.31ZM25.0891 27H24.0891V20H29.0291V20.87H25.0891V27ZM35.5186 27.08C34.9853 27.08 34.4886 26.99 34.0286 26.81C33.5753 26.63 33.1819 26.38 32.8486 26.06C32.5153 25.7333 32.2553 25.3533 32.0686 24.92C31.8819 24.4867 31.7886 24.0133 31.7886 23.5C31.7886 22.9867 31.8819 22.5133 32.0686 22.08C32.2553 21.6467 32.5153 21.27 32.8486 20.95C33.1819 20.6233 33.5753 20.37 34.0286 20.19C34.4819 20.01 34.9786 19.92 35.5186 19.92C36.0519 19.92 36.5419 20.01 36.9886 20.19C37.4419 20.3633 37.8353 20.6133 38.1686 20.94C38.5086 21.26 38.7686 21.6367 38.9486 22.07C39.1353 22.5033 39.2286 22.98 39.2286 23.5C39.2286 24.02 39.1353 24.4967 38.9486 24.93C38.7686 25.3633 38.5086 25.7433 38.1686 26.07C37.8353 26.39 37.4419 26.64 36.9886 26.82C36.5419 26.9933 36.0519 27.08 35.5186 27.08ZM35.5186 26.19C35.9053 26.19 36.2619 26.1233 36.5886 25.99C36.9219 25.8567 37.2086 25.67 37.4486 25.43C37.6953 25.1833 37.8853 24.8967 38.0186 24.57C38.1586 24.2433 38.2286 23.8867 38.2286 23.5C38.2286 23.1133 38.1586 22.7567 38.0186 22.43C37.8853 22.1033 37.6953 21.82 37.4486 21.58C37.2086 21.3333 36.9219 21.1433 36.5886 21.01C36.2619 20.8767 35.9053 20.81 35.5186 20.81C35.1253 20.81 34.7619 20.8767 34.4286 21.01C34.1019 21.1433 33.8153 21.3333 33.5686 21.58C33.3219 21.82 33.1286 22.1033 32.9886 22.43C32.8553 22.7567 32.7886 23.1133 32.7886 23.5C32.7886 23.8867 32.8553 24.2433 32.9886 24.57C33.1286 24.8967 33.3219 25.1833 33.5686 25.43C33.8153 25.67 34.1019 25.8567 34.4286 25.99C34.7619 26.1233 35.1253 26.19 35.5186 26.19ZM42.757 27V20H45.487C46.1004 20 46.6237 20.0967 47.057 20.29C47.4904 20.4833 47.8237 20.7633 48.057 21.13C48.2904 21.4967 48.407 21.9333 48.407 22.44C48.407 22.9467 48.2904 23.3833 48.057 23.75C47.8237 24.11 47.4904 24.3867 47.057 24.58C46.6237 24.7733 46.1004 24.87 45.487 24.87H43.307L43.757 24.41V27H42.757ZM47.437 27L45.657 24.46H46.727L48.527 27H47.437ZM43.757 24.51L43.307 24.02H45.457C46.097 24.02 46.5804 23.8833 46.907 23.61C47.2404 23.33 47.407 22.94 47.407 22.44C47.407 21.94 47.2404 21.5533 46.907 21.28C46.5804 21.0067 46.097 20.87 45.457 20.87H43.307L43.757 20.37V24.51ZM53.315 27V20.87H50.915V20H56.705V20.87H54.305V27H53.315ZM62.5672 27.08C61.6472 27.08 60.9239 26.8167 60.3972 26.29C59.8705 25.7633 59.6072 24.9933 59.6072 23.98V20H60.6072V23.94C60.6072 24.72 60.7772 25.29 61.1172 25.65C61.4639 26.01 61.9505 26.19 62.5772 26.19C63.2105 26.19 63.6972 26.01 64.0372 25.65C64.3839 25.29 64.5572 24.72 64.5572 23.94V20H65.5272V23.98C65.5272 24.9933 65.2639 25.7633 64.7372 26.29C64.2172 26.8167 63.4939 27.08 62.5672 27.08ZM69.5773 27V20H70.3973L75.0273 25.75H74.5973V20H75.5973V27H74.7773L70.1473 21.25H70.5773V27H69.5773ZM80.6026 23.02H84.2026V23.87H80.6026V23.02ZM80.6926 26.13H84.7726V27H79.6926V20H84.6326V20.87H80.6926V26.13ZM93.9773 23.31H97.5873V24.17H93.9773V23.31ZM94.0773 27H93.0773V20H98.0173V20.87H94.0773V27ZM104.507 27.08C103.974 27.08 103.477 26.99 103.017 26.81C102.564 26.63 102.17 26.38 101.837 26.06C101.504 25.7333 101.244 25.3533 101.057 24.92C100.87 24.4867 100.777 24.0133 100.777 23.5C100.777 22.9867 100.87 22.5133 101.057 22.08C101.244 21.6467 101.504 21.27 101.837 20.95C102.17 20.6233 102.564 20.37 103.017 20.19C103.47 20.01 103.967 19.92 104.507 19.92C105.04 19.92 105.53 20.01 105.977 20.19C106.43 20.3633 106.824 20.6133 107.157 20.94C107.497 21.26 107.757 21.6367 107.937 22.07C108.124 22.5033 108.217 22.98 108.217 23.5C108.217 24.02 108.124 24.4967 107.937 24.93C107.757 25.3633 107.497 25.7433 107.157 26.07C106.824 26.39 106.43 26.64 105.977 26.82C105.53 26.9933 105.04 27.08 104.507 27.08ZM104.507 26.19C104.894 26.19 105.25 26.1233 105.577 25.99C105.91 25.8567 106.197 25.67 106.437 25.43C106.684 25.1833 106.874 24.8967 107.007 24.57C107.147 24.2433 107.217 23.8867 107.217 23.5C107.217 23.1133 107.147 22.7567 107.007 22.43C106.874 22.1033 106.684 21.82 106.437 21.58C106.197 21.3333 105.91 21.1433 105.577 21.01C105.25 20.8767 104.894 20.81 104.507 20.81C104.114 20.81 103.75 20.8767 103.417 21.01C103.09 21.1433 102.804 21.3333 102.557 21.58C102.31 21.82 102.117 22.1033 101.977 22.43C101.844 22.7567 101.777 23.1133 101.777 23.5C101.777 23.8867 101.844 24.2433 101.977 24.57C102.117 24.8967 102.31 25.1833 102.557 25.43C102.804 25.67 103.09 25.8567 103.417 25.99C103.75 26.1233 104.114 26.19 104.507 26.19ZM111.745 27V20H114.475C115.089 20 115.612 20.0967 116.045 20.29C116.479 20.4833 116.812 20.7633 117.045 21.13C117.279 21.4967 117.395 21.9333 117.395 22.44C117.395 22.9467 117.279 23.3833 117.045 23.75C116.812 24.11 116.479 24.3867 116.045 24.58C115.612 24.7733 115.089 24.87 114.475 24.87H112.295L112.745 24.41V27H111.745ZM116.425 27L114.645 24.46H115.715L117.515 27H116.425ZM112.745 24.51L112.295 24.02H114.445C115.085 24.02 115.569 23.8833 115.895 23.61C116.229 23.33 116.395 22.94 116.395 22.44C116.395 21.94 116.229 21.5533 115.895 21.28C115.569 21.0067 115.085 20.87 114.445 20.87H112.295L112.745 20.37V24.51Z" fill="white"/>
</g>
<defs>
<clipPath id="clip0_73_3652">
<rect width="142" height="30" fill="white"/>
</clipPath>
</defs>
</svg>
