<svg width="142" height="12" viewBox="0 0 142 12" fill="none" xmlns="http://www.w3.org/2000/svg">
<g clip-path="url(#clip0_73_4073)">
<path fill-rule="evenodd" clip-rule="evenodd" d="M50.7999 0.799976C51.4499 1.04998 51.9999 1.44998 52.4999 1.94998L52.5499 1.99998L52.7499 1.79998L52.6499 1.69998C52.1499 1.19998 51.5499 0.749976 50.8499 0.499976C50.1499 0.199976 49.4499 0.0999756 48.6999 0.0999756C47.9499 0.0999756 47.2499 0.249976 46.5499 0.499976C45.8499 0.799976 45.2499 1.19998 44.7499 1.69998C44.2499 2.19998 43.7999 2.79998 43.5499 3.49998C43.2499 4.19998 43.1499 4.89998 43.1499 5.64998C43.1499 6.39998 43.2999 7.09998 43.5499 7.79998C43.8499 8.49998 44.2499 9.09998 44.7499 9.59998C45.2499 10.1 45.8499 10.55 46.5499 10.8C47.2499 11.1 47.9499 11.2 48.6999 11.2C49.4499 11.2 50.1499 11.05 50.8499 10.8C51.5499 10.5 52.1499 10.1 52.6499 9.59998L52.7499 9.49998L52.5499 9.29998L52.4999 9.34998C51.9999 9.84998 51.4499 10.25 50.7999 10.5C50.1999 10.75 49.5499 10.9 48.8999 10.9V0.399976C49.5499 0.449976 50.1999 0.549976 50.7999 0.799976Z" fill="white"/>
<path fill-rule="evenodd" clip-rule="evenodd" d="M67.5999 2.90002C67.3499 2.50002 67.0499 2.10002 66.7499 1.75002C66.3999 1.40002 66.0499 1.10002 65.5999 0.900024C65.1999 0.650024 64.7499 0.450024 64.2499 0.350024C63.7499 0.200024 63.2499 0.150024 62.7499 0.150024C62.2499 0.150024 61.7499 0.200024 61.2499 0.350024C60.7999 0.500024 60.3499 0.650024 59.8999 0.900024C59.4999 1.15002 59.0999 1.45002 58.7499 1.75002C58.3999 2.10002 58.0999 2.45002 57.8999 2.90002C57.6499 3.30002 57.4499 3.75002 57.3499 4.25002C57.1999 4.75002 57.1499 5.25002 57.1499 5.75002C57.1499 6.25002 57.1999 6.75002 57.3499 7.25002C57.4999 7.70002 57.6499 8.15003 57.8999 8.60003C58.1499 9.00003 58.4499 9.40002 58.7499 9.70002C59.0999 10.05 59.4499 10.35 59.8999 10.55C60.2999 10.8 60.7499 11 61.2499 11.1C61.7499 11.25 62.2499 11.3 62.7499 11.3H62.8499V11H62.7499C62.2999 11 61.7999 10.95 61.3499 10.8C60.8999 10.7 60.4999 10.5 60.0999 10.25C59.6999 10 59.3499 9.75002 59.0499 9.40002C58.7499 9.10002 58.4499 8.70003 58.1999 8.35003C57.9499 7.95003 57.7999 7.55002 57.6499 7.10002C57.5499 6.70002 57.4499 6.25002 57.4499 5.80002H68.2999V5.70002C68.2999 5.20002 68.2499 4.70002 68.0999 4.20002C68.0499 3.75002 67.8499 3.30002 67.5999 2.90002Z" fill="white"/>
<path fill-rule="evenodd" clip-rule="evenodd" d="M35.85 0.150024C35.45 0.150024 35.1 0.200024 34.75 0.350024C34.4 0.500024 34.1 0.700024 33.85 0.950024C33.6 1.20002 33.4 1.50002 33.25 1.85002C33.1 2.25002 33 2.60002 33 3.00002C33 3.35002 33.05 3.65002 33.2 3.95002C33.35 4.20002 33.55 4.45002 33.75 4.65002C34 4.85002 34.25 5.05002 34.55 5.20002C34.85 5.35002 35.15 5.50003 35.45 5.65003C35.5 5.65003 35.55 5.70002 35.6 5.70002C35.65 5.75002 35.7 5.75003 35.75 5.80003C35.8 5.85003 35.85 5.85003 35.95 5.90003C36 5.90003 36.05 5.95002 36.05 5.95002C36.35 6.10002 36.65 6.25003 36.95 6.40003C37.2 6.55003 37.45 6.70003 37.7 6.90003C37.9 7.10003 38.1 7.30003 38.2 7.55003C38.35 7.80003 38.4 8.10003 38.4 8.40003C38.4 8.75003 38.35 9.10003 38.2 9.40003C38.05 9.70003 37.9 10 37.65 10.2C37.4 10.45 37.15 10.6 36.85 10.75C36.55 10.9 36.2 10.95 35.85 10.95H33.05V11.2H35.85C36.25 11.2 36.6 11.15 36.95 11C37.3 10.85 37.6 10.65 37.85 10.4C38.1 10.15 38.3 9.85003 38.45 9.50003C38.6 9.15003 38.65 8.80003 38.65 8.40003C38.65 8.05003 38.6 7.75003 38.45 7.45002C38.3 7.20002 38.1 6.95003 37.85 6.75003C37.6 6.55003 37.35 6.35002 37.05 6.20002C36.75 6.05002 36.45 5.90003 36.2 5.75002C36.15 5.75002 36.1 5.70002 36.05 5.70002C36 5.70002 36 5.65003 35.95 5.65003L38.7 0.150024H35.85V0.150024Z" fill="white"/>
<path fill-rule="evenodd" clip-rule="evenodd" d="M101.2 11.35H101.5L102.85 8.64997H110.8L112.15 11.35H112.45L106.85 0.0999756L101.2 11.35Z" fill="white"/>
<path fill-rule="evenodd" clip-rule="evenodd" d="M140.85 0.25H129.7V0.5H135.1V11.7H135.4V5L140.85 0.25Z" fill="white"/>
<path fill-rule="evenodd" clip-rule="evenodd" d="M17.3499 11.25H17.6499L18.9499 8.55H26.9499L28.2999 11.25H28.5999L22.9499 0L17.3499 11.25Z" fill="white"/>
<path fill-rule="evenodd" clip-rule="evenodd" d="M73.7 11.3H74V0.900012L81.7 10.6L82.15 11.1L82.6 11.7V0.250012L73.7 0.200012V11.3Z" fill="white"/>
<path fill-rule="evenodd" clip-rule="evenodd" d="M95.1499 1.69998C94.6499 1.19998 94.0499 0.749976 93.3499 0.499976C92.6499 0.199976 91.9499 0.0999756 91.1999 0.0999756C90.4499 0.0999756 89.7499 0.249976 89.0499 0.499976C88.3499 0.799976 87.7499 1.19998 87.2499 1.69998L87.1499 1.79998V9.49998H87.1999L87.2499 9.54998C87.7499 10.05 88.3499 10.5 89.0499 10.75C89.7499 11.05 90.4499 11.15 91.1999 11.15C91.9499 11.15 92.6499 11 93.3499 10.75C94.0499 10.45 94.5999 10.05 95.1499 9.54998C95.6499 9.04998 96.0999 8.44998 96.3499 7.74998C96.6499 7.04998 96.7499 6.34998 96.7499 5.59998C96.7499 4.84998 96.5999 4.14998 96.3499 3.44998C96.0999 2.79998 95.6499 2.19998 95.1499 1.69998ZM96.4499 5.64998H87.4499V1.84998C88.0499 1.24998 88.7999 0.799976 89.6499 0.549976H89.6999C90.1499 0.399976 90.5999 0.349976 91.0499 0.349976H91.1499C94.0999 0.349976 96.4499 2.69998 96.4499 5.64998C96.4499 5.64998 96.4499 5.59998 96.4499 5.64998Z" fill="white"/>
<path fill-rule="evenodd" clip-rule="evenodd" d="M116.2 11.25H116.5V0.850024L125.1 11.65V0.200024L116.2 0.150024V11.25Z" fill="white"/>
<path fill-rule="evenodd" clip-rule="evenodd" d="M6.04982 11.3C5.74982 11.3 5.39982 11.3 5.04982 11.25C3.29982 11 1.84982 9.95002 1.04982 8.40002C0.999819 8.25002 0.949819 8.15002 0.849819 8.00002C0.799819 7.85002 0.599819 7.80002 0.499819 8.00002C0.399819 8.15002 0.499819 8.30002 0.549819 8.40002C0.999819 9.35002 1.69982 10.2 2.64982 10.8C3.39982 11.25 4.09982 11.55 4.84982 11.65C5.34982 11.75 5.79982 11.75 6.29982 11.7L6.59982 11.65C6.69982 11.65 6.79982 11.55 6.74982 11.45C6.74982 11.4 6.74982 11.4 6.69982 11.35C6.64982 11.15 6.39982 11.25 6.04982 11.3Z" fill="white"/>
<path fill-rule="evenodd" clip-rule="evenodd" d="M0.449918 6.45001C0.399918 5.90001 0.449918 5.15001 0.599918 4.60001C0.899918 3.35001 1.74992 2.15001 2.74992 1.50001C2.79992 1.45001 2.84992 1.45001 2.89992 1.40001C2.99992 1.45001 3.09992 1.50001 3.24992 1.50001C3.59992 1.50001 3.89992 1.20001 3.89992 0.850012C3.89992 0.500012 3.59992 0.200012 3.24992 0.200012C2.89992 0.200012 2.59992 0.500012 2.59992 0.850012C2.59992 0.900012 2.59992 0.950012 2.64992 1.00001C2.44992 1.10001 2.19992 1.35001 1.99992 1.50001C1.59992 1.85001 1.04992 2.50001 0.749918 3.05001C0.399918 3.65001 0.199918 4.20001 0.0999185 4.80001C-0.0500816 5.50001 -0.0500815 6.15001 0.0499185 6.85001C0.0499185 6.90001 0.0499185 6.95001 0.149918 7.05001C0.249918 7.10001 0.299918 7.10001 0.349918 7.05001C0.549918 6.95001 0.499918 6.65001 0.449918 6.45001ZM3.24992 0.500012C3.44992 0.500012 3.59992 0.650012 3.59992 0.850012C3.59992 1.05001 3.44992 1.20001 3.24992 1.20001C3.04992 1.15001 2.89992 1.00001 2.89992 0.850012C2.89992 0.650012 3.04992 0.500012 3.24992 0.500012Z" fill="white"/>
<path fill-rule="evenodd" clip-rule="evenodd" d="M6.24997 1.84997C6.99997 1.89997 7.79997 2.24997 8.34997 2.69997C8.44997 2.79997 8.54997 2.84997 8.69997 2.74997C8.79997 2.64997 8.74997 2.49997 8.64997 2.39997C8.34997 2.14997 7.79997 1.84997 7.39997 1.69997C7.14997 1.59997 6.44997 1.39997 6.19997 1.44997C5.99997 1.44997 5.94997 1.64997 5.99997 1.69997C6.04997 1.79997 6.14997 1.79997 6.24997 1.84997Z" fill="white"/>
<path fill-rule="evenodd" clip-rule="evenodd" d="M9.04996 8.45C8.99996 8.5 8.89996 8.6 8.89996 8.65C8.79996 8.85 9.04996 9.05 9.24996 8.85C9.54996 8.55 9.94996 7.85 10.1 7.45C10.2 7.25 10.25 7.05 10.25 6.9C10.4 6.25 10.4 5.5 10.25 4.85C10.15 4.3 9.84996 3.7 9.49996 3.25C9.44996 3.15 9.39996 3.05 9.24996 3C9.04996 3 8.94996 3.15 9.04996 3.3C9.04996 3.35 9.09996 3.35 9.14996 3.4C9.29996 3.6 9.44996 3.85 9.54996 4.1C10.2 5.5 10.05 7 9.19996 8.2C9.14996 8.3 9.09996 8.35 9.04996 8.45Z" fill="white"/>
<path fill-rule="evenodd" clip-rule="evenodd" d="M5.14985 1.45001C4.94985 1.50001 4.79985 1.50001 4.64985 1.55001C3.94985 1.75001 3.29985 2.10001 2.79985 2.55001L2.49985 2.85001C2.14985 3.25001 1.84985 3.75001 1.64985 4.25001C1.44985 4.80001 1.39985 5.10001 1.34985 5.65001C1.34985 5.95001 1.34985 6.45001 1.44985 6.75001C1.59985 7.35001 1.84985 8.00001 2.14985 8.40001C2.29985 8.60001 2.44985 8.80001 2.59985 8.95001C2.59985 9.00001 2.59985 8.95001 2.64985 9.00001C2.64985 9.00001 2.64985 9.05001 2.69985 9.05001C2.74985 9.10001 2.69985 9.05001 2.74985 9.10001C2.79985 9.20001 3.24985 9.50001 3.34985 9.60001C4.69985 10.5 6.34985 10.65 7.84985 9.95001C7.99985 9.90001 8.29985 9.75001 8.34985 9.60001C8.39985 9.50001 8.34985 9.45001 8.29985 9.40001C8.14985 9.25001 7.99985 9.40001 7.89985 9.50001C7.74985 9.60001 7.64985 9.65001 7.49985 9.70001C6.24985 10.25 4.89985 10.1 3.79985 9.50001C3.59985 9.40001 3.29985 9.20001 3.14985 9.00001C2.94985 8.80001 2.79985 8.60001 2.59985 8.40001C2.24985 7.95001 1.99985 7.40001 1.89985 6.80001C1.74985 6.15001 1.79985 5.35001 1.94985 4.80001C2.14985 4.20001 2.34985 3.75001 2.74985 3.30001C3.04985 2.85001 3.44985 2.50001 3.99985 2.25001C4.24985 2.10001 4.49985 2.00001 4.79985 1.95001C4.94985 1.90001 5.14985 1.90001 5.29985 1.85001C5.39985 1.85001 5.44985 1.85001 5.49985 1.80001C5.54985 1.75001 5.54985 1.65001 5.54985 1.55001C5.49985 1.40001 5.29985 1.40001 5.14985 1.45001Z" fill="white"/>
<path fill-rule="evenodd" clip-rule="evenodd" d="M11.0999 3.39999C10.5999 2.39999 9.94989 1.59999 8.94989 0.999988C8.24989 0.549988 7.54989 0.299988 6.84989 0.149988C6.34989 0.0499878 5.89989 0.0499878 5.39989 0.0499878C5.24989 0.0499878 5.04989 0.0999878 4.89989 0.0999878C4.59989 0.149988 4.64989 0.599988 5.04989 0.549988L5.39989 0.499988C5.54989 0.499988 5.69989 0.499988 5.84989 0.499988C8.59989 0.499988 10.8999 2.54999 11.1999 5.29999C11.2499 5.89999 11.2499 6.59999 11.0499 7.24999C10.5999 8.89999 9.49989 10.2 7.89989 10.85C7.79989 10.9 7.74989 10.9 7.69989 10.95C7.64989 11 7.54989 11 7.49989 11.1C7.39989 11.25 7.54989 11.45 7.74989 11.45C7.84989 11.45 8.09989 11.3 8.19989 11.3C9.39989 10.8 10.6499 9.64999 11.2499 8.19999C11.5499 7.44999 11.6499 6.89999 11.6999 6.19999C11.7499 5.64999 11.6499 4.84999 11.4499 4.34999C11.3499 3.94999 11.2499 3.69999 11.0999 3.39999Z" fill="white"/>
<path fill-rule="evenodd" clip-rule="evenodd" d="M4 5.85002C4 6.05002 4.05 6.25002 4.1 6.45002C4.1 6.65002 4.3 6.90002 4.4 7.00002C4.4 7.00002 4.45 7.05002 4.5 7.10002L4.55 7.15002C4.85 7.45002 5.25 7.60002 5.65 7.65002C5.7 7.65002 5.7 7.65002 5.75 7.65002C5.8 7.65002 5.8 7.65002 5.85 7.65002C6.1 7.65002 6.4 7.60002 6.6 7.50002C6.6 7.50002 6.6 7.50002 6.65 7.50002C7.3 7.20002 7.75 6.55002 7.75 5.80002C7.75 5.20002 7.5 4.70002 7.05 4.35002L7 4.30002C6.95 4.25002 6.9 4.20002 6.8 4.20002C6.75 4.20002 6.75 4.15002 6.7 4.15002C6.45 4.00002 6.15 3.90002 5.8 3.90002C4.8 3.95002 4 4.80002 4 5.85002Z" fill="white"/>
</g>
<defs>
<clipPath id="clip0_73_4073">
<rect width="142" height="12" fill="white"/>
</clipPath>
</defs>
</svg>
