<svg width="20" height="20" viewBox="0 0 20 20" fill="none" xmlns="http://www.w3.org/2000/svg">
<path d="M9.08194 1.12601C9.42945 0.321265 10.5706 0.321264 10.9181 1.12601L11.5891 2.68007C11.8281 3.23333 12.4984 3.45115 13.0169 3.14398L14.4733 2.28117C15.2274 1.83438 16.1506 2.5051 15.9587 3.36041L15.5882 5.01212C15.4563 5.60015 15.8706 6.1704 16.4706 6.22666L18.156 6.38466C19.0287 6.46648 19.3813 7.55173 18.7234 8.13091L17.4527 9.24938C17.0004 9.64756 17.0004 10.3524 17.4527 10.7506L18.7234 11.8691C19.3813 12.4483 19.0287 13.5335 18.156 13.6153L16.4706 13.7733C15.8706 13.8296 15.4563 14.3998 15.5882 14.9879L15.9587 16.6396C16.1506 17.4949 15.2274 18.1656 14.4733 17.7188L13.0169 16.856C12.4984 16.5489 11.8281 16.7667 11.5891 17.3199L10.9181 18.874C10.5706 19.6787 9.42945 19.6787 9.08194 18.874L8.41086 17.3199C8.17195 16.7667 7.50158 16.5489 6.98309 16.856L5.52673 17.7188C4.77257 18.1656 3.8494 17.4949 4.04127 16.6396L4.41181 14.9879C4.54373 14.3998 4.12942 13.8296 3.5294 13.7733L1.84403 13.6153C0.971287 13.5335 0.618665 12.4483 1.27664 11.8691L2.54726 10.7506C2.99962 10.3524 2.99962 9.64756 2.54726 9.24938L1.27664 8.13091C0.618666 7.55173 0.971286 6.46648 1.84403 6.38466L3.5294 6.22666C4.12941 6.1704 4.54373 5.60015 4.41181 5.01213L4.04127 3.36042C3.8494 2.5051 4.77257 1.83438 5.52673 2.28117L6.98309 3.14398C7.50158 3.45115 8.17195 3.23333 8.41086 2.68007L9.08194 1.12601Z" fill="white"/>
</svg>
