<svg width="24" height="24" viewBox="0 0 24 24" fill="none" xmlns="http://www.w3.org/2000/svg">
<g opacity="0.6">
<path fill-rule="evenodd" clip-rule="evenodd" d="M9.98811 13.9393C10.5739 14.5251 11.5236 14.5251 12.1094 13.9393L17.3796 8.66908L18.4413 9.73072C19.0165 10.3059 20 9.89851 20 9.08505L20 4.91305C20 4.40876 19.5912 3.99996 19.0869 3.99996L14.9148 4.00003C14.1014 4.00004 13.694 4.98358 14.2692 5.55878L15.2583 6.54779L9.98811 11.818C9.40232 12.4037 9.40232 13.3535 9.98811 13.9393Z" fill="white"/>
<path d="M19 14V17C19 18.1046 18.1046 19 17 19H7C5.89543 19 5 18.1046 5 17V7C5 5.89543 5.89543 5 7 5H10" stroke="white" stroke-width="2" stroke-linecap="round"/>
</g>
</svg>
