<svg width="1387" height="634" viewBox="0 0 1387 634" fill="none" xmlns="http://www.w3.org/2000/svg">
<path d="M27.4997 633.986C24.8018 633.95 22.1299 633.549 19.5413 632.799C12.5829 630.684 6.74952 625.898 3.32258 619.486C-0.109684 613.075 -0.849279 605.565 1.25485 598.601C14.2445 557.767 30.4482 518.022 49.7135 479.746C93.5989 393.71 141.599 350.101 192.34 350.101C248.204 350.101 290.903 402.303 336.154 457.527C385.159 516.683 435.534 579.126 501.727 579.126C565.727 579.126 616.102 519.97 665.207 462.735C714.312 405.501 762.306 349.73 826.394 349.73C871.467 349.73 913.159 394.074 961.527 445.366C1017.39 504.705 1080.39 571.997 1149.14 571.997C1238.83 571.997 1312.43 426.997 1333.27 370.85H1333.28C1335.76 363.949 1340.9 358.329 1347.55 355.241C1354.21 352.157 1361.82 351.866 1368.69 354.433C1375.56 357.001 1381.12 362.215 1384.12 368.907C1387.12 375.594 1387.32 383.21 1384.66 390.047C1368.88 430.375 1348.9 468.927 1325.05 505.063C1271.29 585.792 1212.13 626.661 1149.14 626.661C1057.08 626.661 981.916 546.844 921.57 482.755C887.007 446.182 847.788 404.4 826.392 404.4C787.532 404.4 748.314 450.113 706.804 498.296C651.944 562.296 590.507 633.79 501.738 633.79C410.311 633.79 348.138 558.268 293.644 491.709C258.447 448.829 222.056 404.398 192.248 404.398C140.499 404.398 80.0657 527.095 53.7284 614.677H53.7336C51.994 620.276 48.5044 625.167 43.7857 628.641C39.0617 632.11 33.3535 633.98 27.4937 633.97L27.4997 633.986ZM53.7397 265.533C80.161 178.402 140.6 55.2528 192.26 55.2528C222.066 55.2528 258.453 99.5968 293.656 142.565C348.516 209.127 409.953 284.551 501.749 284.551C590.978 285.01 652.322 213.421 706.816 149.418C748.326 101.142 787.545 55.5221 826.404 55.5221C847.8 55.5221 887.018 97.1208 921.581 133.877C981.925 197.877 1057.07 277.784 1149.15 277.784C1212.15 277.784 1271.3 236.825 1325.06 156.185C1348.89 120.034 1368.87 81.4874 1384.67 41.1688C1387.33 34.3302 1387.13 26.7155 1384.13 20.0235C1381.13 13.336 1375.57 8.12238 1368.7 5.55412C1361.83 2.98585 1354.22 3.27812 1347.57 6.36141C1340.91 9.44474 1335.77 15.0697 1333.29 21.9707C1312.45 77.9241 1238.84 223.117 1149.16 223.117C1080.77 223.117 1017.41 155.825 961.543 96.3988C913.179 45.1068 871.486 0.857422 826.41 0.857422C762.41 0.857422 715.139 55.7174 665.223 113.863C615.297 172.008 565.286 230.16 501.743 230.16C435.915 230.16 385.17 168.171 336.077 108.285C290.822 53.4254 248.123 0.858765 192.263 0.858765C141.518 0.858765 93.518 44.4681 49.6367 130.504C30.386 168.785 14.1833 208.531 1.17799 249.359C-0.931343 256.317 -0.186546 263.828 3.24052 270.244C6.67279 276.656 12.5061 281.442 19.4645 283.551C22.0375 284.348 24.7197 284.749 27.4176 284.744C33.2821 284.775 39.0061 282.932 43.7456 279.479C48.4852 276.02 51.9904 271.135 53.7508 265.541L53.7397 265.533Z" fill="black"/>
</svg>
