<svg width="1555" height="1306" viewBox="0 0 1555 1306" fill="none" xmlns="http://www.w3.org/2000/svg">
<path d="M1554.85 251.8C1554.85 348.259 1525.41 419.294 1467.26 462.907C1360.47 543.271 1198.27 496.918 1191.23 494.907C1183.04 491.298 1177.12 483.917 1175.38 475.136C1173.64 466.35 1176.3 457.272 1182.49 450.814C1188.69 444.35 1197.65 441.324 1206.5 442.699C1238.87 451.095 1272.16 455.397 1305.61 455.501C1348.3 455.501 1397.03 447.548 1434.43 419.387C1477.95 386.657 1499.98 330.428 1499.98 252.253C1499.98 124.253 1382.59 55.6798 1272.14 55.6798C1097.7 55.2215 805.129 214.12 805.129 1278.08C805.155 1284.98 802.577 1291.63 797.921 1296.71C793.259 1301.79 786.858 1304.93 779.989 1305.51C779.228 1305.6 778.458 1305.6 777.702 1305.51H774.958C768.072 1304.96 761.645 1301.82 756.968 1296.74C752.286 1291.65 749.703 1284.99 749.723 1278.08C749.723 214.134 457.15 55.2273 282.79 55.2273C172.347 55.2273 55.4034 124.165 55.4034 251.801C55.4034 330.061 77.4394 386.294 121.049 419.027C205.71 482.839 346.875 442.705 347.982 442.705C357.388 439.96 367.545 442.444 374.622 449.22C381.699 455.996 384.632 466.032 382.304 475.554C379.976 485.069 372.747 492.627 363.34 495.366C356.481 497.376 194.1 543.459 87.3136 463.366C29.527 419.298 0.542969 348.262 0.542969 251.806C0.542969 108.446 122.054 0.378906 283.236 0.378906C380.7 0.378906 519.756 42.1602 629.116 241.019C699.7 370.295 749.434 550.046 777.69 778.166C805.668 549.592 855.403 370.299 926.45 241.019C1036.16 42.1656 1174.86 0.378906 1272.33 0.378906C1433.33 0.378906 1554.84 108.447 1554.84 251.806L1554.85 251.8Z" fill="black"/>
</svg>
