<svg width="1139" height="1407" viewBox="0 0 1139 1407" fill="none" xmlns="http://www.w3.org/2000/svg">
<path d="M1128.11 1062.33C1117.24 1026.92 1095.4 995.88 1065.73 973.697C1036.07 951.509 1000.13 939.328 963.089 938.905H957.24C873.855 941.832 806.654 1002.18 772.547 1102.29C759.656 1019.18 768.891 874.812 777.849 734.292C796.136 450.865 814.423 157.292 708.547 45.9319L708.541 45.9267C680.177 15.7867 640.197 -0.671935 598.828 0.760065C517.183 2.04132 430.228 64.2134 360.295 171.453C335.972 208.932 315.451 248.751 299.04 290.308C295.566 268.272 291.545 247.611 286.879 228.136C249.483 70.8827 169.483 0.856063 27.6785 0.856063C17.8764 0.856063 8.82385 6.08007 3.92385 14.5694C-0.97722 23.0538 -0.97722 33.5121 3.92385 41.9961C8.82491 50.4801 17.8772 55.7094 27.6785 55.7094C142.605 55.7094 202.212 109.288 233.665 240.669C248.687 311.013 257.468 382.549 259.905 454.429C260.452 464.393 260.91 474.451 261.369 484.784C265.759 591.757 265.666 719.211 265.483 868.144V949.884H265.478C265.478 959.686 270.707 968.739 279.197 973.639C287.681 978.54 298.134 978.54 306.623 973.639C315.108 968.738 320.337 959.685 320.337 949.884V868.239C320.337 706.052 320.337 569.079 314.759 455.065C319.785 377.076 353.889 281.892 406.185 201.532C466.071 110.105 536.56 56.7054 599.652 55.2521H601.48C626.917 54.5177 651.444 64.7781 668.772 83.4134C758.283 177.403 738.715 484.053 722.991 730.453C710.283 930.04 699.308 1102.48 737.709 1176.72C739.449 1180.19 741.366 1183.58 743.288 1186.87C684.684 1295.76 533.914 1351.44 470.928 1351.44V1351.44C461.125 1351.44 452.073 1356.67 447.173 1365.16C442.272 1373.64 442.272 1384.1 447.173 1392.58C452.074 1401.07 461.126 1406.3 470.928 1406.3C552.48 1406.3 706.541 1346.6 780.501 1231.58C806.808 1254.73 838.089 1271.54 871.928 1280.67C925.969 1296.27 983.646 1293.64 1036.05 1273.18C1122.72 1238.16 1158.01 1157.43 1128.12 1062.35L1128.11 1062.33ZM1015.11 1223.24C950.287 1249.94 857.123 1237.14 806.469 1180.82C810.152 1171.31 813.204 1161.56 815.615 1151.65C838.746 1055.19 892.506 996.225 959.429 993.839L959.423 993.844C985.465 993.38 1010.94 1001.42 1032 1016.75C1053.05 1032.08 1068.53 1053.85 1076.09 1078.78C1104.8 1170.67 1050.22 1208.7 1015.11 1223.23L1015.11 1223.24Z" fill="black"/>
<path d="M259.914 454.413C259.914 461.179 259.274 467.85 259.274 474.434V474.44C259.263 477.992 259.977 481.507 261.372 484.768C260.919 474.44 260.461 464.382 259.914 454.413Z" fill="black"/>
</svg>
