<svg width="906" height="1400" viewBox="0 0 906 1400" fill="none" xmlns="http://www.w3.org/2000/svg">
<path d="M905.121 862.626C905.121 869.897 902.23 876.877 897.089 882.017C891.943 887.163 884.964 890.053 877.693 890.053H742.387L742.381 1372.07C742.381 1381.86 737.157 1390.92 728.668 1395.82C720.184 1400.72 709.725 1400.72 701.241 1395.82C692.757 1390.92 687.528 1381.86 687.528 1372.07V890.053H110.061C100.478 890.027 91.6081 885.001 86.6547 876.798C81.7069 868.595 81.3943 858.408 85.8318 849.913C86.7485 848.085 179.269 671.633 257.165 486.753C403.445 139.873 360.025 91.2329 354.535 86.8463C308.821 50.2729 229.826 77.7056 171.681 108.149L171.686 108.154C127.436 131.575 85.4983 159.127 46.4263 190.435C40.8899 195.493 33.5253 198.066 26.0464 197.55C18.5672 197.034 11.625 193.477 6.83304 187.711C2.04104 181.946 -0.177371 174.467 0.687163 167.018C1.55175 159.575 5.42676 152.805 11.4112 148.289C36.7338 126.893 264.585 -56.6045 389.198 44.2421C464.443 105.409 385.177 324.375 307.646 508.336C251.14 642.362 187.141 771.922 154.873 835.189H687.446L687.441 28.0555C687.441 18.2585 692.67 9.20081 701.154 4.30081C709.644 -0.59506 720.097 -0.59506 728.586 4.30081C737.07 9.20187 742.299 18.2595 742.299 28.0555V835.189H877.606C884.898 835.168 891.898 838.043 897.059 843.189C902.226 848.34 905.127 855.33 905.127 862.621L905.121 862.626Z" fill="black"/>
</svg>
