<svg width="1069" height="1525" viewBox="0 0 1069 1525" fill="none" xmlns="http://www.w3.org/2000/svg">
<path d="M1067.74 1276.8C1067.34 1267 1061.76 1258.15 1053.07 1253.59C1044.39 1249.03 1033.93 1249.45 1025.65 1254.69C1017.36 1259.93 1012.49 1269.2 1012.88 1278.99C1017.27 1389.25 958.022 1446.49 900.606 1463.31C841.45 1480.78 781.746 1459.48 753.126 1410.29C665.814 1262.26 746.178 1039.18 823.986 823.5C927.298 536.967 1034.27 240.741 787.413 66.4739C684.465 -5.94213 571.826 -19.7501 469.973 27.7965C341.79 87.5885 249.533 236.623 235.546 407.503C225.02 541.156 251.431 675.13 311.89 794.797C257.135 777.213 197.863 780.021 145.01 802.703C92.1606 825.385 49.2965 866.416 24.3165 918.219C-0.662153 970.026 -6.06347 1029.11 9.1032 1084.59C24.2699 1140.07 58.9832 1188.19 106.843 1220.09C154.703 1251.98 212.479 1265.49 269.523 1258.13C326.565 1250.77 379.018 1223.04 417.217 1180.04C455.414 1137.04 476.779 1081.69 477.367 1024.18C477.956 966.667 457.731 910.885 420.419 867.111C419.497 865.267 418.393 863.522 417.128 861.897C415.664 860.069 268.461 673.924 290.226 411.977C302.841 260.484 382.57 129.191 493.2 77.5239C577.59 38.1172 668.28 50.0972 755.506 111.264C968.346 261.477 873.266 525.437 772.511 804.837C690.225 1032.49 605.565 1267.92 705.949 1438.17C721.689 1464.75 744.162 1486.71 771.094 1501.83C798.031 1516.95 828.479 1524.7 859.365 1524.3C878.62 1524.24 897.772 1521.44 916.234 1515.98C993.218 1493.3 1073.41 1418.6 1067.73 1276.8L1067.74 1276.8ZM239.861 1203.66V1203.66C191.361 1203.66 144.85 1184.39 110.558 1150.1C76.2661 1115.81 57.0008 1069.3 57.0008 1020.8C57.0008 972.3 76.2661 925.79 110.558 891.498C144.85 857.206 191.361 837.94 239.861 837.94C288.355 837.94 334.866 857.206 369.158 891.498C403.45 925.79 422.716 972.3 422.716 1020.8C422.788 1069.34 403.554 1115.93 369.257 1150.27C334.954 1184.63 288.402 1203.93 239.861 1203.93V1203.66Z" fill="black"/>
</svg>
