<svg width="1264" height="970" viewBox="0 0 1264 970" fill="none" xmlns="http://www.w3.org/2000/svg">
<path d="M1263.45 711.267C1263.45 718.538 1260.56 725.517 1255.42 730.657C1250.27 735.803 1243.3 738.694 1236.02 738.694H899.114C891.734 738.621 884.693 735.584 879.583 730.256C874.474 724.933 871.724 717.772 871.958 710.396C872.192 703.021 875.39 696.047 880.828 691.058C935.068 641.063 972.964 575.87 989.557 503.991C1006.15 432.112 1000.67 356.898 973.839 288.191C947 219.478 900.057 160.462 839.145 118.858C778.228 77.2537 706.181 54.9937 632.412 54.9937C558.643 54.9937 486.599 77.2537 425.679 118.858C364.767 160.462 317.824 219.478 290.985 288.191C264.147 356.899 258.668 432.111 275.261 503.991C291.855 575.866 329.751 641.058 383.996 691.058C389.433 696.047 392.626 703.021 392.86 710.396C393.095 717.771 390.345 724.932 385.235 730.256C380.126 735.584 373.089 738.621 365.709 738.694H28.242C18.4399 738.694 9.38732 733.465 4.48732 724.98C-0.413743 716.491 -0.413743 706.038 4.48732 697.554C9.38839 689.064 18.4407 683.835 28.242 683.835H302.522C236.377 600.684 204.085 495.622 212.115 389.675C220.141 283.727 267.891 184.728 345.809 112.488C423.726 40.2538 526.049 0.119141 632.302 0.119141C738.555 0.119141 840.875 40.2552 918.795 112.488C996.713 184.723 1044.46 283.728 1052.49 389.675C1060.51 495.618 1028.22 600.688 962.077 683.835H1236.36C1243.57 683.934 1250.45 686.866 1255.52 691.997C1260.58 697.132 1263.42 704.054 1263.42 711.267L1263.45 711.267ZM1263.45 941.853C1263.45 934.577 1260.56 927.599 1255.42 922.457C1250.27 917.312 1243.3 914.421 1236.02 914.421H28.2472C18.4451 914.421 9.39253 919.65 4.49253 928.134C-0.408535 936.624 -0.408535 947.077 4.49253 955.566C9.3936 964.051 18.4459 969.28 28.2472 969.28H1236.02C1243.3 969.28 1250.27 966.389 1255.42 961.243C1260.56 956.103 1263.45 949.124 1263.45 941.853Z" fill="black"/>
</svg>
