<svg width="966" height="1345" viewBox="0 0 966 1345" fill="none" xmlns="http://www.w3.org/2000/svg">
<path d="M957.04 8.33335C951.894 3.16669 944.899 0.265625 937.608 0.265625C930.322 0.265625 923.327 3.16669 918.181 8.33335L778.115 148.4C695 79.5454 590.448 41.8734 482.528 41.8734C374.608 41.8734 270.048 79.5454 186.941 148.4L46.8747 8.33335C39.9477 1.39069 29.8481 -1.32811 20.3748 1.19789C10.9008 3.72389 3.49475 11.1146 0.942753 20.5779C-1.60418 30.0467 1.0938 40.1566 8.01569 47.0992L146.802 185.793C64.7397 271.585 18.7037 385.579 18.1663 504.299C17.6299 623.018 62.6397 737.419 143.921 823.953C225.208 910.483 336.574 962.553 455.094 969.433V1154.58L269.401 1154.58C259.599 1154.58 250.546 1159.81 245.646 1168.3C240.745 1176.78 240.745 1187.24 245.646 1195.72C250.547 1204.21 259.6 1209.44 269.401 1209.44H455.094V1316.87C455.094 1326.67 460.318 1335.72 468.808 1340.62C477.292 1345.52 487.75 1345.52 496.234 1340.62C504.724 1335.72 509.948 1326.67 509.948 1316.87V1209.17H695.641C705.443 1209.17 714.496 1203.94 719.396 1195.45C724.297 1186.96 724.297 1176.51 719.396 1168.02C714.495 1159.54 705.442 1154.31 695.641 1154.31H509.948V969.442C628.396 962.504 739.681 910.436 820.908 823.948C902.137 737.464 947.132 623.135 946.637 504.482C946.142 385.836 900.194 271.882 818.246 186.082L957.033 47.1084C962.169 41.9626 965.054 34.9939 965.054 27.7231C965.054 20.4575 962.168 13.4831 957.033 8.3431L957.04 8.33335ZM891.759 505.973C891.759 614.504 848.644 718.6 771.895 795.347C695.149 872.092 591.068 915.211 482.521 915.211C373.975 915.211 269.895 872.091 193.148 795.347C116.399 718.601 73.2841 614.507 73.2841 505.973C73.2841 397.437 116.399 293.347 193.148 216.6C269.893 139.855 373.975 96.74 482.521 96.74C591.027 96.8338 695.068 139.98 771.788 216.709C848.512 293.433 891.657 397.469 891.757 505.976L891.759 505.973Z" fill="black"/>
</svg>
