<svg width="985" height="1436" viewBox="0 0 985 1436" fill="none" xmlns="http://www.w3.org/2000/svg">
<path d="M717.187 1435.8C576.84 1435.69 439.614 1394.44 322.467 1317.14C205.327 1239.85 113.414 1129.9 58.107 1000.92C2.80038 871.929 -13.4716 729.558 11.3004 591.411C36.0711 453.265 100.8 325.425 197.474 223.691C294.156 121.957 418.54 50.798 555.234 19.0247C691.94 -12.7513 834.954 -3.75128 966.594 44.9154C973.656 47.5143 979.339 52.905 982.312 59.8221C985.286 66.7335 985.286 74.5674 982.312 81.4834C979.338 88.3948 973.656 93.7855 966.594 96.3901C839.63 143.447 730.114 228.25 652.767 339.39C575.428 450.535 533.97 582.697 533.97 718.11C533.97 853.523 575.428 985.683 652.767 1096.83C730.111 1207.97 839.62 1292.78 966.594 1339.83C973.656 1342.43 979.339 1347.82 982.312 1354.74C985.286 1361.65 985.286 1369.49 982.312 1376.4C979.338 1383.31 973.656 1388.71 966.594 1391.3C886.771 1420.88 802.314 1435.96 717.18 1435.83L717.187 1435.8ZM717.187 55.2674C591.718 55.4184 468.867 91.174 362.907 158.382C256.954 225.585 172.254 321.489 118.64 434.929C65.0364 548.371 44.7284 674.702 60.0778 799.222C75.4324 923.753 125.812 1041.37 205.358 1138.4C284.91 1235.42 390.358 1307.88 509.464 1347.34C628.568 1386.81 756.424 1391.65 878.171 1361.32C717.598 1281.72 592.598 1144.93 527.771 977.854C462.927 810.774 462.927 625.481 527.771 458.401C592.61 291.321 717.611 154.534 878.171 74.9341C825.51 61.8143 771.436 55.2154 717.171 55.2727L717.187 55.2674Z" fill="black"/>
</svg>
