<svg width="969" height="1476" viewBox="0 0 969 1476" fill="none" xmlns="http://www.w3.org/2000/svg">
<path d="M968.235 784.706C968.235 791.982 965.344 798.957 960.198 804.102C955.058 809.248 948.079 812.139 940.808 812.139H677.954C693.861 1204.46 820.861 1431.38 822.235 1433.86C827.13 1442.36 827.12 1452.84 822.203 1461.34C817.281 1469.84 808.203 1475.07 798.386 1475.06C788.568 1475.04 779.501 1469.8 774.599 1461.29C768.75 1451.05 638.733 1219.91 623.013 812.139H344.519C330.53 1200.71 198.786 1449.49 192.933 1460.37V1460.36C190.578 1464.74 187.084 1468.4 182.818 1470.94C178.547 1473.49 173.672 1474.82 168.703 1474.81C164.167 1474.83 159.693 1473.7 155.719 1471.52C149.323 1468.07 144.552 1462.22 142.464 1455.27C140.37 1448.3 141.125 1440.8 144.563 1434.4C145.932 1431.83 275.308 1186.62 289.483 812.13H27.4427C17.6458 812.13 8.58805 806.9 3.69338 798.411C-1.20769 789.926 -1.20769 779.468 3.69338 770.984C8.58924 762.5 17.6467 757.271 27.4427 757.271H290.749V745.385C290.749 303.599 146.389 45.5854 144.469 43.0254H144.475C139.574 34.5306 139.579 24.072 144.485 15.5827C149.386 7.09311 158.449 1.86405 168.256 1.86938C178.058 1.86938 187.116 7.10378 192.016 15.5987C198.323 26.479 345.162 287.599 345.162 745.199V757.084H621.189V731.209C621.189 304.609 767.469 27.7562 774.056 16.2362H774.061C777.332 9.53311 783.196 4.44978 790.301 2.16285C797.4 -0.128886 805.129 0.579513 811.702 4.11071C818.275 7.64711 823.124 13.7044 825.129 20.892C827.134 28.0795 826.124 35.7774 822.332 42.204C820.868 44.9488 676.052 319.324 676.052 731.204V757.079H940.372C947.758 756.954 954.877 759.813 960.127 765.011C965.376 770.209 968.309 777.303 968.257 784.688L968.235 784.706Z" fill="black"/>
</svg>
