<svg width="930" height="1315" viewBox="0 0 930 1315" fill="none" xmlns="http://www.w3.org/2000/svg">
<path d="M464.999 694.788C396.368 694.808 329.266 674.47 272.199 636.35C215.126 598.23 170.642 544.044 144.366 480.644C118.095 417.237 111.215 347.466 124.6 280.15C137.986 212.838 171.032 151.005 219.564 102.47C268.096 53.9355 329.928 20.8915 397.244 7.50617C464.556 -5.87916 534.338 1.00097 597.738 27.2768C661.144 53.5475 715.331 98.0315 753.458 155.105C791.578 212.178 811.911 279.277 811.895 347.905C811.749 439.858 775.155 527.998 710.135 593.025C645.115 658.052 556.962 694.64 465.015 694.785L464.999 694.788ZM464.999 55.7875C387.546 55.7667 313.252 86.5008 258.452 141.241C203.66 195.981 172.843 270.236 172.791 347.694C172.734 425.148 203.436 499.454 258.155 554.268C312.868 609.085 387.114 639.929 464.568 640.017C542.022 640.105 616.342 609.433 671.182 554.741C726.026 500.048 756.9 425.814 757.02 348.354C757.02 270.854 726.275 196.514 671.526 141.661C616.776 86.8115 542.499 55.9209 465.006 55.7755L464.999 55.7875ZM929.092 370.307C929.092 363.031 926.202 356.057 921.056 350.911C915.91 345.771 908.936 342.88 901.66 342.88C894.389 342.88 887.409 345.771 882.264 350.911C877.123 356.057 874.233 363.031 874.233 370.307C874.233 478.844 831.118 582.934 754.369 659.681C677.623 736.43 573.542 779.545 464.995 779.545C356.449 779.545 252.369 736.43 175.622 659.681C98.8727 582.936 55.758 478.854 55.758 370.307C55.758 363.031 52.8674 356.057 47.7268 350.911C42.581 345.771 35.6018 342.88 28.3308 342.88C21.0548 342.88 14.0802 345.771 8.93484 350.911C3.78897 356.057 0.898438 363.031 0.898438 370.307C1.55989 488.286 47.0344 601.601 128.112 687.308C209.185 773.021 319.805 824.708 437.565 831.921V1062.77L251.872 1062.77C242.07 1062.77 233.017 1068 228.117 1076.48C223.216 1084.97 223.216 1095.43 228.117 1103.91C233.018 1112.4 242.07 1117.63 251.872 1117.63H437.565V1287.23C437.565 1297.02 442.789 1306.08 451.278 1310.98C459.763 1315.88 470.221 1315.88 478.705 1310.98C487.195 1306.08 492.418 1297.02 492.418 1287.23V1117.35H678.112C687.914 1117.35 696.966 1112.12 701.866 1103.63C706.766 1095.15 706.767 1084.69 701.866 1076.21C696.965 1067.72 687.913 1062.49 678.112 1062.49H492.418V831.916C610.178 824.702 720.805 773.009 801.872 687.302C882.95 601.594 928.424 488.276 929.085 370.302L929.092 370.307Z" fill="black"/>
</svg>
