<svg width="1348" height="1343" viewBox="0 0 1348 1343" fill="none" xmlns="http://www.w3.org/2000/svg">
<path d="M1347.11 27.8397V523.933C1347.11 533.735 1341.88 542.788 1333.4 547.688C1324.91 552.589 1314.46 552.589 1305.97 547.688C1297.48 542.787 1292.26 533.734 1292.26 523.933V94.213L661.402 725.52C954.708 1024.4 1068.16 1293.29 1072.83 1304.81C1075.61 1311.53 1075.62 1319.08 1072.84 1325.8C1070.07 1332.52 1064.73 1337.86 1058.02 1340.66C1054.69 1342.07 1051.12 1342.79 1047.51 1342.76C1042.08 1342.76 1036.79 1341.15 1032.28 1338.14C1027.77 1335.13 1024.26 1330.85 1022.18 1325.84C1020.99 1323.19 907.615 1055.22 622.537 764.298L185.324 1201.23C180.178 1206.37 173.21 1209.25 165.939 1209.25C158.673 1209.25 151.699 1206.37 146.559 1201.23C141.418 1196.09 138.538 1189.12 138.538 1181.85C138.538 1174.58 141.418 1167.61 146.559 1162.47L583.492 725.533C274.372 423.813 20.1988 322.333 17.6388 321.333H17.6336C8.48771 317.77 1.93623 309.603 0.445568 299.901C-1.04403 290.203 2.7581 280.442 10.4144 274.302C18.0706 268.161 28.4197 266.573 37.565 270.13C48.8098 274.703 304.805 376.005 622.258 686.77L1253.75 55.2766H824.032C814.23 55.2766 805.177 50.0474 800.277 41.5633C795.376 33.0737 795.376 22.6206 800.277 14.1313C805.178 5.64691 814.23 0.417969 824.032 0.417969H1319.67C1326.94 0.417969 1333.92 3.30863 1339.07 8.45437C1344.21 13.595 1347.1 20.5741 1347.1 27.8504L1347.11 27.8397Z" fill="black"/>
</svg>
