<svg width="1048" height="1519" viewBox="0 0 1048 1519" fill="none" xmlns="http://www.w3.org/2000/svg">
<path d="M1047.67 1471.05V1472.88C1046.74 1478.04 1044.35 1482.82 1040.78 1486.66C1037.22 1490.5 1032.63 1493.24 1027.56 1494.55H1023.72L885.107 1517.96C883.648 1518.1 882.18 1518.1 880.716 1517.96C870.919 1518.74 861.445 1514.24 855.867 1506.14C850.289 1498.05 849.45 1487.6 853.674 1478.72C857.893 1469.84 866.528 1463.89 876.33 1463.1L914.637 1456.88C863.527 1426.71 819.001 1371.4 823.85 1257.2C843.599 993.975 882.637 288.975 826.683 178.349C806.205 137.755 778.225 112.521 741.105 101.458C664.302 78.4165 573.518 124.13 557.518 132.729C561.45 139.676 565.107 147.083 568.581 154.765C634.502 301.871 577.721 1090.16 570.867 1179.59C570.356 1186.51 567.247 1192.98 562.153 1197.7C557.065 1202.41 550.377 1205.03 543.44 1205.01H541.336C534.086 1204.45 527.357 1201.03 522.622 1195.51C517.893 1189.99 515.544 1182.82 516.102 1175.57C534.388 936.49 569.404 291.09 518.388 177.264C498.639 133.102 470.481 106.133 432.263 94.977C356.195 72.029 262.303 118.108 230.209 135.846C233.043 141.789 235.787 148.008 238.527 154.133C264.584 216.488 277.199 393.4 277.199 695.026C277.199 877.88 239.439 1168.91 237.792 1181.24L237.798 1181.23C236.928 1187.88 233.657 1193.97 228.605 1198.37C223.553 1202.76 217.063 1205.16 210.365 1205.1C209.177 1205.19 207.99 1205.19 206.802 1205.1C199.589 1204.17 193.042 1200.4 188.6 1194.64C184.157 1188.88 182.188 1181.59 183.121 1174.38C183.121 1171.37 222.069 874.221 222.069 695.301C222.069 333.888 203.782 213.194 187.599 175.621C128.443 33.9945 37.8393 55.7572 33.9993 56.7612C24.7545 58.8862 15.0673 56.0789 8.38459 49.3445C1.70753 42.6101 -1.02168 32.9018 1.17632 23.6725C3.37939 14.4433 10.1867 7.00584 19.187 4.00584C20.4682 4.00584 123.692 -24.0622 202.04 88.3032C239.8 67.0898 349.974 13.1472 447.254 42.5898C476.431 51.168 502.874 67.2098 523.962 89.1258L526.889 87.204C531.826 84.3706 648.853 17.6253 755.462 49.444C807.211 64.8973 846.889 100.095 874.322 154.22C947.462 298.767 884.562 1163.22 877.155 1261.23C872.858 1364.36 915.281 1402.13 965.473 1422.51L937.129 1366.2L937.124 1366.2C933.853 1359.7 933.295 1352.17 935.577 1345.26C937.853 1338.35 942.785 1332.63 949.285 1329.35C955.785 1326.08 963.315 1325.52 970.227 1327.8C977.139 1330.08 982.858 1335.01 986.129 1341.51L1043 1454.43V1454.43C1044.21 1456.58 1045.13 1458.89 1045.74 1461.28C1045.79 1461.86 1045.79 1462.45 1045.74 1463.02C1045.78 1463.26 1045.78 1463.51 1045.74 1463.75C1046.7 1466.1 1047.35 1468.56 1047.66 1471.07L1047.67 1471.05Z" fill="black"/>
</svg>
