<svg width="1492" height="1491" viewBox="0 0 1492 1491" fill="none" xmlns="http://www.w3.org/2000/svg">
<path d="M746 1490.27C548.374 1490.27 358.841 1411.76 219.107 1272.03C79.3738 1132.29 0.867188 942.76 0.867188 745.133C0.867188 547.507 79.3725 357.973 219.107 218.24C358.842 78.5067 548.374 0 746 0C943.627 0 1133.16 78.5053 1272.89 218.24C1412.63 357.975 1491.13 547.507 1491.13 745.133C1490.92 942.693 1412.34 1132.09 1272.65 1271.79C1132.96 1411.48 943.56 1490.05 746 1490.27ZM746 45.7385C560.507 45.7385 382.601 119.427 251.427 250.592C120.261 381.764 46.5739 559.659 46.5739 745.165C46.5739 930.672 120.262 1108.57 251.427 1239.74C382.599 1370.91 560.494 1444.59 746 1444.59C931.507 1444.59 1109.4 1370.9 1240.57 1239.74C1371.74 1108.57 1445.43 930.672 1445.43 745.165C1445.21 559.739 1371.45 381.952 1240.33 250.832C1109.21 119.707 931.44 45.9519 746 45.7385ZM746 658.307C722.965 658.307 700.87 667.458 684.584 683.749C668.292 700.036 659.142 722.129 659.142 745.165C659.142 768.201 668.293 790.296 684.584 806.581C700.871 822.873 722.965 832.024 746 832.024C769.036 832.024 791.131 822.873 807.417 806.581C823.709 790.295 832.859 768.201 832.859 745.165C832.859 722.129 823.708 700.035 807.417 683.749C791.13 667.457 769.036 658.307 746 658.307Z" fill="black"/>
</svg>
