<svg width="1148" height="1441" viewBox="0 0 1148 1441" fill="none" xmlns="http://www.w3.org/2000/svg">
<path d="M1120.11 0.847056C987.912 0.847056 958.287 109.555 929.661 214.794C890.437 359.074 849.844 508.274 579.394 508.274H568.238C297.785 508.274 257.385 359.06 217.971 214.794C189.351 109.559 160.097 0.847056 27.5179 0.847056C17.721 0.847056 8.66324 6.07106 3.76857 14.5604C-1.13249 23.0448 -1.13249 33.5031 3.76857 41.9871C8.66444 50.4715 17.7219 55.7004 27.5179 55.7004C113.643 55.7004 134.857 118.331 164.665 229.42C194.471 340.508 234.701 485.42 405.678 540.274C304.481 580.008 220.358 653.858 167.838 749.047C115.317 844.24 97.7126 954.78 118.062 1061.58C138.417 1168.38 195.442 1264.7 279.289 1333.91C363.133 1403.12 468.529 1440.85 577.235 1440.59C685.954 1440.32 791.169 1402.08 874.662 1332.47C958.173 1262.86 1014.73 1166.25 1034.57 1059.36C1054.4 952.468 1036.26 841.999 983.271 747.079C930.293 652.147 845.805 578.706 744.418 539.466C913.285 483.878 952.325 340.159 982.591 228.612C1012.85 117.071 1033.98 54.8924 1119.74 54.8924H1119.74C1129.54 54.8924 1138.6 49.6632 1143.5 41.1791C1148.39 32.6947 1148.39 22.2364 1143.5 13.7524C1138.6 5.26279 1129.54 0.0390625 1119.74 0.0390625L1120.11 0.847056ZM987.541 974.567C987.541 1083.68 944.197 1188.33 867.036 1265.49C789.88 1342.64 685.235 1385.99 576.115 1385.99C466.995 1385.99 362.356 1342.64 285.196 1265.49C208.034 1188.33 164.69 1083.67 164.69 974.567C164.69 865.447 208.034 760.807 285.196 683.634C362.352 606.478 466.995 563.128 576.115 563.128H579.407C687.907 564.144 791.634 607.915 868.047 684.951C944.463 761.982 987.402 866.058 987.542 974.564L987.541 974.567Z" fill="black"/>
</svg>
