<svg width="1189" height="1431" viewBox="0 0 1189 1431" fill="none" xmlns="http://www.w3.org/2000/svg">
<path d="M1174.74 1137.31C1174.1 1137.31 1110.74 1098.91 1047.84 1013.33C990.237 934.609 921.481 797.835 921.481 594.128C921.475 390.421 990.413 253.288 1048.01 174.928C1110.74 89.3495 1174.74 51.3135 1174.74 50.9495C1182.49 45.7203 1187.05 36.8975 1186.82 27.5481C1186.59 18.194 1181.62 9.60546 1173.62 4.75079C1165.62 -0.0981385 1155.7 -0.53561 1147.3 3.58934C1135.88 10.2612 866.89 171.536 866.89 594.123V608.019L629.903 604.086L629.909 275.766C629.909 265.969 624.679 256.912 616.195 252.012C607.706 247.116 597.253 247.116 588.763 252.012C580.279 256.913 575.05 265.97 575.05 275.766V603.166L321.517 598.963V594.12C321.517 171.533 52.53 10.2529 41.01 3.57294C32.6141 -0.552129 22.6926 -0.114533 14.6926 4.73439C6.69263 9.58852 1.71864 18.1771 1.49477 27.5317C1.26561 36.8807 5.8229 45.7037 13.5781 50.9331C16.1406 52.3967 266.751 202.8 266.751 594.106C266.751 797.813 197.997 934.586 140.397 1013.31C77.5848 1098.89 14.0421 1136.92 13.5848 1137.29C6.60556 1141.37 1.78262 1148.32 0.402486 1156.29C-0.977781 1164.25 1.23062 1172.43 6.4337 1178.62C11.6368 1184.81 19.3034 1188.38 27.3924 1188.39C32.2465 1188.39 37.0069 1187.1 41.199 1184.64C52.0793 1178.34 296.106 1031.95 319.692 653.818L575.146 658.115V1043.85C509.698 1053.19 453.495 1095.18 425.986 1155.3C398.48 1215.41 403.45 1285.39 439.168 1341.03C474.892 1396.66 536.465 1430.29 602.568 1430.29C668.677 1430.29 730.251 1396.66 765.968 1341.03C801.687 1285.4 806.656 1215.41 779.15 1155.3C751.64 1095.18 695.437 1053.19 629.99 1043.85V659.021L869.35 662.954C896.777 1034.34 1136.51 1178.34 1147.3 1184.65V1184.64C1151.49 1187.09 1156.25 1188.39 1161.1 1188.39C1169.2 1188.41 1176.89 1184.84 1182.11 1178.66C1187.34 1172.48 1189.56 1164.3 1188.19 1156.31C1186.82 1148.33 1181.99 1141.37 1175 1137.28L1174.74 1137.31ZM741.643 1236.05C741.643 1273.01 726.961 1308.45 700.831 1334.58C674.702 1360.71 639.263 1375.39 602.305 1375.39C565.351 1375.39 529.909 1360.71 503.778 1334.58C477.647 1308.45 462.971 1273.01 462.971 1236.05C462.971 1199.1 477.649 1163.66 503.778 1137.53C529.909 1111.39 565.351 1096.71 602.305 1096.71C639.283 1096.69 674.758 1111.35 700.925 1137.49C727.091 1163.62 741.805 1199.07 741.826 1236.05H741.643Z" fill="black"/>
</svg>
