<svg width="27" height="30" viewBox="0 0 27 30" fill="none" xmlns="http://www.w3.org/2000/svg">
<path d="M1.18559 18.6093C1.53577 18.6093 1.82591 18.4892 2.05603 18.2491C2.29615 18.009 2.41621 17.7289 2.41621 17.4087V12.5913C2.41621 12.2611 2.29615 11.976 2.05603 11.7359C1.82591 11.4957 1.53577 11.3757 1.18559 11.3757C0.845423 11.3757 0.56028 11.4957 0.330165 11.7359C0.110055 11.976 0 12.2611 0 12.5913V17.4087C0 17.7289 0.110055 18.009 0.330165 18.2491C0.56028 18.4892 0.845423 18.6093 1.18559 18.6093ZM6.03302 24.3722C6.37319 24.3722 6.65833 24.2571 6.88844 24.027C7.12856 23.7869 7.24862 23.5018 7.24862 23.1716V6.82841C7.24862 6.48824 7.12856 6.2031 6.88844 5.97299C6.65833 5.73287 6.37319 5.61281 6.03302 5.61281C5.68284 5.61281 5.3927 5.73287 5.16258 5.97299C4.94247 6.2031 4.83242 6.48824 4.83242 6.82841V23.1716C4.83242 23.5018 4.94247 23.7869 5.16258 24.027C5.3927 24.2571 5.68284 24.3722 6.03302 24.3722ZM10.8654 30C11.2156 30 11.5058 29.8799 11.7359 29.6398C11.966 29.3997 12.081 29.1146 12.081 28.7844V1.21561C12.081 0.885443 11.966 0.6003 11.7359 0.36018C11.5058 0.12006 11.2156 0 10.8654 0C10.5253 0 10.2401 0.12006 10.01 0.36018C9.77989 0.6003 9.66483 0.885443 9.66483 1.21561V28.7844C9.66483 29.1146 9.77989 29.3997 10.01 29.6398C10.2401 29.8799 10.5253 30 10.8654 30ZM15.7129 22.5863C16.043 22.5863 16.3232 22.4712 16.5533 22.2411C16.7934 22.001 16.9135 21.7209 16.9135 21.4007V8.5993C16.9135 8.26913 16.7934 7.98899 16.5533 7.75888C16.3232 7.51876 16.043 7.3987 15.7129 7.3987C15.3627 7.3987 15.0725 7.51876 14.8424 7.75888C14.6223 7.98899 14.5123 8.26913 14.5123 8.5993V21.4007C14.5123 21.7209 14.6223 22.001 14.8424 22.2411C15.0725 22.4712 15.3627 22.5863 15.7129 22.5863ZM20.5453 26.8484C20.8854 26.8484 21.1706 26.7284 21.4007 26.4882C21.6308 26.2581 21.7459 25.978 21.7459 25.6478V4.35218C21.7459 4.02201 21.6308 3.73687 21.4007 3.49675C21.1706 3.25663 20.8854 3.13657 20.5453 3.13657C20.1951 3.13657 19.905 3.25663 19.6748 3.49675C19.4547 3.73687 19.3447 4.02201 19.3447 4.35218V25.6478C19.3447 25.978 19.4547 26.2581 19.6748 26.4882C19.905 26.7284 20.1951 26.8484 20.5453 26.8484ZM25.3777 19.7799C25.7079 19.7799 25.988 19.6648 26.2181 19.4347C26.4582 19.1946 26.5783 18.9095 26.5783 18.5793V11.4207C26.5783 11.0905 26.4582 10.8054 26.2181 10.5653C25.988 10.3252 25.7079 10.2051 25.3777 10.2051C25.0275 10.2051 24.7374 10.3252 24.5073 10.5653C24.2871 10.8054 24.1771 11.0905 24.1771 11.4207V18.5793C24.1771 18.9095 24.2871 19.1946 24.5073 19.4347C24.7374 19.6648 25.0275 19.7799 25.3777 19.7799Z" fill="black"/>
</svg>
