<svg width="36" height="36" viewBox="0 0 36 36" fill="none" xmlns="http://www.w3.org/2000/svg">
<path d="M18.0096 36C20.4698 36 22.7827 35.5259 24.9482 34.5777C27.1265 33.6423 29.0422 32.3481 30.6951 30.6951C32.3609 29.0422 33.6615 27.1329 34.5969 24.9674C35.5323 22.7891 36 20.4634 36 17.9904C36 15.5302 35.5323 13.2173 34.5969 11.0518C33.6615 8.87346 32.3609 6.95782 30.6951 5.30486C29.0422 3.63908 27.1265 2.33849 24.9482 1.4031C22.7827 0.467699 20.4634 0 17.9904 0C15.5302 0 13.2109 0.467699 11.0326 1.4031C8.86706 2.33849 6.95141 3.63908 5.28564 5.30486C3.63267 6.95782 2.33849 8.87346 1.4031 11.0518C0.467699 13.2173 0 15.5302 0 17.9904C0 20.4634 0.467699 22.7891 1.4031 24.9674C2.35131 27.1329 3.6519 29.0422 5.30486 30.6951C6.95782 32.3481 8.86706 33.6423 11.0326 34.5777C13.2109 35.5259 15.5366 36 18.0096 36ZM18.0096 34.0972C15.78 34.0972 13.6914 33.6807 11.7437 32.8478C9.79605 32.0149 8.08542 30.8617 6.61185 29.3881C5.13828 27.9146 3.98505 26.204 3.15216 24.2563C2.33209 22.3086 1.92205 20.22 1.92205 17.9904C1.92205 15.7736 2.33209 13.6914 3.15216 11.7437C3.98505 9.79605 5.13828 8.08542 6.61185 6.61185C8.08542 5.13828 9.79605 3.98505 11.7437 3.15216C13.6914 2.31927 15.7736 1.90283 17.9904 1.90283C20.22 1.90283 22.3086 2.31927 24.2563 3.15216C26.204 3.98505 27.9146 5.13828 29.3881 6.61185C30.8617 8.08542 32.0149 9.79605 32.8478 11.7437C33.6807 13.6914 34.0972 15.7736 34.0972 17.9904C34.11 20.22 33.6935 22.3086 32.8478 24.2563C32.0149 26.204 30.8617 27.9146 29.3881 29.3881C27.9274 30.8617 26.2232 32.0149 24.2755 32.8478C22.3278 33.6807 20.2392 34.0972 18.0096 34.0972ZM30.2051 29.8017C30.2474 29.7594 30.2665 29.6992 30.2566 29.6401C30.2543 29.6259 30.2503 29.6122 30.2447 29.599C29.8829 28.747 29.1489 27.8951 28.0427 27.0432C26.9407 26.1719 25.5312 25.4479 23.8142 24.8713C22.0972 24.2947 20.1623 24.0064 18.0096 24.0064C15.8569 24.0064 13.9285 24.2947 12.2242 24.8713C10.52 25.4479 9.11052 26.1655 7.99573 27.024C6.8984 27.8691 6.16112 28.7018 5.78388 29.522C5.77195 29.5479 5.76455 29.5756 5.76139 29.604C5.75224 29.6863 5.78041 29.7686 5.8388 29.8274C6.8804 30.8772 8.06708 31.7879 9.39883 32.5595C10.7699 33.354 12.1922 33.9626 13.6658 34.3855C15.1522 34.8211 16.6001 35.039 18.0096 35.039C19.4319 35.039 20.8735 34.8275 22.3342 34.4047C23.8078 33.9818 25.2237 33.3732 26.582 32.5788C27.9127 31.813 29.1204 30.8873 30.2051 29.8017ZM18.0096 20.8927C19.1628 20.8927 20.2007 20.5916 21.1233 19.9893C22.0587 19.3871 22.8019 18.5734 23.3529 17.5483C23.9039 16.5232 24.1794 15.3636 24.1794 14.0694C24.1794 12.8521 23.9039 11.7373 23.3529 10.725C22.8019 9.71276 22.0587 8.9055 21.1233 8.30326C20.1879 7.6882 19.15 7.38067 18.0096 7.38067C16.8692 7.38067 15.8313 7.6882 14.8959 8.30326C13.9605 8.9055 13.2173 9.71276 12.6663 10.725C12.1153 11.7373 11.8462 12.8521 11.859 14.0694C11.859 15.3636 12.1281 16.5232 12.6663 17.5483C13.2173 18.5606 13.9541 19.3679 14.8767 19.9701C15.7993 20.5723 16.8436 20.8799 18.0096 20.8927Z" fill="url(#paint0_linear_241_1973)"/>
<defs>
<linearGradient id="paint0_linear_241_1973" x1="18" y1="0" x2="18" y2="33.1247" gradientUnits="userSpaceOnUse">
<stop stop-color="#B4A3FD"/>
<stop offset="1" stop-color="#F8F7FF"/>
</linearGradient>
</defs>
</svg>
