<svg width="28" height="28" viewBox="0 0 28 28" fill="none" xmlns="http://www.w3.org/2000/svg">
<path d="M24.8974 1.75H3.1026C2.35535 1.75 1.75 2.35535 1.75 3.1026V24.8984C1.75 25.6446 2.35535 26.25 3.1026 26.25H14.8371V16.7624H11.6439V13.0649H14.8371V10.3383C14.8371 7.17369 16.7695 5.45052 19.5931 5.45052C20.9458 5.45052 22.1075 5.55158 22.4464 5.5965V8.904L20.4884 8.90502C18.9531 8.90502 18.656 9.63492 18.656 10.7048V13.0659H22.3178L21.841 16.7634H18.656V26.25H24.8994C25.6446 26.25 26.25 25.6446 26.25 24.8974V3.1026C26.25 2.35535 25.6446 1.75 24.8974 1.75V1.75Z" fill="white" fill-opacity="0.8"/>
</svg>
