<svg width="80" height="80" viewBox="0 0 80 80" fill="none" xmlns="http://www.w3.org/2000/svg">
<path fill-rule="evenodd" clip-rule="evenodd" d="M43.1625 15.9702C33.2617 20.7409 27.8295 32.0171 30.7782 43.0221C33.785 54.2434 44.4789 61.352 55.676 60.2003C52.9388 62.5036 49.6655 64.2577 45.9818 65.2447C32.5383 68.8469 18.7201 60.869 15.118 47.4255C11.5158 33.9821 19.4938 20.1639 32.9372 16.5618C36.3804 15.6392 39.8481 15.4762 43.1625 15.9702Z" fill="white" fill-opacity="0.4"/>
<circle cx="70.0412" cy="35.0412" r="1.66667" transform="rotate(-15 70.0412 35.0412)" fill="white" fill-opacity="0.4"/>
<circle cx="50.2247" cy="34.2247" r="1" transform="rotate(-15 50.2247 34.2247)" fill="white" fill-opacity="0.4"/>
<circle cx="46.0412" cy="45.0412" r="1.66667" transform="rotate(-15 46.0412 45.0412)" fill="white" fill-opacity="0.4"/>
<circle cx="49.7632" cy="18.9551" r="1.66667" transform="rotate(-15 49.7632 18.9551)" fill="white" fill-opacity="0.4"/>
<circle cx="60.0825" cy="48.0825" r="3.33333" transform="rotate(-15 60.0825 48.0825)" fill="white" fill-opacity="0.4"/>
</svg>
