<svg width="22" height="22" viewBox="0 0 22 22" fill="none" xmlns="http://www.w3.org/2000/svg">
<g filter="url(#filter0_d_82_5148)">
<path d="M10.3055 3.30676C10.6782 2.89775 11.3218 2.89775 11.6945 3.30676L12.3451 4.02088C12.5923 4.29221 12.9749 4.39473 13.3247 4.28335L14.2452 3.99022C14.7724 3.82233 15.3298 4.14416 15.4481 4.6847L15.6545 5.62846C15.7329 5.98705 16.013 6.26712 16.3715 6.34554L17.3153 6.55194C17.8558 6.67016 18.1777 7.22758 18.0098 7.75482L17.7166 8.67534C17.6053 9.0251 17.7078 9.40768 17.9791 9.65489L18.6932 10.3055C19.1023 10.6782 19.1023 11.3218 18.6932 11.6945L17.9791 12.3451C17.7078 12.5923 17.6053 12.9749 17.7166 13.3247L18.0098 14.2452C18.1777 14.7724 17.8558 15.3298 17.3153 15.4481L16.3715 15.6545C16.013 15.7329 15.7329 16.013 15.6545 16.3715L15.4481 17.3153C15.3298 17.8558 14.7724 18.1777 14.2452 18.0098L13.3247 17.7166C12.9749 17.6053 12.5923 17.7078 12.3451 17.9791L11.6945 18.6932C11.3218 19.1023 10.6782 19.1023 10.3055 18.6932L9.65489 17.9791C9.40768 17.7078 9.02509 17.6053 8.67534 17.7166L7.75482 18.0098C7.22758 18.1777 6.67016 17.8558 6.55194 17.3153L6.34554 16.3715C6.26712 16.013 5.98704 15.7329 5.62846 15.6545L4.6847 15.4481C4.14416 15.3298 3.82233 14.7724 3.99022 14.2452L4.28335 13.3247C4.39473 12.9749 4.29221 12.5923 4.02088 12.3451L3.30676 11.6945C2.89775 11.3218 2.89775 10.6782 3.30676 10.3055L4.02088 9.65489C4.29221 9.40768 4.39473 9.02509 4.28335 8.67534L3.99022 7.75482C3.82233 7.22758 4.14416 6.67016 4.6847 6.55194L5.62846 6.34554C5.98705 6.26712 6.26712 5.98704 6.34554 5.62846L6.55194 4.6847C6.67016 4.14416 7.22758 3.82233 7.75482 3.99022L8.67534 4.28335C9.02509 4.39473 9.40768 4.29221 9.65489 4.02088L10.3055 3.30676Z" fill="white"/>
</g>
<defs>
<filter id="filter0_d_82_5148" x="0" y="0" width="22" height="22" filterUnits="userSpaceOnUse" color-interpolation-filters="sRGB">
<feFlood flood-opacity="0" result="BackgroundImageFix"/>
<feColorMatrix in="SourceAlpha" type="matrix" values="0 0 0 0 0 0 0 0 0 0 0 0 0 0 0 0 0 0 127 0" result="hardAlpha"/>
<feOffset/>
<feGaussianBlur stdDeviation="1.5"/>
<feComposite in2="hardAlpha" operator="out"/>
<feColorMatrix type="matrix" values="0 0 0 0 1 0 0 0 0 1 0 0 0 0 1 0 0 0 0.7 0"/>
<feBlend mode="normal" in2="BackgroundImageFix" result="effect1_dropShadow_82_5148"/>
<feBlend mode="normal" in="SourceGraphic" in2="effect1_dropShadow_82_5148" result="shape"/>
</filter>
</defs>
</svg>
