<svg width="28" height="28" viewBox="0 0 28 28" fill="none" xmlns="http://www.w3.org/2000/svg">
<path fill-rule="evenodd" clip-rule="evenodd" d="M20.9825 25.1329C21.3347 25.3823 21.7886 25.4447 22.1932 25.2915C22.5979 25.1373 22.8954 24.7917 22.9851 24.3728C23.9355 19.906 26.2411 8.6002 27.1062 4.53701C27.1719 4.23077 27.0625 3.9125 26.8219 3.70797C26.5813 3.50344 26.2477 3.44438 25.9502 3.55485C21.3642 5.25231 7.24091 10.5514 1.46823 12.6875C1.10184 12.8231 0.863404 13.1753 0.875435 13.5613C0.88856 13.9485 1.14887 14.2843 1.52401 14.3969C4.11286 15.1713 7.51107 16.2486 7.51107 16.2486C7.51107 16.2486 9.09915 21.0446 9.9271 23.4836C10.031 23.7899 10.2705 24.0305 10.5866 24.1136C10.9016 24.1956 11.2385 24.1092 11.4736 23.8872C12.8036 22.6316 14.8598 20.6902 14.8598 20.6902C14.8598 20.6902 18.7666 23.5547 20.9825 25.1329ZM8.94056 15.6427L10.7769 21.6997L11.1849 17.8641C11.1849 17.8641 18.2799 11.4647 22.3245 7.8171C22.4426 7.70991 22.459 7.53054 22.3606 7.40476C22.2632 7.27898 22.0839 7.24945 21.9493 7.33476C17.2616 10.3283 8.94056 15.6427 8.94056 15.6427Z" fill="white" fill-opacity="0.8"/>
</svg>
