<svg width="28" height="28" viewBox="0 0 28 28" fill="none" xmlns="http://www.w3.org/2000/svg">
<path d="M27.125 6.02547C26.1592 6.45422 25.1213 6.74297 24.0319 6.87312C25.1442 6.20703 25.9984 5.15156 26.3998 3.89375C25.3597 4.51063 24.2069 4.95906 22.9797 5.20078C21.9986 4.15406 20.5975 3.5 19.0487 3.5C15.5717 3.5 13.0167 6.74406 13.802 10.1117C9.3275 9.8875 5.35938 7.74375 2.70266 4.48547C1.29172 6.90594 1.97094 10.0723 4.36844 11.6758C3.48688 11.6473 2.65562 11.4056 1.93047 11.002C1.87141 13.4969 3.65969 15.8309 6.24969 16.3505C5.49172 16.5561 4.66156 16.6042 3.81719 16.4423C4.50188 18.5817 6.49031 20.1381 8.84844 20.1819C6.58437 21.957 3.73187 22.75 0.875 22.4131C3.25828 23.9411 6.09 24.8325 9.13062 24.8325C19.1297 24.8325 24.7789 16.3877 24.4377 8.81344C25.4898 8.05328 26.4031 7.105 27.125 6.02547Z" fill="white" fill-opacity="0.8"/>
</svg>
