<svg width="24" height="24" viewBox="0 0 24 24" fill="none" xmlns="http://www.w3.org/2000/svg">
<path fill-rule="evenodd" clip-rule="evenodd" d="M7.71439 2.57141C4.87407 2.57141 2.57153 4.87395 2.57153 7.71427V16.2857C2.57153 19.126 4.87407 21.4286 7.71439 21.4286H16.2858C18.5251 21.4286 20.43 19.9975 21.136 18H16.2858C14.3923 18 12.8573 16.465 12.8573 14.5714V9.42855C12.8573 7.53501 14.3923 5.99998 16.2858 5.99998H21.136C20.43 4.00251 18.525 2.57141 16.2858 2.57141H7.71439Z" fill="white"/>
<path fill-rule="evenodd" clip-rule="evenodd" d="M17.143 7.71423C15.7228 7.71423 14.5715 8.8655 14.5715 10.2857V13.7142C14.5715 15.1344 15.7228 16.2857 17.143 16.2857H20.5715C21.9917 16.2857 23.143 15.1344 23.143 13.7142V10.2857C23.143 8.8655 21.9917 7.71423 20.5715 7.71423H17.143ZM17.143 11.9999C17.143 11.0532 17.9105 10.2857 18.8572 10.2857C19.804 10.2857 20.5715 11.0532 20.5715 11.9999C20.5715 12.9467 19.804 13.7142 18.8572 13.7142C17.9105 13.7142 17.143 12.9467 17.143 11.9999Z" fill="white"/>
</svg>
