<svg width="28" height="28" viewBox="0 0 28 28" fill="none" xmlns="http://www.w3.org/2000/svg">
<g clip-path="url(#clip0_150_7244)">
<path fill-rule="evenodd" clip-rule="evenodd" d="M25.0857 22.7791C26.8637 21.49 28 19.5848 28 17.4661C28 13.5858 24.2235 10.4393 19.5662 10.4393C14.9088 10.4393 11.1323 13.5858 11.1323 17.4661C11.1323 21.3476 14.9088 24.4941 19.5662 24.4941C20.5287 24.4941 21.4573 24.3576 22.3195 24.1091L22.5668 24.0718C22.729 24.0718 22.876 24.122 23.0148 24.2013L24.8617 25.2676L25.0238 25.3201C25.179 25.3201 25.305 25.1941 25.305 25.039L25.2595 24.8336L24.8792 23.4161L24.85 23.2365C24.85 23.0475 24.9433 22.8806 25.0857 22.7791ZM10.1208 2.67981C4.53133 2.67981 0 6.45514 0 11.1136C0 13.6546 1.36267 15.9425 3.4965 17.4883C3.668 17.6096 3.78 17.8103 3.78 18.0378L3.745 18.2525L3.28883 19.9535L3.234 20.1996C3.234 20.3863 3.38567 20.538 3.57117 20.538L3.76717 20.475L5.98267 19.1951C6.14833 19.0995 6.3245 19.04 6.51933 19.04L6.81683 19.0843C7.8505 19.3818 8.96583 19.5475 10.1208 19.5475L10.6762 19.5335C10.4568 18.8755 10.3367 18.1825 10.3367 17.4673C10.3367 13.2195 14.469 9.77548 19.5662 9.77548L20.1157 9.78948C19.3538 5.76098 15.169 2.67981 10.1208 2.67981ZM16.7545 16.3426C16.1338 16.3426 15.631 15.8386 15.631 15.218C15.631 14.5961 16.1338 14.0933 16.7545 14.0933C17.3763 14.0933 17.8792 14.5961 17.8792 15.218C17.8792 15.8386 17.3763 16.3426 16.7545 16.3426ZM22.3778 16.3426C21.756 16.3426 21.2532 15.8386 21.2532 15.218C21.2532 14.5961 21.756 14.0933 22.3778 14.0933C22.9985 14.0933 23.5013 14.5961 23.5013 15.218C23.5013 15.8386 22.9985 16.3426 22.3778 16.3426ZM6.74683 9.76381C6.00133 9.76381 5.39817 9.15948 5.39817 8.41514C5.39817 7.66964 6.00133 7.06531 6.74683 7.06531C7.49233 7.06531 8.09667 7.66964 8.09667 8.41514C8.09667 9.15948 7.49233 9.76381 6.74683 9.76381ZM13.4937 9.76381C12.7482 9.76381 12.145 9.15948 12.145 8.41514C12.145 7.66964 12.7482 7.06531 13.4937 7.06531C14.2392 7.06531 14.8435 7.66964 14.8435 8.41514C14.8435 9.15948 14.2392 9.76381 13.4937 9.76381Z" fill="white" fill-opacity="0.8"/>
</g>
<defs>
<clipPath id="clip0_150_7244">
<rect width="28" height="28" fill="white"/>
</clipPath>
</defs>
</svg>
