<svg width="358" height="412" viewBox="0 0 358 412" fill="none" xmlns="http://www.w3.org/2000/svg">
<path d="M11.3558 27.1866L9.81272 30.5424L11.3558 33.8981L8 32.3551L4.64424 33.8981L6.18728 30.5424L4.64424 27.1866L8 28.7297L11.3558 27.1866Z" fill="white"/>
<path d="M16 30L8.88247 30.8825L8 38L7.11753 30.8825L0 30L7.11753 29.1175L8 22L8.88247 29.1175L16 30Z" fill="white"/>
<path d="M353.356 31.1866L351.813 34.5424L353.356 37.8981L350 36.3551L346.644 37.8981L348.187 34.5424L346.644 31.1866L350 32.7297L353.356 31.1866Z" fill="white"/>
<path d="M358 34L350.882 34.8825L350 42L349.118 34.8825L342 34L349.118 33.1175L350 26L350.882 33.1175L358 34Z" fill="white"/>
<path d="M40.8071 354.566L39.7462 356.873L40.8071 359.18L38.5 358.119L36.1929 359.18L37.2538 356.873L36.1929 354.566L38.5 355.627L40.8071 354.566Z" fill="white"/>
<path d="M44 356.5L39.1067 357.107L38.5 362L37.8933 357.107L33 356.5L37.8933 355.893L38.5 351L39.1067 355.893L44 356.5Z" fill="white"/>
<path d="M5.25841 261.945L4.67977 263.203L5.25841 264.462L4 263.883L2.74159 264.462L3.32023 263.203L2.74159 261.945L4 262.524L5.25841 261.945Z" fill="white"/>
<path d="M7 263L4.33093 263.331L4 266L3.66907 263.331L1 263L3.66907 262.669L4 260L4.33093 262.669L7 263Z" fill="white"/>
<path d="M15.2584 196.945L14.6798 198.203L15.2584 199.462L14 198.883L12.7416 199.462L13.3202 198.203L12.7416 196.945L14 197.524L15.2584 196.945Z" fill="white"/>
<path d="M17 198L14.3309 198.331L14 201L13.6691 198.331L11 198L13.6691 197.669L14 195L14.3309 197.669L17 198Z" fill="white"/>
<path d="M328.258 407.945L327.68 409.203L328.258 410.462L327 409.883L325.742 410.462L326.32 409.203L325.742 407.945L327 408.524L328.258 407.945Z" fill="white"/>
<path d="M330 409L327.331 409.331L327 412L326.669 409.331L324 409L326.669 408.669L327 406L327.331 408.669L330 409Z" fill="white"/>
<path d="M310.258 123.945L309.68 125.203L310.258 126.462L309 125.883L307.742 126.462L308.32 125.203L307.742 123.945L309 124.524L310.258 123.945Z" fill="white"/>
<path d="M312 125L309.331 125.331L309 128L308.669 125.331L306 125L308.669 124.669L309 122L309.331 124.669L312 125Z" fill="white"/>
<path d="M331.356 5.18661L329.813 8.54237L331.356 11.8981L328 10.3551L324.644 11.8981L326.187 8.54237L324.644 5.18661L328 6.72965L331.356 5.18661Z" fill="white"/>
<path d="M336 8L328.882 8.88247L328 16L327.118 8.88247L320 8L327.118 7.11753L328 0L328.882 7.11753L336 8Z" fill="white"/>
</svg>
