<svg width="1369" height="902" viewBox="0 0 1369 902" fill="none" xmlns="http://www.w3.org/2000/svg">
<path d="M256.356 193.187L254.813 196.542L256.356 199.898L253 198.355L249.644 199.898L251.187 196.542L249.644 193.187L253 194.73L256.356 193.187Z" fill="white"/>
<path d="M261 196L253.882 196.882L253 204L252.118 196.882L245 196L252.118 195.118L253 188L253.882 195.118L261 196Z" fill="white"/>
<path d="M150.356 5.18661L148.813 8.54237L150.356 11.8981L147 10.3551L143.644 11.8981L145.187 8.54237L143.644 5.18661L147 6.72965L150.356 5.18661Z" fill="white"/>
<path d="M155 8L147.882 8.88247L147 16L146.118 8.88247L139 8L146.118 7.11753L147 0L147.882 7.11753L155 8Z" fill="white"/>
<path d="M656.807 372.566L655.746 374.873L656.807 377.18L654.5 376.119L652.193 377.18L653.254 374.873L652.193 372.566L654.5 373.627L656.807 372.566Z" fill="white"/>
<path d="M660 374.5L655.107 375.107L654.5 380L653.893 375.107L649 374.5L653.893 373.893L654.5 369L655.107 373.893L660 374.5Z" fill="white"/>
<path d="M205.258 396.945L204.68 398.203L205.258 399.462L204 398.883L202.742 399.462L203.32 398.203L202.742 396.945L204 397.524L205.258 396.945Z" fill="white"/>
<path d="M207 398L204.331 398.331L204 401L203.669 398.331L201 398L203.669 397.669L204 395L204.331 397.669L207 398Z" fill="white"/>
<path d="M215.258 331.945L214.68 333.203L215.258 334.462L214 333.883L212.742 334.462L213.32 333.203L212.742 331.945L214 332.524L215.258 331.945Z" fill="white"/>
<path d="M217 333L214.331 333.331L214 336L213.669 333.331L211 333L213.669 332.669L214 330L214.331 332.669L217 333Z" fill="white"/>
<path d="M528.258 542.945L527.68 544.203L528.258 545.462L527 544.883L525.742 545.462L526.32 544.203L525.742 542.945L527 543.524L528.258 542.945Z" fill="white"/>
<path d="M530 544L527.331 544.331L527 547L526.669 544.331L524 544L526.669 543.669L527 541L527.331 543.669L530 544Z" fill="white"/>
<path d="M510.258 258.945L509.68 260.203L510.258 261.462L509 260.883L507.742 261.462L508.32 260.203L507.742 258.945L509 259.524L510.258 258.945Z" fill="white"/>
<path d="M512 260L509.331 260.331L509 263L508.669 260.331L506 260L508.669 259.669L509 257L509.331 259.669L512 260Z" fill="white"/>
<path d="M640.258 718.945L639.68 720.203L640.258 721.462L639 720.883L637.742 721.462L638.32 720.203L637.742 718.945L639 719.524L640.258 718.945Z" fill="white"/>
<path d="M642 720L639.331 720.331L639 723L638.669 720.331L636 720L638.669 719.669L639 717L639.331 719.669L642 720Z" fill="white"/>
<path d="M1067.36 129.187L1065.81 132.542L1067.36 135.898L1064 134.355L1060.64 135.898L1062.19 132.542L1060.64 129.187L1064 130.73L1067.36 129.187Z" fill="white"/>
<path d="M1072 132L1064.88 132.882L1064 140L1063.12 132.882L1056 132L1063.12 131.118L1064 124L1064.88 131.118L1072 132Z" fill="white"/>
<path d="M1197.36 589.187L1195.81 592.542L1197.36 595.898L1194 594.355L1190.64 595.898L1192.19 592.542L1190.64 589.187L1194 590.73L1197.36 589.187Z" fill="white"/>
<path d="M1202 592L1194.88 592.882L1194 600L1193.12 592.882L1186 592L1193.12 591.118L1194 584L1194.88 591.118L1202 592Z" fill="white"/>
<path d="M1128.36 160.187L1126.81 163.542L1128.36 166.898L1125 165.355L1121.64 166.898L1123.19 163.542L1121.64 160.187L1125 161.73L1128.36 160.187Z" fill="white"/>
<path d="M1133 163L1125.88 163.882L1125 171L1124.12 163.882L1117 163L1124.12 162.118L1125 155L1125.88 162.118L1133 163Z" fill="white"/>
<path d="M1258.36 620.187L1256.81 623.542L1258.36 626.898L1255 625.355L1251.64 626.898L1253.19 623.542L1251.64 620.187L1255 621.73L1258.36 620.187Z" fill="white"/>
<path d="M1263 623L1255.88 623.882L1255 631L1254.12 623.882L1247 623L1254.12 622.118L1255 615L1255.88 622.118L1263 623Z" fill="white"/>
<path d="M1234.36 293.187L1232.81 296.542L1234.36 299.898L1231 298.355L1227.64 299.898L1229.19 296.542L1227.64 293.187L1231 294.73L1234.36 293.187Z" fill="white"/>
<path d="M1239 296L1231.88 296.882L1231 304L1230.12 296.882L1223 296L1230.12 295.118L1231 288L1231.88 295.118L1239 296Z" fill="white"/>
<path d="M1364.36 753.187L1362.81 756.542L1364.36 759.898L1361 758.355L1357.64 759.898L1359.19 756.542L1357.64 753.187L1361 754.73L1364.36 753.187Z" fill="white"/>
<path d="M1369 756L1361.88 756.882L1361 764L1360.12 756.882L1353 756L1360.12 755.118L1361 748L1361.88 755.118L1369 756Z" fill="white"/>
<path d="M1112.81 456.566L1111.75 458.873L1112.81 461.18L1110.5 460.119L1108.19 461.18L1109.25 458.873L1108.19 456.566L1110.5 457.627L1112.81 456.566Z" fill="white"/>
<path d="M1116 458.5L1111.11 459.107L1110.5 464L1109.89 459.107L1105 458.5L1109.89 457.893L1110.5 453L1111.11 457.893L1116 458.5Z" fill="white"/>
<path d="M1077.26 363.945L1076.68 365.203L1077.26 366.462L1076 365.883L1074.74 366.462L1075.32 365.203L1074.74 363.945L1076 364.524L1077.26 363.945Z" fill="white"/>
<path d="M1079 365L1076.33 365.331L1076 368L1075.67 365.331L1073 365L1075.67 364.669L1076 362L1076.33 364.669L1079 365Z" fill="white"/>
<path d="M1207.26 823.945L1206.68 825.203L1207.26 826.462L1206 825.883L1204.74 826.462L1205.32 825.203L1204.74 823.945L1206 824.524L1207.26 823.945Z" fill="white"/>
<path d="M1209 825L1206.33 825.331L1206 828L1205.67 825.331L1203 825L1205.67 824.669L1206 822L1206.33 824.669L1209 825Z" fill="white"/>
<path d="M1087.26 298.945L1086.68 300.203L1087.26 301.462L1086 300.883L1084.74 301.462L1085.32 300.203L1084.74 298.945L1086 299.524L1087.26 298.945Z" fill="white"/>
<path d="M1089 300L1086.33 300.331L1086 303L1085.67 300.331L1083 300L1085.67 299.669L1086 297L1086.33 299.669L1089 300Z" fill="white"/>
<path d="M1217.26 758.945L1216.68 760.203L1217.26 761.462L1216 760.883L1214.74 761.462L1215.32 760.203L1214.74 758.945L1216 759.524L1217.26 758.945Z" fill="white"/>
<path d="M1219 760L1216.33 760.331L1216 763L1215.67 760.331L1213 760L1215.67 759.669L1216 757L1216.33 759.669L1219 760Z" fill="white"/>
<path d="M1196.26 544.945L1195.68 546.203L1196.26 547.462L1195 546.883L1193.74 547.462L1194.32 546.203L1193.74 544.945L1195 545.524L1196.26 544.945Z" fill="white"/>
<path d="M1198 546L1195.33 546.331L1195 549L1194.67 546.331L1192 546L1194.67 545.669L1195 543L1195.33 545.669L1198 546Z" fill="white"/>
<path d="M1172.26 223.945L1171.68 225.203L1172.26 226.462L1171 225.883L1169.74 226.462L1170.32 225.203L1169.74 223.945L1171 224.524L1172.26 223.945Z" fill="white"/>
<path d="M1174 225L1171.33 225.331L1171 228L1170.67 225.331L1168 225L1170.67 224.669L1171 222L1171.33 224.669L1174 225Z" fill="white"/>
<path d="M1302.26 683.945L1301.68 685.203L1302.26 686.462L1301 685.883L1299.74 686.462L1300.32 685.203L1299.74 683.945L1301 684.524L1302.26 683.945Z" fill="white"/>
<path d="M1304 685L1301.33 685.331L1301 688L1300.67 685.331L1298 685L1300.67 684.669L1301 682L1301.33 684.669L1304 685Z" fill="white"/>
<path d="M291.356 644.187L289.813 647.542L291.356 650.898L288 649.355L284.644 650.898L286.187 647.542L284.644 644.187L288 645.73L291.356 644.187Z" fill="white"/>
<path d="M296 647L288.882 647.882L288 655L287.118 647.882L280 647L287.118 646.118L288 639L288.882 646.118L296 647Z" fill="white"/>
<path d="M97.3558 757.187L95.8127 760.542L97.3558 763.898L94 762.355L90.6442 763.898L92.1873 760.542L90.6442 757.187L94 758.73L97.3558 757.187Z" fill="white"/>
<path d="M102 760L94.8825 760.882L94 768L93.1175 760.882L86 760L93.1175 759.118L94 752L94.8825 759.118L102 760Z" fill="white"/>
<path d="M81.3558 184.187L79.8127 187.542L81.3558 190.898L78 189.355L74.6442 190.898L76.1873 187.542L74.6442 184.187L78 185.73L81.3558 184.187Z" fill="white"/>
<path d="M86 187L78.8825 187.882L78 195L77.1175 187.882L70 187L77.1175 186.118L78 179L78.8825 186.118L86 187Z" fill="white"/>
<path d="M275.356 677.187L273.813 680.542L275.356 683.898L272 682.355L268.644 683.898L270.187 680.542L268.644 677.187L272 678.73L275.356 677.187Z" fill="white"/>
<path d="M280 680L272.882 680.882L272 688L271.118 680.882L264 680L271.118 679.118L272 672L272.882 679.118L280 680Z" fill="white"/>
<path d="M103.807 890.566L102.746 892.873L103.807 895.18L101.5 894.119L99.1929 895.18L100.254 892.873L99.1929 890.566L101.5 891.627L103.807 890.566Z" fill="white"/>
<path d="M107 892.5L102.107 893.107L101.5 898L100.893 893.107L96 892.5L100.893 891.893L101.5 887L102.107 891.893L107 892.5Z" fill="white"/>
<path d="M118.258 747.945L117.68 749.203L118.258 750.462L117 749.883L115.742 750.462L116.32 749.203L115.742 747.945L117 748.524L118.258 747.945Z" fill="white"/>
<path d="M120 749L117.331 749.331L117 752L116.669 749.331L114 749L116.669 748.669L117 746L117.331 748.669L120 749Z" fill="white"/>
<path d="M128.258 682.945L127.68 684.203L128.258 685.462L127 684.883L125.742 685.462L126.32 684.203L125.742 682.945L127 683.524L128.258 682.945Z" fill="white"/>
<path d="M130 684L127.331 684.331L127 687L126.669 684.331L124 684L126.669 683.669L127 681L127.331 683.669L130 684Z" fill="white"/>
<path d="M213.258 607.945L212.68 609.203L213.258 610.462L212 609.883L210.742 610.462L211.32 609.203L210.742 607.945L212 608.524L213.258 607.945Z" fill="white"/>
<path d="M215 609L212.331 609.331L212 612L211.669 609.331L209 609L211.669 608.669L212 606L212.331 608.669L215 609Z" fill="white"/>
</svg>
