<svg width="381" height="453" viewBox="0 0 381 453" fill="none" xmlns="http://www.w3.org/2000/svg">
<path d="M28.3558 99.1866L26.8127 102.542L28.3558 105.898L25 104.355L21.6442 105.898L23.1873 102.542L21.6442 99.1866L25 100.73L28.3558 99.1866Z" fill="white"/>
<path d="M33 102L25.8825 102.882L25 110L24.1175 102.882L17 102L24.1175 101.118L25 94L25.8825 101.118L33 102Z" fill="white"/>
<path d="M357.356 108.187L355.813 111.542L357.356 114.898L354 113.355L350.644 114.898L352.187 111.542L350.644 108.187L354 109.73L357.356 108.187Z" fill="white"/>
<path d="M362 111L354.882 111.882L354 119L353.118 111.882L346 111L353.118 110.118L354 103L354.882 110.118L362 111Z" fill="white"/>
<path d="M4.80708 443.566L3.74624 445.873L4.80708 448.18L2.5 447.119L0.192914 448.18L1.25375 445.873L0.192914 443.566L2.5 444.627L4.80708 443.566Z" fill="white"/>
<path d="M8 445.5L3.1067 446.107L2.5 451L1.8933 446.107L-3 445.5L1.8933 444.893L2.5 440L3.1067 444.893L8 445.5Z" fill="white"/>
<path d="M27.2584 302.945L26.6798 304.203L27.2584 305.462L26 304.883L24.7416 305.462L25.3202 304.203L24.7416 302.945L26 303.524L27.2584 302.945Z" fill="white"/>
<path d="M29 304L26.3309 304.331L26 307L25.6691 304.331L23 304L25.6691 303.669L26 301L26.3309 303.669L29 304Z" fill="white"/>
<path d="M37.2584 237.945L36.6798 239.203L37.2584 240.462L36 239.883L34.7416 240.462L35.3202 239.203L34.7416 237.945L36 238.524L37.2584 237.945Z" fill="white"/>
<path d="M39 239L36.3309 239.331L36 242L35.6691 239.331L33 239L35.6691 238.669L36 236L36.3309 238.669L39 239Z" fill="white"/>
<path d="M350.258 448.945L349.68 450.203L350.258 451.462L349 450.883L347.742 451.462L348.32 450.203L347.742 448.945L349 449.524L350.258 448.945Z" fill="white"/>
<path d="M352 450L349.331 450.331L349 453L348.669 450.331L346 450L348.669 449.669L349 447L349.331 449.669L352 450Z" fill="white"/>
<path d="M332.258 164.945L331.68 166.203L332.258 167.462L331 166.883L329.742 167.462L330.32 166.203L329.742 164.945L331 165.524L332.258 164.945Z" fill="white"/>
<path d="M334 166L331.331 166.331L331 169L330.669 166.331L328 166L330.669 165.669L331 163L331.331 165.669L334 166Z" fill="white"/>
<path d="M376.356 5.18661L374.813 8.54237L376.356 11.8981L373 10.3551L369.644 11.8981L371.187 8.54237L369.644 5.18661L373 6.72965L376.356 5.18661Z" fill="white"/>
<path d="M381 8L373.882 8.88247L373 16L372.118 8.88247L365 8L372.118 7.11753L373 0L373.882 7.11753L381 8Z" fill="white"/>
</svg>
