<svg width="1038" height="531" viewBox="0 0 1038 531" fill="none" xmlns="http://www.w3.org/2000/svg">
<path d="M55.3558 69.1866L53.8127 72.5424L55.3558 75.8981L52 74.3551L48.6442 75.8981L50.1873 72.5424L48.6442 69.1866L52 70.7297L55.3558 69.1866Z" fill="white"/>
<path d="M60 72L52.8825 72.8825L52 80L51.1175 72.8825L44 72L51.1175 71.1175L52 64L52.8825 71.1175L60 72Z" fill="white"/>
<path d="M334.356 78.1866L332.813 81.5424L334.356 84.8981L331 83.3551L327.644 84.8981L329.187 81.5424L327.644 78.1866L331 79.7297L334.356 78.1866Z" fill="white"/>
<path d="M339 81L331.882 81.8825L331 89L330.118 81.8825L323 81L330.118 80.1175L331 73L331.882 80.1175L339 81Z" fill="white"/>
<path d="M39.8071 365.566L38.7462 367.873L39.8071 370.18L37.5 369.119L35.1929 370.18L36.2538 367.873L35.1929 365.566L37.5 366.627L39.8071 365.566Z" fill="white"/>
<path d="M43 367.5L38.1067 368.107L37.5 373L36.8933 368.107L32 367.5L36.8933 366.893L37.5 362L38.1067 366.893L43 367.5Z" fill="white"/>
<path d="M4.25841 272.945L3.67977 274.203L4.25841 275.462L3 274.883L1.74159 275.462L2.32023 274.203L1.74159 272.945L3 273.524L4.25841 272.945Z" fill="white"/>
<path d="M6 274L3.33093 274.331L3 277L2.66907 274.331L0 274L2.66907 273.669L3 271L3.33093 273.669L6 274Z" fill="white"/>
<path d="M14.2584 207.945L13.6798 209.203L14.2584 210.462L13 209.883L11.7416 210.462L12.3202 209.203L11.7416 207.945L13 208.524L14.2584 207.945Z" fill="white"/>
<path d="M16 209L13.3309 209.331L13 212L12.6691 209.331L10 209L12.6691 208.669L13 206L13.3309 208.669L16 209Z" fill="white"/>
<path d="M327.258 418.945L326.68 420.203L327.258 421.462L326 420.883L324.742 421.462L325.32 420.203L324.742 418.945L326 419.524L327.258 418.945Z" fill="white"/>
<path d="M329 420L326.331 420.331L326 423L325.669 420.331L323 420L325.669 419.669L326 417L326.331 419.669L329 420Z" fill="white"/>
<path d="M309.258 134.945L308.68 136.203L309.258 137.462L308 136.883L306.742 137.462L307.32 136.203L306.742 134.945L308 135.524L309.258 134.945Z" fill="white"/>
<path d="M311 136L308.331 136.331L308 139L307.669 136.331L305 136L307.669 135.669L308 133L308.331 135.669L311 136Z" fill="white"/>
<path d="M866.356 5.18661L864.813 8.54237L866.356 11.8981L863 10.3551L859.644 11.8981L861.187 8.54237L859.644 5.18661L863 6.72965L866.356 5.18661Z" fill="white"/>
<path d="M871 8L863.882 8.88247L863 16L862.118 8.88247L855 8L862.118 7.11753L863 0L863.882 7.11753L871 8Z" fill="white"/>
<path d="M927.356 36.1866L925.813 39.5424L927.356 42.8981L924 41.3551L920.644 42.8981L922.187 39.5424L920.644 36.1866L924 37.7297L927.356 36.1866Z" fill="white"/>
<path d="M932 39L924.882 39.8825L924 47L923.118 39.8825L916 39L923.118 38.1175L924 31L924.882 38.1175L932 39Z" fill="white"/>
<path d="M1033.36 169.187L1031.81 172.542L1033.36 175.898L1030 174.355L1026.64 175.898L1028.19 172.542L1026.64 169.187L1030 170.73L1033.36 169.187Z" fill="white"/>
<path d="M1038 172L1030.88 172.882L1030 180L1029.12 172.882L1022 172L1029.12 171.118L1030 164L1030.88 171.118L1038 172Z" fill="white"/>
<path d="M911.807 332.566L910.746 334.873L911.807 337.18L909.5 336.119L907.193 337.18L908.254 334.873L907.193 332.566L909.5 333.627L911.807 332.566Z" fill="white"/>
<path d="M915 334.5L910.107 335.107L909.5 340L908.893 335.107L904 334.5L908.893 333.893L909.5 329L910.107 333.893L915 334.5Z" fill="white"/>
<path d="M876.258 239.945L875.68 241.203L876.258 242.462L875 241.883L873.742 242.462L874.32 241.203L873.742 239.945L875 240.524L876.258 239.945Z" fill="white"/>
<path d="M878 241L875.331 241.331L875 244L874.669 241.331L872 241L874.669 240.669L875 238L875.331 240.669L878 241Z" fill="white"/>
<path d="M886.258 174.945L885.68 176.203L886.258 177.462L885 176.883L883.742 177.462L884.32 176.203L883.742 174.945L885 175.524L886.258 174.945Z" fill="white"/>
<path d="M888 176L885.331 176.331L885 179L884.669 176.331L882 176L884.669 175.669L885 173L885.331 175.669L888 176Z" fill="white"/>
<path d="M995.258 420.945L994.68 422.203L995.258 423.462L994 422.883L992.742 423.462L993.32 422.203L992.742 420.945L994 421.524L995.258 420.945Z" fill="white"/>
<path d="M997 422L994.331 422.331L994 425L993.669 422.331L991 422L993.669 421.669L994 419L994.331 421.669L997 422Z" fill="white"/>
<path d="M971.258 99.945L970.68 101.203L971.258 102.462L970 101.883L968.742 102.462L969.32 101.203L968.742 99.945L970 100.524L971.258 99.945Z" fill="white"/>
<path d="M973 101L970.331 101.331L970 104L969.669 101.331L967 101L969.669 100.669L970 98L970.331 100.669L973 101Z" fill="white"/>
<path d="M90.3558 520.187L88.8127 523.542L90.3558 526.898L87 525.355L83.6442 526.898L85.1873 523.542L83.6442 520.187L87 521.73L90.3558 520.187Z" fill="white"/>
<path d="M95 523L87.8825 523.882L87 531L86.1175 523.882L79 523L86.1175 522.118L87 515L87.8825 522.118L95 523Z" fill="white"/>
</svg>
