<svg width="353" height="586" viewBox="0 0 353 586" fill="none" xmlns="http://www.w3.org/2000/svg">
<path d="M348.356 250.187L346.813 253.542L348.356 256.898L345 255.355L341.644 256.898L343.187 253.542L341.644 250.187L345 251.73L348.356 250.187Z" fill="white"/>
<path d="M353 253L345.882 253.882L345 261L344.118 253.882L337 253L344.118 252.118L345 245L345.882 252.118L353 253Z" fill="white"/>
<path d="M7.80708 578.566L6.74624 580.873L7.80708 583.18L5.5 582.119L3.19291 583.18L4.25375 580.873L3.19291 578.566L5.5 579.627L7.80708 578.566Z" fill="white"/>
<path d="M11 580.5L6.1067 581.107L5.5 586L4.8933 581.107L0 580.5L4.8933 579.893L5.5 575L6.1067 579.893L11 580.5Z" fill="white"/>
<path d="M70.2584 6.94498L69.6798 8.20339L70.2584 9.4618L69 8.88316L67.7416 9.4618L68.3202 8.20339L67.7416 6.94498L69 7.52362L70.2584 6.94498Z" fill="white"/>
<path d="M72 8L69.3309 8.33093L69 11L68.6691 8.33093L66 8L68.6691 7.66907L69 5L69.3309 7.66907L72 8Z" fill="white"/>
<path d="M349.258 162.945L348.68 164.203L349.258 165.462L348 164.883L346.742 165.462L347.32 164.203L346.742 162.945L348 163.524L349.258 162.945Z" fill="white"/>
<path d="M351 164L348.331 164.331L348 167L347.669 164.331L345 164L347.669 163.669L348 161L348.331 163.669L351 164Z" fill="white"/>
<path d="M335.258 481.945L334.68 483.203L335.258 484.462L334 483.883L332.742 484.462L333.32 483.203L332.742 481.945L334 482.524L335.258 481.945Z" fill="white"/>
<path d="M337 483L334.331 483.331L334 486L333.669 483.331L331 483L333.669 482.669L334 480L334.331 482.669L337 483Z" fill="white"/>
<path d="M307.258 77.945L306.68 79.2034L307.258 80.4618L306 79.8832L304.742 80.4618L305.32 79.2034L304.742 77.945L306 78.5236L307.258 77.945Z" fill="white"/>
<path d="M309 79L306.331 79.3309L306 82L305.669 79.3309L303 79L305.669 78.6691L306 76L306.331 78.6691L309 79Z" fill="white"/>
<path d="M327.356 5.18661L325.813 8.54237L327.356 11.8981L324 10.3551L320.644 11.8981L322.187 8.54237L320.644 5.18661L324 6.72965L327.356 5.18661Z" fill="white"/>
<path d="M332 8L324.882 8.88247L324 16L323.118 8.88247L316 8L323.118 7.11753L324 0L324.882 7.11753L332 8Z" fill="white"/>
</svg>
