<svg width="129" height="454" viewBox="0 0 129 454" fill="none" xmlns="http://www.w3.org/2000/svg">
<path d="M54.3343 3C54.3343 4.47276 55.5282 5.66667 57.001 5.66667C58.4737 5.66667 59.6676 4.47276 59.6676 3C59.6676 1.52724 58.4737 0.333333 57.001 0.333333C55.5282 0.333333 54.3343 1.52724 54.3343 3ZM12.5001 324L12.1073 324.309L12.5001 324ZM54.3343 450.5C54.3343 451.973 55.5282 453.167 57.001 453.167C58.4737 453.167 59.6676 451.973 59.6676 450.5C59.6676 449.027 58.4737 447.833 57.001 447.833C55.5282 447.833 54.3343 449.027 54.3343 450.5ZM56.6666 3.37178C108.752 50.2114 127.281 87.7103 127.102 119.036C126.924 150.364 108.038 175.693 84.8398 198.204C73.2445 209.456 60.6011 219.977 48.7108 230.184C36.8305 240.383 25.6994 250.271 17.1751 260.23C8.65276 270.186 2.69407 280.26 1.22277 290.84C-0.251852 301.444 2.79141 312.476 12.1073 324.309L12.893 323.691C3.70894 312.024 0.783502 301.259 2.21323 290.978C3.64628 280.673 9.46499 270.775 17.9348 260.88C26.4029 250.987 37.4788 241.144 49.3622 230.943C61.2357 220.75 73.9126 210.201 85.5362 198.921C108.776 176.37 127.921 150.793 128.102 119.042C128.283 87.2897 109.499 49.5386 57.3353 2.62822L56.6666 3.37178ZM12.1073 324.309C35.8173 354.427 52.3506 376.662 63.3397 393.254C74.3398 409.861 79.7464 420.759 81.2659 428.219C82.023 431.935 81.8062 434.757 80.871 436.996C79.9367 439.233 78.2602 440.948 75.9831 442.405C73.6989 443.866 70.8367 445.05 67.5655 446.234C64.3219 447.408 60.6309 448.597 56.8246 450.032L57.1774 450.968C60.9958 449.528 64.5967 448.372 67.9058 447.175C71.1873 445.987 74.1385 444.772 76.522 443.247C78.9126 441.718 80.7581 439.861 81.7938 437.382C82.8285 434.905 83.0295 431.866 82.2458 428.019C80.6838 420.351 75.1746 409.311 64.1734 392.701C53.161 376.075 36.6072 353.814 12.893 323.691L12.1073 324.309Z" fill="white"/>
</svg>
