<svg width="534" height="328" viewBox="0 0 534 328" fill="none" xmlns="http://www.w3.org/2000/svg">
<path d="M174.024 3C174.024 4.47276 175.218 5.66667 176.69 5.66667C178.163 5.66667 179.357 4.47276 179.357 3C179.357 1.52724 178.163 0.333333 176.69 0.333333C175.218 0.333333 174.024 1.52724 174.024 3ZM32.1904 295.5L31.8083 295.822L32.1904 295.5ZM528.333 246.5C528.333 247.973 529.527 249.167 531 249.167C532.473 249.167 533.667 247.973 533.667 246.5C533.667 245.027 532.473 243.833 531 243.833C529.527 243.833 528.333 245.027 528.333 246.5ZM176.447 2.56343C132.078 27.3332 71.5832 71.7026 34.3324 124.324C15.7047 150.637 2.86704 179.046 0.794832 208.122C-1.27855 237.215 7.42962 266.929 31.8083 295.822L32.5726 295.178C8.35126 266.471 -0.261406 237.01 1.7923 208.193C3.84718 179.36 16.5845 151.125 35.1485 124.901C72.2811 72.4474 132.636 28.1668 176.934 3.43657L176.447 2.56343ZM31.8083 295.822C62.3793 332.055 108.445 333.684 160.256 319.263C212.073 304.839 269.836 274.31 324.015 245.943C351.115 231.754 377.32 218.105 401.459 207.265C425.604 196.422 447.648 188.405 466.427 185.463C485.21 182.52 500.633 184.666 511.642 194.025C522.657 203.39 529.378 220.079 530.5 246.521L531.5 246.479C530.372 219.921 523.615 202.892 512.29 193.264C500.96 183.631 485.183 181.512 466.273 184.475C447.359 187.438 425.217 195.5 401.05 206.352C376.878 217.207 350.646 230.871 323.551 245.057C269.34 273.44 211.681 303.911 159.988 318.3C108.287 332.691 62.7516 330.945 32.5726 295.178L31.8083 295.822Z" fill="white"/>
</svg>
