<?xml version="1.0" standalone="no"?>
<!DOCTYPE svg PUBLIC "-//W3C//DTD SVG 20010904//EN"
 "http://www.w3.org/TR/2001/REC-SVG-20010904/DTD/svg10.dtd">
<svg version="1.0" xmlns="http://www.w3.org/2000/svg"
 width="700.000000pt" height="700.000000pt" viewBox="0 0 700.000000 700.000000"
 preserveAspectRatio="xMidYMid meet">
<metadata>
Created by potrace 1.14, written by Peter Selinger 2001-2017
</metadata>
<g transform="translate(0.000000,700.000000) scale(0.100000,-0.100000)"
fill="#000000" stroke="none">
<path d="M3310 6809 c0 -3 -27 -4 -60 -3 -40 2 -58 -1 -54 -8 4 -6 -1 -6 -14
1 -12 6 -23 7 -26 3 -3 -5 -23 -8 -46 -8 -22 1 -40 -2 -40 -5 0 -4 -8 -6 -17
-5 -38 6 -152 -23 -172 -43 -12 -12 -18 -21 -14 -21 3 0 -1 -8 -9 -17 -14 -18
-15 -53 -3 -102 12 -46 64 -73 145 -76 30 -1 60 1 65 4 6 3 17 6 25 7 8 0 44
4 80 8 197 21 429 21 620 1 30 -4 69 -7 85 -9 17 -1 35 -4 40 -7 6 -3 20 -4
33 -3 12 0 22 -2 22 -5 0 -4 10 -7 23 -7 12 -1 38 -4 57 -7 31 -6 58 -11 160
-33 14 -2 34 -8 45 -11 11 -4 26 -8 33 -10 26 -6 38 -10 56 -18 10 -4 31 -8
47 -9 16 -1 29 -4 29 -8 0 -5 9 -8 20 -8 11 0 20 -5 20 -11 0 -5 4 -8 8 -5 5
3 19 -1 33 -8 13 -7 30 -11 37 -8 6 2 12 -1 12 -8 0 -6 4 -9 9 -5 5 3 12 1 15
-4 3 -5 22 -12 41 -15 19 -4 35 -10 35 -15 0 -4 6 -8 13 -8 6 0 44 -15 82 -34
39 -18 76 -34 84 -35 8 -2 17 -6 20 -11 3 -4 38 -24 76 -43 39 -19 72 -37 75
-40 3 -3 16 -11 30 -18 27 -13 37 -19 120 -73 30 -20 59 -37 63 -37 5 0 16 -9
25 -19 9 -10 37 -32 62 -48 25 -16 47 -32 50 -35 3 -3 28 -23 55 -45 28 -22
52 -43 53 -47 2 -5 10 -8 18 -8 8 0 14 -8 14 -17 0 -9 3 -14 6 -10 6 6 14 -1
146 -129 77 -75 208 -214 202 -214 -2 0 8 -13 22 -29 14 -16 27 -33 27 -37 1
-5 11 -17 22 -29 28 -29 67 -81 86 -115 9 -16 18 -27 21 -24 3 2 13 -12 23
-33 10 -21 21 -40 24 -43 9 -7 63 -95 92 -150 13 -25 30 -51 37 -58 6 -7 12
-20 12 -28 0 -8 5 -14 12 -14 6 0 9 -2 6 -5 -3 -3 10 -35 28 -72 19 -36 34
-71 34 -78 0 -8 4 -15 10 -17 5 -1 11 -12 13 -23 2 -11 9 -30 16 -43 7 -13 14
-33 16 -44 3 -12 10 -25 17 -30 7 -4 10 -8 5 -8 -4 0 0 -17 9 -37 9 -21 17
-42 18 -48 1 -5 4 -14 7 -20 8 -14 23 -68 21 -77 -1 -5 3 -8 9 -8 5 0 7 -4 4
-10 -3 -5 -3 -16 2 -22 4 -7 8 -17 9 -23 5 -24 36 -141 41 -155 6 -16 11 -48
15 -87 1 -13 5 -23 8 -23 4 0 7 -12 7 -27 1 -26 6 -53 18 -108 2 -11 7 -54 11
-95 9 -96 8 -93 18 -109 7 -10 6 -12 -4 -6 -10 6 -11 4 -4 -6 10 -16 13 -499
3 -499 -10 0 -5 -34 6 -42 6 -5 6 -8 -1 -8 -6 0 -11 -6 -11 -12 -1 -15 -9 -90
-19 -168 -4 -30 -10 -64 -14 -75 -4 -11 -6 -28 -5 -37 2 -10 0 -18 -5 -18 -4
0 -6 -10 -6 -22 1 -13 -1 -27 -5 -33 -4 -5 -12 -36 -19 -68 -6 -33 -18 -74
-26 -93 -8 -19 -11 -34 -8 -34 4 0 1 -7 -6 -15 -7 -8 -10 -15 -6 -15 3 0 -4
-24 -15 -52 -12 -29 -23 -60 -24 -68 -2 -8 -4 -16 -5 -17 -2 -2 -3 -6 -4 -10
-1 -5 -10 -25 -19 -47 -9 -21 -17 -44 -17 -52 0 -7 -4 -15 -9 -18 -5 -3 -12
-18 -15 -32 -13 -49 -154 -327 -221 -433 -36 -57 -65 -107 -65 -112 0 -5 -3
-9 -7 -9 -5 0 -24 -25 -43 -55 -19 -30 -38 -55 -42 -55 -5 0 -8 -6 -8 -14 0
-8 -3 -16 -7 -18 -5 -2 -20 -19 -35 -39 -29 -39 -88 -108 -130 -151 -14 -15
-25 -28 -23 -28 1 0 -23 -26 -54 -57 -31 -32 -59 -57 -63 -56 -4 2 -9 -6 -13
-16 -3 -10 -16 -24 -30 -31 -13 -7 -23 -16 -22 -19 1 -3 -2 -8 -8 -11 -5 -3
-19 -14 -31 -25 -60 -56 -83 -75 -94 -75 -6 0 -8 -4 -5 -10 3 -5 2 -10 -3 -10
-8 0 -92 -60 -120 -87 -7 -7 -30 -22 -52 -34 -22 -13 -40 -27 -40 -31 0 -5 -4
-7 -9 -4 -5 3 -11 -1 -15 -9 -3 -8 -12 -15 -21 -15 -8 0 -15 -4 -15 -10 0 -5
-6 -10 -14 -10 -7 0 -19 -7 -26 -15 -7 -8 -16 -13 -20 -10 -4 3 -10 -2 -14
-10 -3 -8 -14 -15 -25 -15 -11 0 -25 -8 -30 -17 -6 -10 -11 -14 -11 -9 0 5 -9
1 -20 -9 -11 -10 -20 -15 -20 -10 0 4 -6 2 -13 -4 -13 -10 -155 -84 -167 -86
-3 -1 -24 -9 -47 -19 -23 -10 -45 -17 -49 -16 -4 1 -10 -2 -13 -7 -7 -11 -132
-59 -143 -55 -5 1 -8 -3 -8 -8 0 -6 -6 -10 -12 -8 -25 5 -104 -53 -91 -66 4
-3 1 -6 -5 -6 -15 0 -16 -86 -2 -95 6 -4 8 -10 5 -15 -5 -8 49 -59 63 -61 4 0
18 -3 32 -5 25 -5 140 25 140 36 0 3 10 6 21 7 12 1 38 10 58 20 20 9 38 18
41 18 3 1 18 7 33 13 16 7 33 12 38 12 5 0 9 5 9 11 0 5 5 7 10 4 6 -3 10 -1
10 4 0 6 4 10 8 8 8 -2 113 43 122 53 3 4 21 12 40 20 19 7 41 20 48 28 6 9
12 12 12 8 0 -4 14 2 30 14 17 12 30 19 30 15 0 -3 6 -1 13 5 6 6 76 53 154
105 130 87 172 117 209 153 8 7 14 11 14 8 0 -3 16 10 35 30 19 19 35 32 35
29 0 -3 14 8 31 25 18 16 36 30 41 30 5 0 6 5 3 10 -3 6 -1 10 6 10 7 0 79 68
161 150 81 83 146 150 143 150 -6 0 3 10 70 82 19 21 33 38 30 38 -5 0 1 8 52
68 13 15 23 30 23 34 0 4 6 13 13 20 7 7 45 63 85 123 39 61 76 116 82 122 6
7 8 13 6 13 -3 0 8 23 24 50 17 28 30 55 30 60 0 6 4 10 8 10 4 0 16 23 27 50
11 27 24 50 29 50 5 0 7 2 4 6 -3 3 7 32 23 65 16 32 29 64 29 69 0 6 5 10 11
10 5 0 7 4 4 10 -3 5 1 23 10 40 9 17 13 35 10 40 -3 6 -1 10 4 10 6 0 11 4
11 9 0 5 5 22 12 38 13 32 19 52 20 71 1 6 5 12 10 12 4 0 7 3 6 7 -1 5 11 49
27 98 16 50 30 99 32 110 6 27 9 37 16 55 3 8 15 62 26 120 29 147 30 158 37
220 4 30 10 65 15 77 5 13 4 25 -2 28 -5 4 -6 12 -2 18 28 45 33 587 6 701 -2
12 -5 40 -6 64 -1 23 -4 42 -7 42 -3 0 -5 18 -5 40 0 22 -3 40 -7 40 -4 0 -5
9 -3 20 2 11 -1 22 -6 25 -5 4 -7 10 -5 14 3 4 1 23 -4 42 -5 19 -11 50 -14
70 -3 20 -10 48 -15 62 -5 14 -7 28 -4 31 3 3 0 12 -7 21 -7 8 -9 15 -5 15 4
0 2 6 -4 14 -6 7 -9 21 -5 30 3 9 2 16 -3 16 -9 0 -26 53 -40 123 -3 15 -10
27 -15 27 -5 0 -7 4 -4 9 3 5 -1 25 -9 44 -8 19 -11 37 -8 41 4 3 1 6 -5 6 -7
0 -12 6 -12 14 0 16 -31 96 -71 184 -16 35 -29 70 -29 78 0 8 -4 12 -10 9 -5
-3 -10 -1 -10 6 0 13 -39 100 -49 109 -3 3 -7 12 -9 20 -2 8 -8 17 -13 18 -5
2 -9 8 -9 13 0 5 -11 27 -24 48 -14 21 -22 42 -19 45 4 3 2 6 -3 6 -5 0 -18
17 -29 38 -11 20 -28 46 -37 56 -10 10 -15 22 -13 26 3 5 -2 11 -11 14 -8 3
-12 10 -9 16 3 5 2 10 -2 10 -5 0 -19 18 -33 40 -14 22 -28 40 -33 40 -4 0 -6
4 -3 9 3 5 -1 11 -9 15 -8 3 -15 12 -15 21 0 8 -3 15 -8 15 -4 0 -18 18 -32
39 -13 22 -28 38 -32 35 -4 -3 -8 2 -8 10 0 9 -5 16 -12 16 -6 0 -8 3 -5 6 3
4 -8 22 -26 40 -18 18 -43 47 -57 65 -33 43 -210 220 -285 286 -58 50 -69 59
-136 113 -17 14 -37 31 -45 38 -7 6 -17 12 -22 12 -6 0 -12 4 -14 8 -1 4 -25
23 -53 42 -27 19 -52 37 -55 40 -11 12 -171 110 -179 110 -5 0 -11 4 -13 9 -4
10 -170 101 -179 98 -4 -1 -15 5 -25 14 -11 9 -35 23 -54 31 -19 9 -70 32
-113 52 -43 20 -80 36 -82 36 -2 0 -16 5 -32 12 -15 6 -30 12 -33 13 -5 2 -28
10 -75 28 -16 7 -32 12 -35 13 -3 1 -20 5 -37 9 -18 4 -33 12 -33 18 0 6 -3 8
-6 5 -3 -4 -20 -2 -37 4 -39 11 -135 38 -162 44 -11 3 -31 8 -45 11 -14 3 -35
7 -47 7 -13 1 -23 4 -23 8 0 4 -8 7 -17 6 -10 0 -28 3 -41 6 -20 4 -63 11
-207 32 -16 2 -52 6 -80 8 -27 2 -50 5 -50 6 0 5 -127 10 -298 12 -92 2 -167
0 -167 -3z"/>
<path d="M1970 6730 c-8 -5 -17 -7 -20 -5 -11 7 -81 -14 -127 -37 -84 -42
-170 -153 -188 -245 -8 -40 -8 -140 0 -153 7 -11 -42 -59 -61 -60 -6 0 -21
-11 -34 -25 -13 -14 -27 -25 -32 -25 -10 0 -23 -11 -69 -52 -16 -16 -32 -28
-35 -28 -3 0 -11 -6 -18 -12 -25 -24 -66 -58 -70 -58 -12 0 -336 -313 -336
-325 0 -3 -15 -21 -34 -40 -19 -18 -47 -51 -62 -72 -16 -21 -33 -41 -39 -45
-5 -4 -10 -11 -10 -15 0 -5 -6 -15 -12 -23 -7 -8 -28 -33 -47 -55 -19 -22 -32
-43 -30 -47 3 -5 -3 -8 -12 -8 -10 0 -14 -3 -11 -6 4 -4 -18 -43 -49 -87 -30
-44 -56 -85 -57 -91 -2 -10 -7 -18 -37 -53 -8 -10 -14 -19 -12 -20 4 -5 -60
-128 -72 -135 -6 -4 -8 -8 -4 -8 4 0 -9 -32 -28 -71 -30 -60 -52 -108 -59
-129 -1 -3 -10 -23 -20 -45 -10 -22 -20 -45 -21 -51 -1 -6 -9 -27 -17 -45 -9
-19 -25 -63 -37 -99 -12 -36 -25 -72 -28 -80 -6 -17 -11 -34 -15 -52 -1 -7 -6
-19 -11 -26 -4 -7 -5 -16 -2 -19 3 -3 -1 -18 -9 -34 -8 -15 -15 -39 -15 -52 0
-13 -3 -27 -7 -30 -3 -4 -8 -19 -9 -33 -2 -15 -6 -34 -10 -43 -4 -9 -8 -27 -9
-41 -4 -28 -8 -56 -25 -153 -7 -37 -10 -71 -6 -74 3 -3 1 -13 -3 -22 -10 -19
-25 -160 -24 -238 0 -29 -3 -51 -6 -49 -3 2 -5 -53 -4 -122 2 -120 10 -307 13
-307 1 0 4 -22 6 -50 2 -27 6 -63 8 -80 3 -16 7 -52 11 -80 8 -60 24 -105 37
-105 5 0 6 -5 3 -10 -3 -5 0 -10 8 -10 8 0 20 -7 27 -15 7 -8 16 -13 20 -10 5
3 11 1 15 -5 4 -6 11 -8 16 -4 5 3 21 8 36 10 15 3 33 10 40 16 7 6 13 7 13 2
1 -16 33 50 38 76 2 14 3 41 2 60 -2 42 -8 105 -10 105 -2 0 -3 9 -16 115 -15
120 -8 579 9 596 4 4 2 13 -4 21 -6 7 -7 13 -2 13 5 0 9 15 10 33 1 27 12 95
38 242 3 17 8 38 11 47 3 10 8 30 11 45 7 38 9 45 17 65 4 9 5 22 1 28 -3 5
-2 10 3 10 6 0 13 16 17 36 3 20 11 48 17 63 6 14 13 32 15 39 1 6 5 18 6 25
2 6 9 26 16 42 6 17 17 44 23 60 6 17 15 35 21 42 5 7 6 17 2 23 -3 5 -1 10 5
10 6 0 9 4 6 9 -4 5 -3 11 1 13 5 1 19 30 32 63 14 33 35 77 48 98 13 20 21
37 18 37 -6 0 24 59 35 70 3 3 12 19 20 35 8 17 21 38 29 48 8 9 11 17 7 17
-4 0 -2 6 4 13 25 29 99 147 92 147 -4 0 -2 4 3 8 10 6 106 137 146 198 9 13
19 21 22 17 4 -3 7 -1 7 6 0 13 17 34 72 92 16 16 28 31 28 34 0 15 314 315
330 315 5 0 16 10 24 22 9 12 16 18 16 13 0 -6 5 -2 11 8 5 9 16 17 23 17 8 0
17 7 20 16 3 8 10 12 16 9 5 -3 10 -1 10 5 0 6 8 14 17 17 9 4 24 13 32 20 9
8 36 27 61 43 43 28 45 28 80 13 107 -47 228 -54 305 -17 20 9 43 17 51 17 7
0 11 4 8 9 -3 4 0 8 6 8 18 0 107 95 128 137 53 105 50 282 -6 346 -8 9 -12
17 -8 17 4 0 1 7 -8 15 -8 8 -23 25 -33 37 -29 37 -86 75 -131 89 -23 7 -42
16 -42 22 0 5 -7 7 -15 3 -8 -3 -26 -1 -40 4 -17 7 -25 6 -25 -1 0 -8 -4 -8
-13 -1 -8 7 -18 7 -27 2z m133 -216 c64 -54 88 -125 68 -201 -19 -71 -98 -133
-163 -129 -16 1 -28 -2 -28 -7 0 -5 -6 -5 -12 0 -7 6 -25 13 -39 17 -30 7 -92
60 -82 70 3 3 2 6 -4 6 -15 0 -33 55 -33 102 0 63 35 118 100 157 51 30 148
23 193 -15z"/>
<path d="M3689 6046 c-3 -3 -20 -8 -39 -11 -43 -8 -72 -37 -86 -89 -11 -43 0
-101 17 -90 5 3 9 0 9 -6 0 -12 25 -41 35 -40 3 0 6 -1 8 -1 1 -1 18 -3 37 -5
84 -9 139 -16 190 -25 91 -16 95 -16 95 -19 0 -1 11 -3 25 -5 58 -6 294 -79
314 -97 6 -4 15 -8 22 -8 6 0 29 -8 50 -17 22 -9 42 -16 47 -15 4 1 7 -2 7 -8
0 -5 3 -9 8 -8 11 2 86 -33 93 -44 3 -5 9 -9 13 -9 8 2 130 -60 136 -69 6 -8
32 -18 42 -16 4 0 14 -8 22 -19 8 -11 18 -20 23 -20 16 -1 73 -42 66 -48 -3
-4 0 -7 7 -7 7 0 36 -17 64 -39 68 -52 96 -65 129 -63 25 2 104 42 83 42 -5 0
-2 8 7 18 34 37 25 101 -20 147 -32 32 -73 65 -73 59 0 -3 -7 2 -16 10 -8 9
-41 32 -72 53 -31 21 -59 40 -62 44 -3 3 -15 9 -27 13 -13 4 -23 12 -23 17 0
6 -4 7 -10 4 -5 -3 -10 -1 -10 4 0 6 -7 11 -15 11 -8 0 -15 3 -15 8 0 4 -18
16 -40 26 -22 11 -40 23 -40 29 0 5 -7 7 -15 3 -8 -3 -15 -2 -15 3 0 8 -101
57 -112 53 -5 -1 -8 3 -8 8 0 6 -5 10 -10 10 -6 0 -29 9 -53 19 -69 31 -127
51 -127 45 0 -4 -6 -2 -13 4 -7 6 -24 12 -39 14 -14 2 -32 9 -40 16 -8 6 -17
10 -19 7 -3 -2 -26 2 -51 10 -25 7 -49 11 -52 8 -3 -4 -6 -1 -6 5 0 7 -3 11
-7 11 -5 -1 -11 0 -15 1 -5 1 -17 4 -28 5 -11 1 -21 3 -22 5 -4 2 -23 7 -108
25 -88 19 -150 28 -200 29 -25 1 -48 4 -51 9 -3 4 -7 5 -10 3z"/>
<path d="M3177 6034 c-1 -1 -22 -4 -47 -7 -25 -3 -52 -8 -60 -11 -8 -3 -31 -7
-50 -9 -19 -3 -42 -7 -50 -10 -22 -8 -92 -21 -112 -20 -10 0 -18 -4 -18 -9 0
-5 -5 -6 -10 -3 -6 4 -16 2 -23 -3 -7 -5 -20 -8 -29 -7 -10 2 -18 0 -18 -4 0
-4 -6 -8 -13 -8 -22 0 -161 -47 -168 -56 -3 -5 -10 -8 -15 -8 -14 1 -78 -21
-88 -30 -6 -5 -18 -9 -28 -9 -10 0 -18 -5 -18 -10 0 -6 -6 -10 -12 -8 -7 1
-29 -7 -48 -17 -19 -11 -37 -20 -40 -21 -3 -1 -15 -5 -27 -9 -13 -4 -23 -12
-23 -17 0 -5 -4 -6 -10 -3 -5 3 -10 3 -10 -2 0 -4 -12 -14 -27 -20 -16 -7 -52
-29 -82 -48 -29 -20 -56 -33 -59 -30 -3 3 -11 -4 -19 -15 -8 -11 -18 -20 -23
-20 -6 0 -21 -9 -34 -21 -13 -12 -27 -20 -31 -19 -4 1 -11 -2 -14 -7 -11 -15
-99 -83 -108 -83 -4 0 -14 -9 -21 -21 -7 -12 -16 -19 -18 -16 -3 3 -50 -39
-105 -92 -54 -53 -99 -95 -99 -93 0 1 -15 -14 -32 -35 -18 -21 -44 -48 -58
-60 -14 -13 -22 -23 -18 -23 4 0 -6 -14 -22 -30 -17 -17 -30 -35 -30 -40 0 -5
-9 -12 -20 -15 -11 -4 -18 -10 -15 -15 3 -5 -6 -20 -19 -33 -14 -14 -22 -28
-19 -31 3 -3 -2 -8 -11 -12 -9 -3 -16 -10 -16 -16 0 -5 -6 -16 -12 -23 -31
-34 -36 -43 -31 -49 4 -3 1 -6 -5 -6 -7 0 -12 -4 -12 -10 0 -5 -18 -37 -40
-71 -22 -34 -61 -105 -87 -158 -27 -53 -51 -97 -55 -99 -4 -2 -4 -10 -1 -18 3
-8 0 -14 -7 -14 -6 0 -9 -4 -5 -9 3 -5 1 -12 -5 -16 -6 -4 -8 -11 -5 -16 4 -5
2 -9 -2 -9 -5 0 -15 -21 -22 -47 -8 -27 -19 -57 -24 -68 -6 -11 -12 -25 -13
-32 -1 -6 -13 -47 -27 -90 -14 -43 -29 -96 -33 -118 -3 -22 -9 -44 -13 -50 -6
-10 -7 -17 -15 -70 -3 -16 -7 -41 -10 -55 -9 -46 -15 -94 -21 -165 -3 -38 -8
-92 -11 -120 -9 -80 -10 -316 -1 -322 4 -2 3 -12 -3 -22 -5 -10 -6 -21 -3 -25
4 -4 8 -21 9 -39 5 -68 15 -150 24 -198 6 -28 7 -55 4 -60 -3 -5 -1 -9 4 -9 5
0 9 -6 10 -12 2 -19 10 -60 17 -88 4 -14 8 -33 8 -42 1 -10 4 -18 8 -18 7 0
25 -78 21 -92 -1 -5 3 -8 9 -8 5 0 7 -4 4 -10 -3 -5 -1 -10 5 -10 6 0 10 -6 8
-12 -2 -12 10 -52 33 -103 8 -19 30 -74 34 -85 13 -39 135 -292 144 -300 10
-8 42 -64 48 -82 3 -10 9 -18 14 -18 5 0 9 -6 9 -13 0 -7 9 -23 20 -35 11 -12
20 -26 20 -31 0 -6 8 -14 17 -20 10 -5 15 -12 11 -16 -3 -3 4 -16 16 -29 11
-12 28 -31 36 -42 126 -162 112 -145 159 -184 13 -11 21 -20 17 -20 -7 0 91
-97 152 -150 45 -40 59 -51 122 -100 25 -19 47 -37 50 -40 7 -9 104 -74 110
-75 2 0 15 -10 28 -22 14 -13 28 -20 32 -18 5 3 10 2 12 -3 5 -13 97 -66 225
-130 68 -34 124 -62 125 -61 2 1 21 -6 43 -15 22 -10 81 -31 130 -48 50 -16
97 -33 105 -36 17 -6 14 -5 100 -27 36 -9 81 -19 100 -22 19 -3 37 -8 40 -12
3 -3 19 -7 35 -8 17 -1 48 -4 70 -8 22 -3 54 -8 70 -10 105 -16 356 -25 348
-13 -3 6 4 5 16 -1 15 -9 27 -9 41 -1 14 8 20 8 20 0 0 -6 4 -9 9 -5 5 3 42 8
83 10 104 8 137 11 188 21 25 4 57 8 73 8 15 1 27 5 27 9 0 5 8 7 18 5 9 -1
22 0 27 4 6 3 27 9 49 12 21 4 41 8 45 11 4 2 21 7 37 10 34 7 31 6 109 30 33
9 65 20 70 23 6 4 15 7 20 8 19 3 180 68 213 86 18 10 39 18 47 18 7 0 20 7
29 15 8 8 23 16 34 18 11 2 26 8 34 14 7 6 31 19 53 29 21 10 47 26 57 36 10
10 25 18 34 18 8 0 13 4 9 9 -3 5 3 12 12 15 41 13 63 98 38 146 -23 44 -55
63 -103 62 -25 0 -47 -4 -51 -9 -3 -4 -12 -9 -20 -11 -8 -2 -26 -11 -40 -21
-52 -35 -139 -80 -145 -74 -3 4 -6 2 -6 -4 0 -10 -94 -57 -116 -58 -6 0 -18
-5 -25 -11 -8 -6 -32 -17 -54 -24 -22 -7 -45 -16 -51 -21 -6 -5 -14 -6 -17 -2
-4 3 -7 0 -7 -7 0 -7 -3 -11 -6 -8 -3 4 -22 -1 -42 -9 -20 -8 -37 -14 -37 -13
0 1 -26 -5 -57 -15 -60 -17 -104 -27 -125 -28 -7 0 -13 -3 -13 -7 0 -3 -9 -6
-19 -7 -10 -1 -45 -7 -77 -13 -33 -6 -81 -13 -109 -16 -68 -7 -92 -11 -106
-20 -8 -5 -9 -3 -4 6 6 10 4 11 -11 5 -24 -11 -314 -14 -335 -3 -9 4 -21 2
-27 -4 -8 -8 -12 -8 -12 -2 0 6 -9 10 -20 9 -12 -1 -69 7 -128 17 -59 10 -114
19 -122 19 -8 0 -22 3 -30 7 -8 3 -22 6 -30 7 -8 0 -42 8 -75 18 -33 10 -79
23 -102 30 -24 6 -43 15 -43 19 0 4 -8 7 -17 7 -39 1 -53 5 -53 13 0 4 -7 8
-15 8 -8 0 -23 4 -33 9 -9 5 -35 17 -57 26 -71 30 -210 100 -213 108 -2 4 -8
7 -14 7 -22 0 -224 134 -314 209 -17 14 -45 37 -63 51 -18 14 -37 31 -44 38
-7 7 -18 18 -25 25 -35 33 -143 145 -159 164 -10 12 -27 32 -38 45 -11 12 -19
26 -17 31 1 4 -3 7 -9 7 -12 0 -35 21 -36 33 -1 5 -13 22 -27 38 -14 16 -26
31 -26 34 0 3 -8 15 -18 26 -11 10 -25 32 -33 47 -8 15 -21 32 -29 39 -8 7
-10 13 -5 13 6 0 5 4 -1 8 -7 4 -31 43 -54 87 -23 44 -47 89 -53 100 -6 11
-12 22 -12 25 0 3 -9 23 -19 45 -10 22 -22 49 -26 60 -4 11 -15 36 -23 55 -8
19 -23 62 -33 95 -10 33 -22 63 -27 66 -5 3 -8 8 -6 10 1 2 -4 29 -11 59 -8
30 -15 57 -15 60 -1 3 -7 25 -14 49 -7 24 -14 55 -16 70 -1 14 -4 26 -5 26 -6
0 -23 157 -24 217 -1 32 -4 58 -7 58 -3 0 -5 69 -3 153 2 140 5 196 20 297 2
19 7 53 10 75 7 56 9 67 17 95 4 14 9 36 11 50 4 27 24 104 34 130 3 8 6 17 7
20 12 50 61 180 93 250 8 19 16 37 17 40 8 28 70 150 77 150 4 0 8 7 8 17 0 9
10 30 23 47 12 17 31 48 42 69 11 20 23 37 28 37 4 0 6 4 3 9 -3 5 1 11 9 15
8 3 15 11 15 17 0 7 16 31 35 55 19 23 35 47 35 54 0 6 5 8 10 5 9 -6 14 8 11
28 -1 5 3 6 8 2 6 -3 15 4 22 16 24 45 210 239 230 239 7 0 9 3 6 7 -4 3 7 14
23 24 17 11 30 24 30 29 0 6 5 8 10 5 6 -3 10 -2 10 3 0 9 158 130 173 131 4
1 16 9 26 19 36 32 51 43 51 37 0 -4 12 3 26 14 15 11 31 18 37 14 5 -3 7 -1
3 5 -3 6 4 14 16 17 13 4 31 14 41 23 9 8 17 11 17 7 0 -4 9 0 19 9 11 10 24
15 30 12 5 -4 13 0 18 7 8 14 42 31 56 29 4 -1 7 2 7 8 0 6 3 9 8 8 4 -1 28 7
53 19 26 11 61 24 78 28 17 4 31 11 31 17 0 6 3 9 6 5 3 -3 18 -1 33 5 14 5
33 11 41 13 8 2 35 10 60 18 80 27 154 46 197 50 23 3 46 8 51 11 5 3 36 8 70
11 58 6 91 11 102 15 3 1 10 3 15 4 46 6 87 70 80 125 -6 44 -22 69 -57 87
-27 14 -83 25 -91 18z"/>
<path d="M5385 5109 c4 -5 -3 -9 -14 -9 -33 0 -72 -44 -78 -89 -5 -38 11 -101
26 -101 3 0 17 -18 31 -40 14 -22 28 -40 32 -40 5 0 8 -7 8 -15 0 -8 5 -15 10
-15 6 0 10 -7 10 -15 0 -8 5 -15 10 -15 6 0 10 -7 10 -15 0 -7 8 -19 18 -24 9
-6 14 -11 10 -11 -7 0 29 -59 52 -87 6 -7 8 -13 6 -13 -3 0 7 -21 22 -47 32
-55 46 -85 44 -95 -1 -5 2 -8 8 -8 6 0 9 -3 8 -7 0 -5 8 -28 20 -53 11 -24 18
-48 16 -52 -3 -4 -1 -8 4 -8 5 0 13 -10 17 -22 4 -13 8 -25 9 -28 1 -3 12 -36
24 -75 13 -38 27 -78 33 -87 5 -10 9 -30 9 -46 0 -15 4 -32 9 -37 5 -6 12 -26
15 -45 3 -19 10 -55 16 -79 6 -24 9 -50 6 -56 -2 -7 -1 -16 4 -21 5 -5 10 -33
12 -61 2 -29 5 -53 8 -53 7 0 13 -126 12 -275 -1 -175 -6 -275 -13 -275 -4 0
-6 -18 -5 -40 0 -22 -2 -40 -5 -40 -4 0 -9 -19 -12 -42 -3 -24 -8 -54 -11 -68
-4 -14 -8 -37 -11 -52 -3 -15 -9 -37 -14 -50 -4 -13 -6 -29 -4 -35 3 -7 0 -13
-7 -13 -6 0 -10 -8 -9 -17 2 -10 -3 -29 -11 -43 -7 -14 -13 -26 -12 -28 4 -4
-11 -57 -19 -67 -4 -5 -8 -14 -9 -20 -1 -5 -6 -20 -11 -33 -5 -13 -9 -25 -9
-26 0 -2 -10 -25 -22 -52 -12 -27 -22 -51 -23 -54 0 -3 -13 -29 -27 -58 -15
-28 -25 -52 -22 -52 3 0 -4 -10 -15 -22 -11 -11 -18 -24 -16 -28 3 -4 -2 -13
-10 -20 -8 -7 -15 -17 -15 -22 0 -5 -9 -21 -20 -35 -11 -14 -17 -29 -14 -34 3
-5 1 -9 -5 -9 -6 0 -17 -13 -26 -29 -8 -16 -20 -35 -27 -43 -7 -7 -19 -25 -26
-39 -8 -15 -25 -38 -38 -52 -13 -14 -24 -28 -24 -31 0 -3 -19 -26 -42 -52 -24
-26 -42 -51 -40 -55 1 -5 -3 -9 -8 -9 -11 0 -33 -46 -33 -70 0 -8 7 -32 15
-52 19 -43 61 -68 116 -68 34 0 46 7 98 59 32 33 70 75 84 95 14 20 35 49 48
64 12 15 25 35 28 45 3 9 10 17 15 17 5 0 9 5 9 11 0 6 11 25 25 43 14 18 25
35 25 39 0 3 20 39 44 80 25 41 42 78 39 81 -4 3 -2 6 3 6 6 0 18 20 28 45 11
25 23 45 27 45 5 0 6 7 3 15 -4 8 -2 15 2 15 5 0 15 15 23 33 8 17 22 51 32
74 11 23 19 47 19 52 0 6 4 11 8 11 5 0 9 6 9 13 0 6 16 59 36 117 19 58 38
124 42 148 4 23 10 42 13 42 4 0 7 12 8 28 0 15 4 47 9 72 4 25 8 55 8 68 1
12 4 22 8 22 4 0 7 15 7 33 1 17 4 55 8 82 8 65 15 475 7 487 -3 6 -7 35 -9
66 -4 57 -9 107 -19 172 -3 19 -7 44 -9 55 -1 11 -6 31 -9 45 -30 128 -41 176
-42 182 0 3 -3 10 -7 14 -5 4 -8 17 -8 29 0 12 -3 25 -7 29 -5 4 -8 11 -8 14
-1 11 -27 86 -34 97 -3 6 -6 12 -7 15 -3 16 -41 104 -65 153 -10 20 -15 37
-11 37 4 0 2 4 -4 8 -6 4 -21 30 -34 57 -13 28 -27 52 -31 55 -4 3 -9 14 -11
25 -1 10 -11 27 -20 37 -10 10 -18 25 -18 33 0 8 -4 15 -9 15 -5 0 -14 14 -21
30 -7 17 -16 30 -20 30 -4 0 -15 18 -25 40 -10 22 -21 40 -24 40 -3 0 -24 27
-46 60 -22 33 -43 60 -47 60 -4 0 -16 7 -25 15 -10 8 -21 15 -25 16 -4 0 -21
4 -38 9 -19 5 -28 5 -25 -1z"/>
<path d="M3357 4584 c-2 -3 -18 -7 -36 -9 -17 -3 -43 -7 -58 -9 -16 -3 -40 -9
-55 -15 -16 -6 -28 -8 -28 -5 0 4 -7 1 -15 -6 -8 -6 -19 -9 -25 -5 -5 3 -10 2
-10 -3 0 -5 -19 -15 -42 -21 -24 -7 -69 -28 -100 -47 -32 -18 -58 -31 -58 -28
0 2 -10 -4 -22 -16 -12 -11 -25 -20 -28 -20 -4 0 -16 -8 -28 -17 -54 -47 -63
-53 -71 -53 -6 0 -13 -9 -16 -20 -3 -11 -11 -20 -16 -20 -10 0 -32 -22 -84
-85 -16 -20 -34 -42 -40 -48 -30 -36 -75 -107 -68 -107 4 0 3 -4 -3 -8 -13 -8
-60 -104 -56 -114 1 -5 -3 -8 -8 -8 -5 0 -9 -3 -8 -7 1 -5 -6 -33 -17 -63 -21
-62 -21 -60 -30 -115 -4 -22 -9 -44 -13 -49 -3 -5 -6 -42 -7 -81 -1 -40 -5
-77 -9 -83 -3 -6 0 -13 6 -15 10 -4 10 -6 1 -6 -7 -1 -10 -7 -8 -14 3 -6 7
-37 10 -67 2 -30 6 -68 9 -85 3 -16 8 -41 10 -55 3 -14 5 -25 6 -25 1 0 4 -13
6 -30 3 -16 9 -32 15 -33 5 -2 7 -7 4 -12 -17 -28 96 -248 180 -349 29 -35
135 -141 135 -135 0 3 11 -6 24 -20 13 -15 28 -26 35 -26 6 0 11 -4 11 -10 0
-5 7 -10 15 -10 9 0 18 -7 21 -15 4 -8 10 -12 15 -9 5 3 9 0 9 -5 0 -6 7 -11
15 -11 8 0 15 -4 15 -8 0 -5 16 -14 35 -22 19 -8 35 -18 35 -24 0 -5 3 -7 6
-3 8 7 66 -21 76 -37 6 -8 8 -8 8 1 0 8 8 8 28 -3 16 -7 37 -15 48 -17 10 -1
25 -6 32 -10 6 -5 16 -6 21 -2 5 3 12 1 16 -4 3 -5 13 -10 23 -10 43 -2 89 -8
99 -14 6 -4 71 -5 144 -2 161 5 189 7 189 15 0 3 8 6 18 7 45 2 72 8 72 15 0
4 3 7 8 6 13 -4 115 34 187 70 61 30 128 75 199 132 33 26 120 115 146 149 14
18 30 38 35 44 21 24 75 114 75 125 0 6 8 16 18 21 9 6 14 11 10 11 -4 0 7 32
23 71 17 40 33 80 35 90 2 11 6 28 9 40 2 11 7 29 10 40 4 10 8 31 10 47 2 15
5 27 6 27 1 0 2 25 3 56 2 30 5 59 8 65 2 5 4 23 2 39 -1 17 -4 60 -6 97 -1
38 -6 68 -10 68 -3 0 -5 8 -4 18 8 52 -64 249 -141 387 -26 46 -36 60 -85 115
-10 11 -18 23 -18 27 0 9 -122 123 -132 123 -4 0 -8 7 -8 16 0 8 -4 12 -10 9
-5 -3 -10 -3 -10 2 0 4 -27 24 -60 43 -33 19 -60 38 -60 43 0 4 -7 7 -15 7
-17 0 -56 20 -66 34 -4 5 -12 5 -18 2 -6 -4 -11 -2 -11 4 0 7 -7 10 -15 6 -8
-3 -15 -1 -15 3 0 10 -110 46 -170 56 -19 3 -52 10 -73 15 -37 8 -282 11 -290
4z"/>
<path d="M470 2328 c-22 -8 -68 -51 -71 -67 -6 -25 -6 -111 0 -111 4 0 18 -29
31 -64 13 -36 27 -63 32 -60 4 3 8 -1 8 -10 0 -17 61 -140 72 -144 4 -2 8 -8
8 -13 0 -5 11 -27 24 -48 14 -21 22 -42 19 -45 -4 -3 -1 -6 5 -6 7 0 12 -7 12
-15 0 -8 4 -15 9 -15 5 0 14 -13 21 -30 7 -16 16 -30 21 -30 5 0 9 -5 9 -11 0
-9 44 -78 72 -114 4 -5 26 -35 47 -65 22 -30 49 -65 61 -77 11 -13 17 -23 13
-23 -4 0 0 -5 10 -11 9 -5 17 -17 17 -24 0 -8 7 -15 17 -15 9 0 14 -3 11 -6
-3 -3 12 -24 33 -47 21 -23 39 -48 39 -56 0 -8 2 -12 5 -9 3 2 58 -47 123
-111 132 -131 253 -239 260 -233 7 6 29 -24 24 -33 -3 -5 -2 -7 3 -3 4 4 33
-12 64 -36 78 -59 208 -146 220 -146 5 0 11 -4 13 -8 4 -11 121 -77 131 -74 4
1 7 -2 7 -7 0 -5 16 -15 35 -22 19 -7 35 -16 35 -20 0 -6 23 -15 44 -17 5 0
12 -5 15 -10 7 -10 116 -62 131 -62 6 0 10 -4 10 -10 0 -5 9 -10 19 -10 11 0
23 -4 26 -10 3 -5 13 -10 21 -10 8 0 33 -9 57 -20 23 -10 49 -20 57 -22 8 -2
17 -5 20 -8 4 -4 144 -53 160 -56 3 0 12 -3 20 -6 18 -7 101 -31 116 -34 6 -1
62 -13 125 -27 139 -31 190 -41 206 -38 6 1 14 -3 17 -8 3 -5 15 -7 26 -4 11
3 28 2 37 -2 10 -4 38 -9 63 -11 25 -2 74 -6 110 -10 96 -9 496 -9 565 0 33 5
74 10 90 11 17 1 52 8 78 15 79 21 114 100 76 171 -4 9 -7 18 -6 20 1 2 1 3
-1 3 -2 -1 -15 9 -29 22 -25 23 -31 24 -137 19 -61 -2 -122 -7 -136 -10 -14
-4 -117 -6 -230 -5 -238 1 -250 2 -250 11 0 4 -8 5 -17 3 -17 -5 -128 7 -218
22 -22 3 -50 7 -62 7 -13 1 -23 4 -23 7 0 3 -12 7 -27 8 -14 1 -72 14 -127 28
-56 15 -109 27 -118 28 -10 0 -18 4 -18 8 0 4 -3 7 -7 6 -17 -3 -89 19 -136
44 -10 5 -22 6 -27 3 -5 -3 -11 -1 -15 5 -4 6 -11 8 -16 5 -5 -4 -9 -1 -9 4 0
6 -7 11 -15 11 -8 0 -29 6 -47 14 -29 13 -63 26 -78 31 -3 1 -32 14 -65 30
-33 16 -63 28 -67 27 -5 -1 -8 2 -8 8 0 5 -9 10 -20 10 -11 0 -20 4 -20 8 0 4
-16 14 -35 21 -19 7 -35 17 -35 22 0 5 -3 8 -7 7 -13 -3 -83 35 -83 44 0 5 -4
7 -8 4 -5 -3 -18 4 -30 14 -12 11 -24 20 -27 20 -19 0 -316 213 -323 232 -2 4
-10 8 -18 8 -8 0 -14 4 -14 9 0 4 -20 24 -45 43 -24 19 -42 38 -38 42 3 3 0 6
-8 6 -8 1 -32 19 -54 40 -22 22 -43 40 -47 40 -5 0 -8 4 -8 9 0 5 -24 34 -52
63 -29 30 -75 81 -103 113 -27 32 -56 64 -63 71 -7 8 -11 14 -7 14 3 0 -4 11
-17 25 -59 64 -68 75 -68 84 0 6 -10 21 -23 35 -12 13 -29 37 -37 52 -8 16
-22 36 -31 45 -9 9 -22 30 -30 47 -8 18 -17 32 -21 32 -5 0 -8 7 -8 15 0 8 -3
15 -8 15 -4 0 -20 27 -35 60 -16 33 -33 60 -38 60 -5 0 -9 4 -9 9 0 16 -122
266 -131 269 -5 2 -6 9 -3 14 4 6 2 8 -4 4 -6 -3 -17 1 -25 9 -19 18 -74 25
-107 13z"/>
</g>
</svg>
