<svg width="1445" height="1100" viewBox="0 0 1445 1100" fill="none" xmlns="http://www.w3.org/2000/svg">
<path d="M1305.58 218.481C1008.17 -10.9193 713.768 -18.226 519.301 15.9607C308.741 52.9914 170.128 143.414 164.741 147.07C163.476 147.919 162.283 148.867 161.173 149.909C95.8615 187.414 45.9188 246.815 20.1735 317.589C-5.56651 388.37 -5.45184 465.975 20.5016 536.682C46.4603 607.385 96.5803 666.635 162.008 703.949C227.43 741.261 303.942 754.235 378.008 740.574C452.076 726.918 518.928 687.506 566.742 629.314C614.554 571.117 640.247 497.893 639.272 422.581C638.304 347.269 610.731 274.727 561.439 217.781C512.142 160.838 444.294 123.161 369.906 111.417C422.198 93.1659 475.89 79.1926 530.452 69.6352C796.879 23.3752 1046.29 87.9219 1271.76 261.635C1277.49 266.375 1284.9 268.578 1292.29 267.75C1299.68 266.922 1306.42 263.125 1310.96 257.234C1315.5 251.344 1317.45 243.86 1316.37 236.505C1315.28 229.146 1311.26 222.541 1305.22 218.208L1305.58 218.481ZM584.115 426.854C584.135 479.187 568.631 530.354 539.568 573.881C510.505 617.407 469.188 651.334 420.839 671.375C372.495 691.417 319.292 696.667 267.959 686.469C216.625 676.271 169.469 651.078 132.465 614.078C95.4492 577.078 70.2412 529.933 60.0226 478.598C49.809 427.265 55.0434 374.062 75.0639 325.705C95.0906 277.35 129.001 236.022 172.517 206.945C216.033 177.867 267.195 162.346 319.531 162.346C389.645 162.492 456.851 190.403 506.437 239.971C556.021 289.545 583.959 356.737 584.125 426.851L584.115 426.854ZM1125.37 354.261L1125.37 354.255C1045.05 354.297 967.693 384.594 908.706 439.115C849.717 493.632 813.436 568.37 807.081 648.449C800.727 728.517 824.769 808.049 874.42 871.182C924.07 934.322 995.685 976.442 1074.99 989.146C1022.58 1007.42 968.764 1021.4 914.086 1030.93C647.66 1077.29 398.246 1012.65 172.78 838.933H172.775C167.045 834.193 159.634 831.985 152.244 832.818C144.853 833.646 138.119 837.443 133.577 843.334C129.041 849.225 127.088 856.703 128.166 864.063C129.249 871.423 133.27 878.027 139.317 882.361C358.743 1051.6 576.53 1099.96 753.717 1099.96H753.712C811.368 1099.92 868.909 1094.88 925.685 1084.88C1135.96 1047.85 1274.75 957.607 1280.62 953.769C1281.88 952.925 1283.08 951.977 1284.18 950.935C1345.23 915.919 1393 861.727 1420.07 796.775C1447.15 731.817 1452.01 659.735 1433.9 591.735C1415.79 523.73 1375.73 463.615 1319.94 420.722C1264.15 377.829 1195.74 354.566 1125.38 354.55L1125.37 354.261ZM1125.37 938.207H1125.37C1073.03 938.223 1021.86 922.718 978.333 893.65C934.806 864.582 900.88 823.259 880.839 774.91C860.802 726.555 855.557 673.347 865.76 622.017C875.968 570.683 901.172 523.527 938.181 486.523C975.187 449.513 1022.34 424.31 1073.67 414.107C1125.01 403.899 1178.22 409.149 1226.57 429.186C1274.92 449.222 1316.25 483.15 1345.31 526.675C1374.38 570.202 1389.89 621.373 1389.87 673.715C1389.7 743.814 1361.78 810.995 1312.21 860.555C1262.64 910.115 1195.46 938.045 1125.37 938.217L1125.37 938.207Z" fill="black"/>
</svg>
