<svg width="1264" height="1264" viewBox="0 0 1264 1264" fill="none" xmlns="http://www.w3.org/2000/svg">
<path d="M820.428 482.401C815.329 487.411 808.469 490.234 801.318 490.26C794.068 490.281 787.105 487.427 781.954 482.328C776.803 477.224 773.876 470.292 773.824 463.041C773.772 455.791 776.59 448.812 781.662 443.635C795.35 455.765 808.298 468.714 820.428 482.401Z" fill="black"/>
<path d="M1236.47 0.400401H874.414C864.617 0.400401 855.559 5.62441 850.664 14.1137C845.763 22.5981 845.763 33.0564 850.664 41.5404C855.56 50.0248 864.618 55.2537 874.414 55.2537H1170.19L781.707 443.64C690.514 362.531 571.307 320.156 449.374 325.504C327.447 330.853 212.4 383.51 128.667 472.291C44.9272 561.078 -0.916846 678.998 0.864487 801.024C2.65089 923.055 51.9218 1039.58 138.224 1125.88C224.522 1212.18 341.051 1261.45 463.078 1263.24C585.109 1265.02 703.024 1219.18 791.811 1135.44C880.592 1051.7 933.251 936.648 938.598 814.728C943.947 692.807 901.571 573.595 820.462 482.395L1209.04 94.1951V389.875C1209.04 399.672 1214.26 408.73 1222.75 413.63C1231.24 418.526 1241.69 418.526 1250.18 413.63C1258.66 408.729 1263.89 399.671 1263.89 389.875V27.8217C1263.89 20.5457 1261 13.5711 1255.86 8.42573C1250.71 3.27986 1243.74 0.394531 1236.46 0.394531L1236.47 0.400401ZM883.921 793.454V793.448C883.822 903.079 840.186 1008.18 762.614 1085.65C685.035 1163.11 579.867 1206.59 470.24 1206.53C360.61 1206.46 255.494 1162.86 178 1085.3C100.516 1007.75 57.0058 902.598 57.0365 792.971C57.0677 683.341 100.64 578.211 178.172 500.705C255.703 423.199 360.853 379.658 470.479 379.658C580.151 379.804 685.279 423.455 762.799 501.038C840.315 578.622 883.878 683.798 883.924 793.465L883.921 793.454Z" fill="black"/>
</svg>
