<svg width="1453" height="1396" viewBox="0 0 1453 1396" fill="none" xmlns="http://www.w3.org/2000/svg">
<path d="M1444.8 247.506C1439.65 252.647 1432.69 255.532 1425.41 255.532C1418.15 255.532 1411.17 252.647 1406.03 247.506L1250.61 92.0796V704.653H1250.6C1250.6 711.929 1247.72 718.904 1242.57 724.049C1237.43 729.19 1230.45 732.08 1223.18 732.08H760.909V1161.8H939.096C948.898 1161.8 957.95 1167.03 962.85 1175.51C967.751 1184 967.751 1194.46 962.85 1202.95C957.949 1211.43 948.897 1216.66 939.096 1216.66H760.909V1368.25C760.909 1378.04 755.68 1387.1 747.196 1392C738.706 1396.9 728.253 1396.9 719.764 1392C711.279 1387.1 706.05 1378.04 706.05 1368.25V1216.66H512.864C503.061 1216.66 494.009 1211.43 489.109 1202.95C484.208 1194.46 484.208 1184 489.109 1175.51C494.01 1167.03 503.062 1161.8 512.864 1161.8H706.05V732.08H230.624C223.348 732.08 216.373 729.189 211.228 724.049C206.082 718.903 203.196 711.929 203.196 704.653V90.0662L45.9297 247.506C38.8828 253.574 29.247 255.652 20.3257 253.037C11.4038 250.423 4.41369 243.47 1.75769 234.559C-0.903776 225.652 1.13269 216.001 7.16396 208.928L207.391 8.79476V8.78955C212.536 3.65408 219.505 0.768748 226.776 0.768748C234.042 0.768748 241.016 3.65422 246.156 8.78955L446.383 208.936C453.325 215.874 456.034 225.994 453.492 235.472C450.956 244.957 443.549 252.363 434.065 254.904C424.586 257.441 414.467 254.732 407.524 247.79L258.217 98.123V677.416H706.217V93.4697L551.977 247.523C547.019 253.341 539.863 256.825 532.228 257.138C524.592 257.45 517.171 254.565 511.755 249.174C506.338 243.783 503.416 236.377 503.692 228.742C503.973 221.101 507.421 213.93 513.213 208.945L713.44 8.81128V8.80607C718.58 3.6706 725.554 0.785268 732.825 0.785268C740.091 0.785268 747.065 3.67074 752.205 8.80607L952.432 208.953C959.322 215.927 961.973 226.046 959.38 235.499C956.786 244.958 949.343 252.311 939.858 254.791C930.374 257.276 920.285 254.505 913.389 247.531L760.882 94.7577V677.438H1195.71V96.131L1044.4 247.531C1037.38 253.802 1027.64 256.036 1018.6 253.448C1009.55 250.864 1002.46 243.823 999.809 234.797C997.163 225.771 999.324 216.01 1005.54 208.953L1205.96 8.53967C1211.1 3.39901 1218.07 0.513672 1225.34 0.513672C1232.61 0.513672 1239.58 3.39914 1244.72 8.53967L1444.78 208.953C1449.85 214.088 1452.7 221.021 1452.7 228.245C1452.7 235.469 1449.85 242.401 1444.78 247.532L1444.8 247.506Z" fill="black"/>
</svg>
