<svg width="924" height="1414" viewBox="0 0 924 1414" fill="none" xmlns="http://www.w3.org/2000/svg">
<path d="M920.667 1251.8C902.959 1287.5 879.965 1320.33 852.465 1349.17C811.137 1391.41 766.798 1413.17 721.631 1413.17C698.725 1412.98 676.137 1407.8 655.434 1397.99C606.335 1375.5 574.611 1343.13 560.986 1302.27C530.907 1211.57 594.631 1094.72 662.199 970.842C767.069 778.842 875.506 579.896 675.455 448.242C527.428 350.69 339.361 492.95 296.575 528.242L296.58 1156.63C296.58 1166.43 291.351 1175.48 282.866 1180.38C274.377 1185.28 263.924 1185.28 255.434 1180.38C246.95 1175.48 241.721 1166.43 241.721 1156.63V187.482H28.1478C18.3509 187.482 9.29312 182.258 4.39846 173.769C-0.502611 165.285 -0.502611 154.826 4.39846 146.342C9.29432 137.853 18.3518 132.629 28.1478 132.629H241.721V27.4837C241.721 17.6868 246.95 8.62906 255.434 3.73439C263.924 -1.16667 274.377 -1.16667 282.866 3.73439C291.351 8.63026 296.58 17.6877 296.58 27.4837V132.629H510.153C519.95 132.629 529.008 137.853 533.902 146.342C538.804 154.827 538.804 165.285 533.902 173.769C529.007 182.259 519.949 187.482 510.153 187.482H296.58V458.749C328.569 435.681 362.673 415.692 398.429 399.046C514.726 345.104 621.056 346.202 705.816 402.062C948.003 561.515 816.352 802.889 710.571 996.809C648.858 1109.81 590.618 1216.24 613.202 1284.62C622.342 1310.96 643.28 1331.62 678.483 1347.8C789.295 1398.54 867.923 1235.44 871.216 1228.94H871.211C874.216 1222.22 879.8 1216.99 886.7 1214.42C893.607 1211.86 901.247 1212.17 907.914 1215.3C914.581 1218.43 919.706 1224.12 922.138 1231.06C924.575 1238.01 924.112 1245.65 920.857 1252.25L920.667 1251.8Z" fill="black"/>
</svg>
