<svg width="929" height="1303" viewBox="0 0 929 1303" fill="none" xmlns="http://www.w3.org/2000/svg">
<path d="M928.197 463.915C928.15 342.425 880.468 225.795 795.385 139.075C710.302 52.3547 594.598 2.44801 473.132 0.0880139C351.668 -2.27652 234.118 43.0827 145.718 126.432C57.3277 209.776 5.145 324.459 0.358336 445.859C-4.41246 567.255 38.609 685.685 120.181 775.712C201.76 865.739 315.381 920.192 436.661 927.365V1112.51L250.968 1112.52C241.166 1112.52 232.113 1117.75 227.213 1126.23C222.313 1134.71 222.312 1145.17 227.213 1153.66C232.114 1162.15 241.166 1167.37 250.968 1167.37H436.661V1274.8C436.661 1284.6 441.885 1293.66 450.374 1298.55C458.859 1303.45 469.317 1303.45 477.801 1298.55C486.291 1293.66 491.514 1284.6 491.514 1274.8V1167.1H677.208C687.01 1167.1 696.062 1161.87 700.962 1153.39C705.863 1144.9 705.863 1134.44 700.962 1125.95C696.061 1117.47 687.009 1112.24 677.208 1112.24H491.514V927.375C609.629 920.25 720.568 868.333 801.714 782.215C882.86 696.089 928.089 582.255 928.178 463.935L928.197 463.915ZM54.8637 463.915C54.8481 382.972 78.833 303.848 123.785 236.528C168.744 169.221 232.649 116.752 307.425 85.768C382.201 54.784 464.492 46.664 543.878 62.4453C623.269 78.2267 696.198 117.195 753.438 174.424C810.684 231.648 849.668 304.569 865.465 383.957C881.262 463.343 873.163 545.624 842.194 620.411C811.221 695.192 758.768 759.117 691.474 804.077C624.172 849.051 545.048 873.051 464.101 873.051C355.617 872.931 251.608 829.791 174.888 753.087C98.1744 676.389 55.0077 572.393 54.861 463.913L54.8637 463.915Z" fill="black"/>
</svg>
