<svg width="1110" height="1477" viewBox="0 0 1110 1477" fill="none" xmlns="http://www.w3.org/2000/svg">
<path d="M1073.93 1274.72C1066.65 1274.72 1059.68 1277.61 1054.53 1282.76C1049.39 1287.9 1046.5 1294.88 1046.5 1302.15C1046.5 1412.41 959.189 1421.01 932.397 1421.01C862.361 1421.01 787.397 1373.65 786.85 1302.97C788.954 1270.7 795.355 1167.84 801.662 1035.54C950.236 845.278 971.622 817.305 1049.61 713.358C1144.06 587.645 1111.87 492.292 1050.25 444.932L1050.24 444.926C1016.03 420.296 974.88 407.134 932.718 407.333C890.556 407.531 849.535 421.078 815.546 446.026C813.442 301.746 804.572 185.453 783.91 144.306C758.582 94.2024 721.462 62.0198 673.555 47.3011C580.3 19.8744 478.902 72.8118 464.088 81.1291H464.093C444.192 59.9931 418.905 44.6971 390.948 36.8784C317.808 16.2171 240.281 50.2278 203.708 70.2478C195.567 54.7211 184.187 41.1278 170.339 30.3838C110.729 -16.1522 24.0588 4.7851 20.4855 5.69576L20.4803 5.70097C11.3084 8.34684 4.17761 15.5759 1.64695 24.7836C-0.879053 33.9867 1.55841 43.8463 8.08961 50.8103C14.6156 57.7739 24.2976 60.8415 33.6469 58.9092C34.2876 58.9092 98.3763 43.6386 136.688 73.7212C157.167 89.8146 167.59 117.789 167.59 156.737V1081.82C167.59 1091.61 172.819 1100.67 181.303 1105.57C189.793 1110.47 200.246 1110.47 208.735 1105.57C217.219 1100.67 222.448 1091.61 222.448 1081.82V156.831C222.48 145.914 221.75 135.003 220.25 124.191C242.652 110.753 314.422 72.2586 376.317 89.8159C410.786 99.5971 436.932 125.201 456.134 167.988C502.582 271.576 470.213 861.295 453.759 1079.8L453.754 1079.8C453.228 1087.05 455.598 1094.21 460.343 1099.71C465.093 1105.22 471.832 1108.61 479.083 1109.15H481.187H481.182C488.124 1109.17 494.812 1106.55 499.9 1101.84C504.989 1097.12 508.103 1090.65 508.614 1083.73C514.739 1001.99 566.765 280.529 506.239 145.489C503.223 138.723 499.932 132.234 496.546 126.016C519.036 114.589 594.098 80.7609 658.093 99.9583C691.374 109.922 716.514 132.505 734.984 169.078C756.468 211.682 774.208 471.252 748.239 1014.7C725.474 1043.69 700.056 1076.33 671.166 1113.27L508.606 1321.63C503.653 1327.3 501.246 1334.77 501.96 1342.26C502.673 1349.76 506.439 1356.64 512.371 1361.28C518.309 1365.92 525.887 1367.91 533.335 1366.8C540.788 1365.68 547.45 1361.55 551.756 1355.37L714.317 1147.27L743.207 1110.7C739.978 1170.86 736.228 1234.22 731.962 1300.78V1302.52C731.962 1409.86 836.009 1476.24 932.376 1476.24C1010.37 1476.24 1101.34 1430.53 1101.34 1302.52V1302.53C1101.43 1295.19 1098.59 1288.11 1093.43 1282.89C1088.28 1277.67 1081.25 1274.73 1073.91 1274.73L1073.93 1274.72ZM816.101 519.521C820.466 517.692 824.299 514.802 827.252 511.109C874.43 451.041 966.319 449.578 1016.88 488.437C1069.72 529.03 1065.61 600.801 1005.82 680.437C937.243 771.864 912.467 804.234 805.95 940.824C811.528 806.597 816.101 655.01 816.101 519.517L816.101 519.521Z" fill="black"/>
</svg>
